<svg xmlns="http://www.w3.org/2000/svg" xmlns:xlink="http://www.w3.org/1999/xlink" width="376.5" zoomAndPan="magnify" viewBox="0 0 376.5 134.296875" height="134.296875" preserveAspectRatio="xMidYMid meet" version="1.0"><defs><clipPath id="b1380ccf3d"><path d="M 0 0.226562 L 376 0.226562 L 376 338.773438 L 0 338.773438 Z M 0 0.226562 " clip-rule="nonzero"></path></clipPath><clipPath id="47c1de5600"><path d="M 0 0.226562 L 375 0.226562 L 375 134.296875 L 0 134.296875 Z M 0 0.226562 " clip-rule="nonzero"></path></clipPath><clipPath id="c2e44b0e03"><path d="M 72 21 L 155 21 L 155 53 L 72 53 Z M 72 21 " clip-rule="nonzero"></path></clipPath><clipPath id="e0d00825b0"><path d="M 137.082031 49.585938 L 113.882812 49.585938 L 113.882812 23.839844 L 137.082031 23.839844 C 140.949219 23.839844 144.597656 25.1875 147.351562 27.625 C 150.109375 30.070312 151.628906 33.296875 151.628906 36.714844 C 151.628906 43.8125 145.105469 49.585938 137.082031 49.585938 Z M 112.617188 44.9375 C 112.535156 45.476562 112.40625 45.964844 112.257812 46.378906 L 112.257812 46.371094 C 112.070312 46.167969 111.804688 45.898438 111.472656 45.585938 C 111.328125 45.449219 111.171875 45.296875 110.996094 45.148438 C 110.902344 45.058594 110.800781 44.96875 110.695312 44.878906 C 108.761719 43.183594 105.476562 40.707031 101.449219 38.761719 C 100.859375 38.472656 100.253906 38.199219 99.628906 37.9375 C 99.523438 37.890625 99.40625 37.84375 99.296875 37.800781 C 98.742188 37.574219 98.175781 37.355469 97.59375 37.15625 C 97.582031 37.152344 97.558594 37.144531 97.539062 37.140625 C 96.949219 36.9375 96.351562 36.75 95.742188 36.585938 C 96.1875 36.75 96.628906 36.917969 97.058594 37.09375 C 97.242188 37.164062 97.417969 37.234375 97.585938 37.308594 C 97.710938 37.363281 97.832031 37.410156 97.953125 37.464844 C 98.402344 37.65625 98.851562 37.859375 99.285156 38.066406 C 99.78125 38.300781 100.261719 38.539062 100.722656 38.785156 C 100.980469 38.917969 101.238281 39.054688 101.492188 39.195312 C 103.417969 40.25 105.109375 41.382812 106.570312 42.503906 C 108.210938 43.757812 109.5625 45.007812 110.617188 46.132812 C 111.042969 46.582031 111.421875 47.007812 111.757812 47.417969 C 111.757812 47.417969 111.335938 47.574219 110.601562 47.761719 C 110.464844 47.789062 110.324219 47.828125 110.167969 47.855469 C 109.992188 47.898438 109.808594 47.933594 109.605469 47.96875 C 106.132812 48.601562 99.128906 48.746094 93.601562 41.679688 C 92.992188 40.902344 92.398438 40.035156 91.828125 39.074219 C 91.578125 38.640625 91.328125 38.191406 91.082031 37.722656 C 90.90625 37.375 90.730469 37.015625 90.554688 36.648438 C 90.527344 36.582031 90.492188 36.515625 90.464844 36.441406 C 89.921875 35.277344 89.417969 34 88.949219 32.59375 C 92.34375 32.777344 95.273438 33.101562 97.789062 33.535156 C 98.382812 33.644531 98.953125 33.746094 99.5 33.859375 C 104.84375 34.972656 108.125 36.605469 110.074219 38.367188 C 110.105469 38.402344 110.148438 38.4375 110.1875 38.472656 C 111.449219 39.652344 112.136719 40.886719 112.460938 42.058594 C 112.746094 43.097656 112.746094 44.089844 112.617188 44.9375 Z M 149.621094 25.617188 C 146.402344 22.769531 141.960938 21.003906 137.082031 21.003906 L 90.207031 21.003906 C 80.445312 21.003906 72.453125 28.074219 72.453125 36.714844 C 72.453125 41.039062 74.449219 44.960938 77.667969 47.808594 C 80.890625 50.65625 85.324219 52.421875 90.207031 52.421875 L 137.082031 52.421875 C 146.851562 52.421875 154.835938 45.359375 154.835938 36.714844 C 154.835938 32.394531 152.839844 28.464844 149.621094 25.617188 Z M 149.621094 25.617188 " clip-rule="nonzero"></path></clipPath><linearGradient x1="97.679001" gradientTransform="matrix(1.154481, 0, 0, 1.154481, 0.874916, 0.224797)" y1="17.999999" x2="97.679001" gradientUnits="userSpaceOnUse" y2="45.212396" id="bdc7bdcd9b"><stop stop-opacity="1" stop-color="rgb(30.198669%, 30.198669%, 30.198669%)" offset="0"></stop><stop stop-opacity="1" stop-color="rgb(30.101013%, 30.122375%, 30.107117%)" offset="0.015625"></stop><stop stop-opacity="1" stop-color="rgb(29.904175%, 29.968262%, 29.922485%)" offset="0.03125"></stop><stop stop-opacity="1" stop-color="rgb(29.708862%, 29.815674%, 29.73938%)" offset="0.046875"></stop><stop stop-opacity="1" stop-color="rgb(29.512024%, 29.663086%, 29.554749%)" offset="0.0625"></stop><stop stop-opacity="1" stop-color="rgb(29.316711%, 29.508972%, 29.371643%)" offset="0.078125"></stop><stop stop-opacity="1" stop-color="rgb(29.119873%, 29.356384%, 29.187012%)" offset="0.09375"></stop><stop stop-opacity="1" stop-color="rgb(28.924561%, 29.202271%, 29.003906%)" offset="0.109375"></stop><stop stop-opacity="1" stop-color="rgb(28.727722%, 29.049683%, 28.819275%)" offset="0.125"></stop><stop stop-opacity="1" stop-color="rgb(28.53241%, 28.895569%, 28.636169%)" offset="0.140625"></stop><stop stop-opacity="1" stop-color="rgb(28.335571%, 28.742981%, 28.451538%)" offset="0.15625"></stop><stop stop-opacity="1" stop-color="rgb(28.140259%, 28.588867%, 28.268433%)" offset="0.171875"></stop><stop stop-opacity="1" stop-color="rgb(27.94342%, 28.436279%, 28.083801%)" offset="0.1875"></stop><stop stop-opacity="1" stop-color="rgb(27.748108%, 28.282166%, 27.900696%)" offset="0.203125"></stop><stop stop-opacity="1" stop-color="rgb(27.55127%, 28.129578%, 27.716064%)" offset="0.21875"></stop><stop stop-opacity="1" stop-color="rgb(27.355957%, 27.97699%, 27.531433%)" offset="0.234375"></stop><stop stop-opacity="1" stop-color="rgb(27.159119%, 27.822876%, 27.348328%)" offset="0.25"></stop><stop stop-opacity="1" stop-color="rgb(26.963806%, 27.670288%, 27.163696%)" offset="0.265625"></stop><stop stop-opacity="1" stop-color="rgb(26.766968%, 27.516174%, 26.980591%)" offset="0.28125"></stop><stop stop-opacity="1" stop-color="rgb(26.571655%, 27.363586%, 26.795959%)" offset="0.296875"></stop><stop stop-opacity="1" stop-color="rgb(26.374817%, 27.209473%, 26.612854%)" offset="0.3125"></stop><stop stop-opacity="1" stop-color="rgb(26.179504%, 27.056885%, 26.428223%)" offset="0.328125"></stop><stop stop-opacity="1" stop-color="rgb(25.982666%, 26.902771%, 26.245117%)" offset="0.34375"></stop><stop stop-opacity="1" stop-color="rgb(25.787354%, 26.750183%, 26.060486%)" offset="0.359375"></stop><stop stop-opacity="1" stop-color="rgb(25.590515%, 26.596069%, 25.87738%)" offset="0.375"></stop><stop stop-opacity="1" stop-color="rgb(25.395203%, 26.443481%, 25.692749%)" offset="0.390625"></stop><stop stop-opacity="1" stop-color="rgb(25.198364%, 26.290894%, 25.509644%)" offset="0.40625"></stop><stop stop-opacity="1" stop-color="rgb(25.001526%, 26.13678%, 25.325012%)" offset="0.421875"></stop><stop stop-opacity="1" stop-color="rgb(24.806213%, 25.984192%, 25.141907%)" offset="0.4375"></stop><stop stop-opacity="1" stop-color="rgb(24.609375%, 25.830078%, 24.957275%)" offset="0.453125"></stop><stop stop-opacity="1" stop-color="rgb(24.414062%, 25.67749%, 24.77417%)" offset="0.46875"></stop><stop stop-opacity="1" stop-color="rgb(24.217224%, 25.523376%, 24.589539%)" offset="0.484375"></stop><stop stop-opacity="1" stop-color="rgb(24.021912%, 25.370789%, 24.406433%)" offset="0.5"></stop><stop stop-opacity="1" stop-color="rgb(23.825073%, 25.216675%, 24.221802%)" offset="0.515625"></stop><stop stop-opacity="1" stop-color="rgb(23.629761%, 25.064087%, 24.03717%)" offset="0.53125"></stop><stop stop-opacity="1" stop-color="rgb(23.432922%, 24.909973%, 23.854065%)" offset="0.546875"></stop><stop stop-opacity="1" stop-color="rgb(23.23761%, 24.757385%, 23.669434%)" offset="0.5625"></stop><stop stop-opacity="1" stop-color="rgb(23.040771%, 24.604797%, 23.486328%)" offset="0.578125"></stop><stop stop-opacity="1" stop-color="rgb(22.845459%, 24.450684%, 23.301697%)" offset="0.59375"></stop><stop stop-opacity="1" stop-color="rgb(22.648621%, 24.298096%, 23.118591%)" offset="0.609375"></stop><stop stop-opacity="1" stop-color="rgb(22.453308%, 24.143982%, 22.93396%)" offset="0.625"></stop><stop stop-opacity="1" stop-color="rgb(22.25647%, 23.991394%, 22.750854%)" offset="0.640625"></stop><stop stop-opacity="1" stop-color="rgb(22.061157%, 23.83728%, 22.566223%)" offset="0.65625"></stop><stop stop-opacity="1" stop-color="rgb(21.864319%, 23.684692%, 22.383118%)" offset="0.671875"></stop><stop stop-opacity="1" stop-color="rgb(21.669006%, 23.530579%, 22.198486%)" offset="0.6875"></stop><stop stop-opacity="1" stop-color="rgb(21.472168%, 23.377991%, 22.015381%)" offset="0.703125"></stop><stop stop-opacity="1" stop-color="rgb(21.276855%, 23.223877%, 21.83075%)" offset="0.71875"></stop><stop stop-opacity="1" stop-color="rgb(21.080017%, 23.071289%, 21.647644%)" offset="0.734375"></stop><stop stop-opacity="1" stop-color="rgb(20.884705%, 22.917175%, 21.463013%)" offset="0.75"></stop><stop stop-opacity="1" stop-color="rgb(20.687866%, 22.764587%, 21.279907%)" offset="0.765625"></stop><stop stop-opacity="1" stop-color="rgb(20.492554%, 22.612%, 21.095276%)" offset="0.78125"></stop><stop stop-opacity="1" stop-color="rgb(20.295715%, 22.457886%, 20.91217%)" offset="0.796875"></stop><stop stop-opacity="1" stop-color="rgb(20.100403%, 22.305298%, 20.727539%)" offset="0.8125"></stop><stop stop-opacity="1" stop-color="rgb(19.903564%, 22.151184%, 20.542908%)" offset="0.828125"></stop><stop stop-opacity="1" stop-color="rgb(19.708252%, 21.998596%, 20.359802%)" offset="0.84375"></stop><stop stop-opacity="1" stop-color="rgb(19.511414%, 21.844482%, 20.175171%)" offset="0.859375"></stop><stop stop-opacity="1" stop-color="rgb(19.316101%, 21.691895%, 19.992065%)" offset="0.875"></stop><stop stop-opacity="1" stop-color="rgb(19.119263%, 21.537781%, 19.807434%)" offset="0.890625"></stop><stop stop-opacity="1" stop-color="rgb(18.92395%, 21.385193%, 19.624329%)" offset="0.90625"></stop><stop stop-opacity="1" stop-color="rgb(18.727112%, 21.231079%, 19.439697%)" offset="0.921875"></stop><stop stop-opacity="1" stop-color="rgb(18.531799%, 21.078491%, 19.256592%)" offset="0.9375"></stop><stop stop-opacity="1" stop-color="rgb(18.334961%, 20.925903%, 19.07196%)" offset="0.953125"></stop><stop stop-opacity="1" stop-color="rgb(18.139648%, 20.77179%, 18.888855%)" offset="0.96875"></stop><stop stop-opacity="1" stop-color="rgb(17.94281%, 20.619202%, 18.704224%)" offset="0.984375"></stop><stop stop-opacity="1" stop-color="rgb(17.747498%, 20.465088%, 18.521118%)" offset="1"></stop></linearGradient><clipPath id="271424f311"><path d="M 114 35 L 133 35 L 133 49 L 114 49 Z M 114 35 " clip-rule="nonzero"></path></clipPath><clipPath id="64d2471657"><path d="M 124.226562 36.648438 C 120.148438 37.796875 117.710938 39.238281 116.3125 40.714844 C 116.285156 40.746094 116.257812 40.773438 116.230469 40.804688 C 115.328125 41.789062 114.871094 42.785156 114.703125 43.710938 C 114.554688 44.539062 114.613281 45.308594 114.777344 45.964844 C 114.871094 46.378906 115.007812 46.75 115.152344 47.0625 L 115.15625 47.0625 C 115.285156 46.890625 115.46875 46.667969 115.714844 46.402344 C 115.816406 46.289062 115.925781 46.167969 116.054688 46.042969 C 116.121094 45.964844 116.195312 45.890625 116.269531 45.8125 C 117.65625 44.390625 120.046875 42.292969 123.054688 40.5625 C 123.488281 40.3125 123.941406 40.066406 124.40625 39.832031 C 124.492188 39.785156 124.574219 39.742188 124.664062 39.699219 C 125.078125 39.496094 125.503906 39.296875 125.9375 39.109375 C 125.953125 39.109375 125.964844 39.097656 125.988281 39.09375 C 126.429688 38.90625 126.882812 38.726562 127.34375 38.570312 C 127.003906 38.71875 126.679688 38.875 126.351562 39.03125 C 126.21875 39.097656 126.089844 39.164062 125.953125 39.230469 C 125.863281 39.277344 125.769531 39.320312 125.679688 39.367188 C 125.34375 39.542969 125.015625 39.722656 124.691406 39.910156 C 124.324219 40.113281 123.964844 40.328125 123.617188 40.539062 C 123.421875 40.660156 123.230469 40.78125 123.046875 40.902344 C 121.613281 41.824219 120.378906 42.796875 119.320312 43.746094 C 118.125 44.816406 117.160156 45.855469 116.414062 46.789062 C 116.113281 47.160156 115.84375 47.515625 115.621094 47.84375 C 115.621094 47.84375 115.953125 47.945312 116.535156 48.050781 C 116.644531 48.066406 116.761719 48.089844 116.882812 48.109375 C 117.019531 48.128906 117.167969 48.144531 117.332031 48.164062 C 120.066406 48.46875 125.53125 48.210938 129.355469 42.421875 C 129.773438 41.777344 130.183594 41.074219 130.554688 40.292969 C 130.726562 39.945312 130.890625 39.585938 131.046875 39.207031 C 131.160156 38.925781 131.277344 38.636719 131.382812 38.339844 C 131.40625 38.289062 131.425781 38.234375 131.445312 38.179688 C 131.785156 37.242188 132.089844 36.222656 132.363281 35.105469 C 129.726562 35.421875 127.472656 35.832031 125.546875 36.304688 C 125.089844 36.414062 124.65625 36.535156 124.226562 36.648438 Z M 124.226562 36.648438 " clip-rule="nonzero"></path></clipPath><linearGradient x1="106.208" gradientTransform="matrix(1.154481, 0, 0, 1.154481, 0.874916, 0.224797)" y1="30.211998" x2="106.208" gradientUnits="userSpaceOnUse" y2="41.788998" id="b0cd2772d3"><stop stop-opacity="1" stop-color="rgb(30.198669%, 30.198669%, 30.198669%)" offset="0"></stop><stop stop-opacity="1" stop-color="rgb(30.099487%, 30.12085%, 30.105591%)" offset="0.015625"></stop><stop stop-opacity="1" stop-color="rgb(29.899597%, 29.96521%, 29.917908%)" offset="0.03125"></stop><stop stop-opacity="1" stop-color="rgb(29.699707%, 29.80957%, 29.73175%)" offset="0.046875"></stop><stop stop-opacity="1" stop-color="rgb(29.501343%, 29.653931%, 29.544067%)" offset="0.0625"></stop><stop stop-opacity="1" stop-color="rgb(29.301453%, 29.498291%, 29.35791%)" offset="0.078125"></stop><stop stop-opacity="1" stop-color="rgb(29.101562%, 29.341125%, 29.170227%)" offset="0.09375"></stop><stop stop-opacity="1" stop-color="rgb(28.903198%, 29.185486%, 28.982544%)" offset="0.109375"></stop><stop stop-opacity="1" stop-color="rgb(28.703308%, 29.029846%, 28.796387%)" offset="0.125"></stop><stop stop-opacity="1" stop-color="rgb(28.503418%, 28.874207%, 28.608704%)" offset="0.140625"></stop><stop stop-opacity="1" stop-color="rgb(28.303528%, 28.718567%, 28.422546%)" offset="0.15625"></stop><stop stop-opacity="1" stop-color="rgb(28.105164%, 28.562927%, 28.234863%)" offset="0.171875"></stop><stop stop-opacity="1" stop-color="rgb(27.905273%, 28.405762%, 28.048706%)" offset="0.1875"></stop><stop stop-opacity="1" stop-color="rgb(27.705383%, 28.250122%, 27.861023%)" offset="0.203125"></stop><stop stop-opacity="1" stop-color="rgb(27.507019%, 28.094482%, 27.67334%)" offset="0.21875"></stop><stop stop-opacity="1" stop-color="rgb(27.307129%, 27.938843%, 27.487183%)" offset="0.234375"></stop><stop stop-opacity="1" stop-color="rgb(27.107239%, 27.783203%, 27.2995%)" offset="0.25"></stop><stop stop-opacity="1" stop-color="rgb(26.908875%, 27.627563%, 27.113342%)" offset="0.265625"></stop><stop stop-opacity="1" stop-color="rgb(26.708984%, 27.471924%, 26.925659%)" offset="0.28125"></stop><stop stop-opacity="1" stop-color="rgb(26.509094%, 27.314758%, 26.739502%)" offset="0.296875"></stop><stop stop-opacity="1" stop-color="rgb(26.31073%, 27.159119%, 26.551819%)" offset="0.3125"></stop><stop stop-opacity="1" stop-color="rgb(26.11084%, 27.003479%, 26.364136%)" offset="0.328125"></stop><stop stop-opacity="1" stop-color="rgb(25.91095%, 26.847839%, 26.177979%)" offset="0.34375"></stop><stop stop-opacity="1" stop-color="rgb(25.71106%, 26.6922%, 25.990295%)" offset="0.359375"></stop><stop stop-opacity="1" stop-color="rgb(25.512695%, 26.53656%, 25.804138%)" offset="0.375"></stop><stop stop-opacity="1" stop-color="rgb(25.312805%, 26.379395%, 25.616455%)" offset="0.390625"></stop><stop stop-opacity="1" stop-color="rgb(25.112915%, 26.223755%, 25.430298%)" offset="0.40625"></stop><stop stop-opacity="1" stop-color="rgb(24.914551%, 26.068115%, 25.242615%)" offset="0.421875"></stop><stop stop-opacity="1" stop-color="rgb(24.714661%, 25.912476%, 25.054932%)" offset="0.4375"></stop><stop stop-opacity="1" stop-color="rgb(24.514771%, 25.756836%, 24.868774%)" offset="0.453125"></stop><stop stop-opacity="1" stop-color="rgb(24.316406%, 25.601196%, 24.681091%)" offset="0.46875"></stop><stop stop-opacity="1" stop-color="rgb(24.116516%, 25.444031%, 24.494934%)" offset="0.484375"></stop><stop stop-opacity="1" stop-color="rgb(23.916626%, 25.288391%, 24.307251%)" offset="0.5"></stop><stop stop-opacity="1" stop-color="rgb(23.718262%, 25.132751%, 24.121094%)" offset="0.515625"></stop><stop stop-opacity="1" stop-color="rgb(23.518372%, 24.977112%, 23.933411%)" offset="0.53125"></stop><stop stop-opacity="1" stop-color="rgb(23.318481%, 24.821472%, 23.745728%)" offset="0.546875"></stop><stop stop-opacity="1" stop-color="rgb(23.120117%, 24.665833%, 23.55957%)" offset="0.5625"></stop><stop stop-opacity="1" stop-color="rgb(22.920227%, 24.510193%, 23.371887%)" offset="0.578125"></stop><stop stop-opacity="1" stop-color="rgb(22.720337%, 24.353027%, 23.18573%)" offset="0.59375"></stop><stop stop-opacity="1" stop-color="rgb(22.520447%, 24.197388%, 22.998047%)" offset="0.609375"></stop><stop stop-opacity="1" stop-color="rgb(22.322083%, 24.041748%, 22.81189%)" offset="0.625"></stop><stop stop-opacity="1" stop-color="rgb(22.122192%, 23.886108%, 22.624207%)" offset="0.640625"></stop><stop stop-opacity="1" stop-color="rgb(21.922302%, 23.730469%, 22.438049%)" offset="0.65625"></stop><stop stop-opacity="1" stop-color="rgb(21.723938%, 23.574829%, 22.250366%)" offset="0.671875"></stop><stop stop-opacity="1" stop-color="rgb(21.524048%, 23.417664%, 22.062683%)" offset="0.6875"></stop><stop stop-opacity="1" stop-color="rgb(21.324158%, 23.262024%, 21.876526%)" offset="0.703125"></stop><stop stop-opacity="1" stop-color="rgb(21.125793%, 23.106384%, 21.688843%)" offset="0.71875"></stop><stop stop-opacity="1" stop-color="rgb(20.925903%, 22.950745%, 21.502686%)" offset="0.734375"></stop><stop stop-opacity="1" stop-color="rgb(20.726013%, 22.795105%, 21.315002%)" offset="0.75"></stop><stop stop-opacity="1" stop-color="rgb(20.527649%, 22.639465%, 21.128845%)" offset="0.765625"></stop><stop stop-opacity="1" stop-color="rgb(20.327759%, 22.483826%, 20.941162%)" offset="0.78125"></stop><stop stop-opacity="1" stop-color="rgb(20.127869%, 22.32666%, 20.753479%)" offset="0.796875"></stop><stop stop-opacity="1" stop-color="rgb(19.927979%, 22.171021%, 20.567322%)" offset="0.8125"></stop><stop stop-opacity="1" stop-color="rgb(19.729614%, 22.015381%, 20.379639%)" offset="0.828125"></stop><stop stop-opacity="1" stop-color="rgb(19.529724%, 21.859741%, 20.193481%)" offset="0.84375"></stop><stop stop-opacity="1" stop-color="rgb(19.329834%, 21.704102%, 20.005798%)" offset="0.859375"></stop><stop stop-opacity="1" stop-color="rgb(19.13147%, 21.548462%, 19.819641%)" offset="0.875"></stop><stop stop-opacity="1" stop-color="rgb(18.93158%, 21.391296%, 19.631958%)" offset="0.890625"></stop><stop stop-opacity="1" stop-color="rgb(18.731689%, 21.235657%, 19.444275%)" offset="0.90625"></stop><stop stop-opacity="1" stop-color="rgb(18.533325%, 21.080017%, 19.258118%)" offset="0.921875"></stop><stop stop-opacity="1" stop-color="rgb(18.333435%, 20.924377%, 19.070435%)" offset="0.9375"></stop><stop stop-opacity="1" stop-color="rgb(18.133545%, 20.768738%, 18.884277%)" offset="0.953125"></stop><stop stop-opacity="1" stop-color="rgb(17.935181%, 20.613098%, 18.696594%)" offset="0.96875"></stop><stop stop-opacity="1" stop-color="rgb(17.74292%, 20.462036%, 18.516541%)" offset="1"></stop></linearGradient><clipPath id="d6d94bb618"><path d="M 168 21 L 342 21 L 342 52 L 168 52 Z M 168 21 " clip-rule="nonzero"></path></clipPath><clipPath id="27ff88e0a5"><path d="M 169.882812 51.269531 C 169.523438 51.269531 169.230469 51.160156 169.007812 50.9375 C 168.816406 50.71875 168.71875 50.414062 168.71875 50.023438 L 168.71875 22.71875 C 168.71875 22.304688 168.816406 22 169.007812 21.804688 C 169.230469 21.582031 169.507812 21.472656 169.839844 21.472656 C 170.199219 21.472656 170.476562 21.542969 170.671875 21.679688 C 170.867188 21.816406 171.046875 22.039062 171.210938 22.34375 L 183.097656 44.914062 L 181.933594 44.914062 L 193.738281 22.34375 C 193.933594 22.039062 194.113281 21.816406 194.277344 21.679688 C 194.472656 21.542969 194.75 21.472656 195.109375 21.472656 C 195.441406 21.472656 195.707031 21.582031 195.898438 21.804688 C 196.121094 22 196.230469 22.304688 196.230469 22.71875 L 196.230469 50.023438 C 196.230469 50.414062 196.132812 50.71875 195.941406 50.9375 C 195.746094 51.160156 195.457031 51.269531 195.066406 51.269531 C 194.679688 51.269531 194.375 51.160156 194.152344 50.9375 C 193.960938 50.71875 193.863281 50.414062 193.863281 50.023438 L 193.863281 24.796875 L 194.859375 24.796875 L 183.722656 45.910156 C 183.582031 46.1875 183.429688 46.394531 183.265625 46.535156 C 183.097656 46.671875 182.863281 46.742188 182.558594 46.742188 C 182.226562 46.742188 181.960938 46.671875 181.769531 46.535156 C 181.601562 46.367188 181.449219 46.160156 181.3125 45.910156 L 170.046875 24.753906 L 171.046875 24.753906 L 171.046875 50.023438 C 171.046875 50.414062 170.949219 50.71875 170.753906 50.9375 C 170.558594 51.160156 170.269531 51.269531 169.882812 51.269531 Z M 214.917969 51.355469 C 213.035156 51.355469 211.398438 50.925781 210.015625 50.066406 C 208.628906 49.207031 207.550781 48 206.773438 46.449219 C 206.023438 44.898438 205.652344 43.054688 205.652344 40.921875 C 205.652344 39.34375 205.859375 37.917969 206.273438 36.640625 C 206.71875 35.367188 207.339844 34.273438 208.144531 33.359375 C 208.976562 32.417969 209.960938 31.710938 211.09375 31.238281 C 212.257812 30.738281 213.535156 30.492188 214.917969 30.492188 C 216.832031 30.492188 218.480469 30.921875 219.863281 31.777344 C 221.25 32.636719 222.316406 33.855469 223.066406 35.4375 C 223.839844 36.988281 224.230469 38.816406 224.230469 40.921875 C 224.230469 42.53125 224.007812 43.96875 223.5625 45.246094 C 223.148438 46.519531 222.523438 47.613281 221.695312 48.527344 C 220.890625 49.441406 219.921875 50.148438 218.785156 50.648438 C 217.648438 51.117188 216.359375 51.355469 214.917969 51.355469 Z M 214.917969 49.234375 C 216.304688 49.234375 217.496094 48.917969 218.492188 48.277344 C 219.519531 47.613281 220.292969 46.65625 220.820312 45.410156 C 221.375 44.164062 221.652344 42.667969 221.652344 40.921875 C 221.652344 38.289062 221.042969 36.253906 219.824219 34.8125 C 218.632812 33.371094 216.996094 32.652344 214.917969 32.652344 C 213.5625 32.652344 212.371094 32.984375 211.34375 33.648438 C 210.347656 34.285156 209.570312 35.230469 209.015625 36.476562 C 208.492188 37.695312 208.226562 39.175781 208.226562 40.921875 C 208.226562 43.582031 208.835938 45.632812 210.054688 47.074219 C 211.277344 48.515625 212.898438 49.234375 214.917969 49.234375 Z M 247.074219 51.269531 C 246.6875 51.269531 246.382812 51.160156 246.160156 50.9375 C 245.9375 50.71875 245.828125 50.414062 245.828125 50.023438 L 245.828125 43 L 242.542969 43 C 241.296875 43 240.257812 43.304688 239.425781 43.914062 C 238.597656 44.523438 237.917969 45.273438 237.390625 46.160156 L 234.898438 50.523438 C 234.703125 50.855469 234.46875 51.078125 234.191406 51.1875 C 233.941406 51.300781 233.691406 51.3125 233.441406 51.230469 C 233.195312 51.175781 232.972656 51.050781 232.777344 50.855469 C 232.582031 50.660156 232.460938 50.441406 232.402344 50.191406 C 232.375 49.941406 232.445312 49.664062 232.613281 49.359375 L 234.898438 45.410156 C 235.394531 44.578125 236.035156 43.886719 236.808594 43.332031 C 237.613281 42.75 238.402344 42.460938 239.179688 42.460938 L 239.550781 42.460938 L 239.550781 42.75 C 237.363281 42.75 235.644531 42.238281 234.398438 41.214844 C 233.152344 40.160156 232.527344 38.691406 232.527344 36.808594 C 232.527344 35.617188 232.792969 34.578125 233.316406 33.691406 C 233.84375 32.777344 234.632812 32.082031 235.6875 31.613281 C 236.769531 31.113281 238.113281 30.863281 239.71875 30.863281 L 246.910156 30.863281 C 247.351562 30.863281 247.683594 30.988281 247.90625 31.238281 C 248.15625 31.460938 248.28125 31.792969 248.28125 32.234375 L 248.28125 50.023438 C 248.28125 50.414062 248.167969 50.71875 247.949219 50.9375 C 247.726562 51.160156 247.433594 51.269531 247.074219 51.269531 Z M 240.175781 41.046875 L 245.828125 41.046875 L 245.828125 32.777344 L 240.175781 32.777344 C 238.402344 32.777344 237.101562 33.136719 236.269531 33.855469 C 235.4375 34.578125 235.023438 35.589844 235.023438 36.890625 C 235.023438 38.195312 235.4375 39.21875 236.269531 39.964844 C 237.101562 40.6875 238.402344 41.046875 240.175781 41.046875 Z M 274.140625 51.023438 C 273.699219 51.023438 273.351562 50.898438 273.101562 50.648438 C 272.851562 50.398438 272.730469 50.039062 272.730469 49.566406 L 272.730469 23.175781 C 272.730469 22.703125 272.851562 22.34375 273.101562 22.09375 C 273.351562 21.847656 273.699219 21.722656 274.140625 21.722656 L 289.851562 21.722656 C 290.238281 21.722656 290.53125 21.816406 290.726562 22.011719 C 290.917969 22.207031 291.015625 22.46875 291.015625 22.800781 C 291.015625 23.191406 290.917969 23.480469 290.726562 23.675781 C 290.53125 23.839844 290.238281 23.925781 289.851562 23.925781 L 275.222656 23.925781 L 275.222656 35.0625 L 289.019531 35.0625 C 289.410156 35.0625 289.699219 35.160156 289.894531 35.351562 C 290.085938 35.519531 290.183594 35.78125 290.183594 36.144531 C 290.183594 36.503906 290.085938 36.78125 289.894531 36.972656 C 289.699219 37.167969 289.410156 37.265625 289.019531 37.265625 L 275.222656 37.265625 L 275.222656 48.820312 L 289.851562 48.820312 C 290.238281 48.820312 290.53125 48.917969 290.726562 49.109375 C 290.917969 49.277344 291.015625 49.539062 291.015625 49.898438 C 291.015625 50.261719 290.917969 50.535156 290.726562 50.730469 C 290.53125 50.925781 290.238281 51.023438 289.851562 51.023438 Z M 300.957031 51.269531 C 300.539062 51.269531 300.222656 51.160156 300 50.9375 C 299.777344 50.71875 299.667969 50.398438 299.667969 49.984375 L 299.667969 32.027344 C 299.667969 31.585938 299.777344 31.253906 300 31.03125 C 300.222656 30.808594 300.539062 30.699219 300.957031 30.699219 C 301.34375 30.699219 301.648438 30.808594 301.871094 31.03125 C 302.089844 31.253906 302.203125 31.585938 302.203125 32.027344 L 302.203125 39.550781 L 306.359375 39.550781 L 312.96875 31.28125 C 313.160156 31.003906 313.382812 30.835938 313.632812 30.78125 C 313.910156 30.699219 314.160156 30.699219 314.378906 30.78125 C 314.601562 30.835938 314.78125 30.960938 314.921875 31.15625 C 315.058594 31.347656 315.113281 31.585938 315.085938 31.863281 C 315.085938 32.113281 314.988281 32.375 314.796875 32.652344 L 308.519531 40.507812 L 307.648438 39.71875 C 308.449219 39.800781 309.128906 39.980469 309.683594 40.257812 C 310.238281 40.535156 310.777344 40.992188 311.304688 41.628906 C 311.859375 42.265625 312.480469 43.152344 313.175781 44.289062 L 316.375 49.527344 C 316.511719 49.804688 316.570312 50.066406 316.542969 50.316406 C 316.511719 50.535156 316.402344 50.746094 316.207031 50.9375 C 316.042969 51.105469 315.835938 51.203125 315.585938 51.230469 C 315.363281 51.285156 315.128906 51.257812 314.878906 51.148438 C 314.65625 51.0625 314.449219 50.882812 314.253906 50.605469 L 310.765625 44.828125 C 310.238281 44 309.738281 43.359375 309.269531 42.917969 C 308.824219 42.445312 308.3125 42.113281 307.730469 41.921875 C 307.175781 41.726562 306.46875 41.628906 305.609375 41.628906 L 302.203125 41.628906 L 302.203125 49.984375 C 302.203125 50.398438 302.089844 50.71875 301.871094 50.9375 C 301.648438 51.160156 301.34375 51.269531 300.957031 51.269531 Z M 332.238281 51.355469 C 330.355469 51.355469 328.722656 50.925781 327.335938 50.066406 C 325.949219 49.207031 324.871094 48 324.09375 46.449219 C 323.347656 44.898438 322.972656 43.054688 322.972656 40.921875 C 322.972656 39.34375 323.179688 37.917969 323.59375 36.640625 C 324.039062 35.367188 324.660156 34.273438 325.464844 33.359375 C 326.296875 32.417969 327.28125 31.710938 328.417969 31.238281 C 329.578125 30.738281 330.855469 30.492188 332.238281 30.492188 C 334.152344 30.492188 335.800781 30.921875 337.1875 31.777344 C 338.570312 32.636719 339.636719 33.855469 340.386719 35.4375 C 341.160156 36.988281 341.550781 38.816406 341.550781 40.921875 C 341.550781 42.53125 341.328125 43.96875 340.882812 45.246094 C 340.46875 46.519531 339.84375 47.613281 339.015625 48.527344 C 338.210938 49.441406 337.242188 50.148438 336.105469 50.648438 C 334.96875 51.117188 333.679688 51.355469 332.238281 51.355469 Z M 332.238281 49.234375 C 333.625 49.234375 334.816406 48.917969 335.8125 48.277344 C 336.839844 47.613281 337.613281 46.65625 338.140625 45.410156 C 338.695312 44.164062 338.972656 42.667969 338.972656 40.921875 C 338.972656 38.289062 338.363281 36.253906 337.144531 34.8125 C 335.953125 33.371094 334.316406 32.652344 332.238281 32.652344 C 330.882812 32.652344 329.691406 32.984375 328.664062 33.648438 C 327.667969 34.285156 326.890625 35.230469 326.339844 36.476562 C 325.8125 37.695312 325.546875 39.175781 325.546875 40.921875 C 325.546875 43.582031 326.15625 45.632812 327.378906 47.074219 C 328.597656 48.515625 330.21875 49.234375 332.238281 49.234375 Z M 332.238281 49.234375 " clip-rule="nonzero"></path></clipPath><clipPath id="d7c17936e0"><path d="M 0 204.144531 L 375 204.144531 L 375 338.214844 L 0 338.214844 Z M 0 204.144531 " clip-rule="nonzero"></path></clipPath><clipPath id="1ee2694041"><path d="M 72 224 L 155 224 L 155 257 L 72 257 Z M 72 224 " clip-rule="nonzero"></path></clipPath><clipPath id="5237489600"><path d="M 137.082031 253.507812 L 113.882812 253.507812 L 113.882812 227.761719 L 137.082031 227.761719 C 140.949219 227.761719 144.597656 229.105469 147.351562 231.542969 C 150.109375 233.988281 151.628906 237.214844 151.628906 240.632812 C 151.628906 247.734375 145.105469 253.507812 137.082031 253.507812 Z M 112.617188 248.855469 C 112.535156 249.398438 112.40625 249.882812 112.257812 250.296875 L 112.257812 250.292969 C 112.070312 250.089844 111.804688 249.816406 111.472656 249.503906 C 111.328125 249.367188 111.171875 249.21875 110.996094 249.066406 C 110.902344 248.976562 110.800781 248.886719 110.695312 248.796875 C 108.761719 247.101562 105.476562 244.628906 101.449219 242.679688 C 100.859375 242.394531 100.253906 242.117188 99.628906 241.859375 C 99.523438 241.8125 99.40625 241.761719 99.296875 241.71875 C 98.742188 241.492188 98.175781 241.277344 97.59375 241.078125 C 97.582031 241.070312 97.558594 241.066406 97.539062 241.058594 C 96.949219 240.855469 96.351562 240.667969 95.742188 240.507812 C 96.1875 240.667969 96.628906 240.835938 97.058594 241.011719 C 97.242188 241.082031 97.417969 241.15625 97.585938 241.226562 C 97.710938 241.28125 97.832031 241.328125 97.953125 241.382812 C 98.402344 241.578125 98.851562 241.78125 99.285156 241.984375 C 99.78125 242.21875 100.261719 242.460938 100.722656 242.707031 C 100.980469 242.835938 101.238281 242.976562 101.492188 243.113281 C 103.417969 244.171875 105.109375 245.300781 106.570312 246.425781 C 108.210938 247.679688 109.5625 248.929688 110.617188 250.050781 C 111.042969 250.503906 111.421875 250.929688 111.757812 251.335938 C 111.757812 251.335938 111.335938 251.492188 110.601562 251.679688 C 110.464844 251.710938 110.324219 251.746094 110.167969 251.777344 C 109.992188 251.816406 109.808594 251.855469 109.605469 251.890625 C 106.132812 252.519531 99.128906 252.664062 93.601562 245.601562 C 92.992188 244.820312 92.398438 243.953125 91.828125 242.992188 C 91.578125 242.5625 91.328125 242.109375 91.082031 241.640625 C 90.90625 241.292969 90.730469 240.933594 90.554688 240.566406 C 90.527344 240.5 90.492188 240.433594 90.464844 240.363281 C 89.921875 239.199219 89.417969 237.917969 88.949219 236.511719 C 92.34375 236.699219 95.273438 237.023438 97.789062 237.457031 C 98.382812 237.5625 98.953125 237.664062 99.5 237.78125 C 104.84375 238.890625 108.125 240.523438 110.074219 242.285156 C 110.105469 242.320312 110.148438 242.355469 110.1875 242.394531 C 111.449219 243.570312 112.136719 244.808594 112.460938 245.980469 C 112.746094 247.019531 112.746094 248.011719 112.617188 248.855469 Z M 149.621094 229.539062 C 146.402344 226.691406 141.960938 224.925781 137.082031 224.925781 L 90.207031 224.925781 C 80.445312 224.925781 72.453125 231.996094 72.453125 240.632812 C 72.453125 244.957031 74.449219 248.878906 77.667969 251.726562 C 80.890625 254.574219 85.324219 256.339844 90.207031 256.339844 L 137.082031 256.339844 C 146.851562 256.339844 154.835938 249.277344 154.835938 240.632812 C 154.835938 236.3125 152.839844 232.386719 149.621094 229.539062 Z M 149.621094 229.539062 " clip-rule="nonzero"></path></clipPath><clipPath id="3264368903"><path d="M 114 239 L 133 239 L 133 253 L 114 253 Z M 114 239 " clip-rule="nonzero"></path></clipPath><clipPath id="a3118e5a03"><path d="M 124.226562 240.566406 C 120.148438 241.714844 117.710938 243.15625 116.3125 244.632812 C 116.285156 244.664062 116.257812 244.695312 116.230469 244.722656 C 115.328125 245.710938 114.871094 246.707031 114.703125 247.632812 C 114.554688 248.460938 114.613281 249.230469 114.777344 249.882812 C 114.871094 250.296875 115.007812 250.671875 115.152344 250.984375 L 115.15625 250.984375 C 115.285156 250.808594 115.46875 250.585938 115.714844 250.324219 C 115.816406 250.207031 115.925781 250.089844 116.054688 249.960938 C 116.121094 249.882812 116.195312 249.8125 116.269531 249.734375 C 117.65625 248.308594 120.046875 246.214844 123.054688 244.484375 C 123.488281 244.230469 123.941406 243.984375 124.40625 243.75 C 124.492188 243.703125 124.574219 243.660156 124.664062 243.617188 C 125.078125 243.414062 125.503906 243.214844 125.9375 243.03125 C 125.953125 243.03125 125.964844 243.019531 125.988281 243.011719 C 126.429688 242.824219 126.882812 242.644531 127.34375 242.488281 C 127.003906 242.640625 126.679688 242.796875 126.351562 242.953125 C 126.21875 243.019531 126.089844 243.085938 125.953125 243.148438 C 125.863281 243.199219 125.769531 243.242188 125.679688 243.289062 C 125.34375 243.460938 125.015625 243.644531 124.691406 243.828125 C 124.324219 244.035156 123.964844 244.25 123.617188 244.460938 C 123.421875 244.578125 123.230469 244.699219 123.046875 244.820312 C 121.613281 245.746094 120.378906 246.71875 119.320312 247.667969 C 118.125 248.738281 117.160156 249.777344 116.414062 250.707031 C 116.113281 251.078125 115.84375 251.433594 115.621094 251.765625 C 115.621094 251.765625 115.953125 251.867188 116.535156 251.96875 C 116.644531 251.988281 116.761719 252.011719 116.882812 252.027344 C 117.019531 252.046875 117.167969 252.066406 117.332031 252.082031 C 120.066406 252.390625 125.53125 252.128906 129.355469 246.339844 C 129.773438 245.699219 130.183594 244.996094 130.554688 244.214844 C 130.726562 243.863281 130.890625 243.503906 131.046875 243.125 C 131.160156 242.84375 131.277344 242.554688 131.382812 242.261719 C 131.40625 242.207031 131.425781 242.152344 131.445312 242.097656 C 131.785156 241.160156 132.089844 240.140625 132.363281 239.023438 C 129.726562 239.34375 127.472656 239.75 125.546875 240.226562 C 125.089844 240.332031 124.65625 240.453125 124.226562 240.566406 Z M 124.226562 240.566406 " clip-rule="nonzero"></path></clipPath><clipPath id="16bb1587ed"><path d="M 168 225 L 342 225 L 342 256 L 168 256 Z M 168 225 " clip-rule="nonzero"></path></clipPath><clipPath id="8e05f296ca"><path d="M 169.882812 255.191406 C 169.523438 255.191406 169.230469 255.082031 169.007812 254.859375 C 168.816406 254.636719 168.71875 254.332031 168.71875 253.945312 L 168.71875 226.636719 C 168.71875 226.222656 168.816406 225.917969 169.007812 225.722656 C 169.230469 225.503906 169.507812 225.390625 169.839844 225.390625 C 170.199219 225.390625 170.476562 225.460938 170.671875 225.597656 C 170.867188 225.738281 171.046875 225.960938 171.210938 226.265625 L 183.097656 248.832031 L 181.933594 248.832031 L 193.738281 226.265625 C 193.933594 225.960938 194.113281 225.738281 194.277344 225.597656 C 194.472656 225.460938 194.75 225.390625 195.109375 225.390625 C 195.441406 225.390625 195.707031 225.503906 195.898438 225.722656 C 196.121094 225.917969 196.230469 226.222656 196.230469 226.636719 L 196.230469 253.945312 C 196.230469 254.332031 196.132812 254.636719 195.941406 254.859375 C 195.746094 255.082031 195.457031 255.191406 195.066406 255.191406 C 194.679688 255.191406 194.375 255.082031 194.152344 254.859375 C 193.960938 254.636719 193.863281 254.332031 193.863281 253.945312 L 193.863281 228.714844 L 194.859375 228.714844 L 183.722656 249.828125 C 183.582031 250.105469 183.429688 250.316406 183.265625 250.453125 C 183.097656 250.589844 182.863281 250.660156 182.558594 250.660156 C 182.226562 250.660156 181.960938 250.589844 181.769531 250.453125 C 181.601562 250.285156 181.449219 250.078125 181.3125 249.828125 L 170.046875 228.675781 L 171.046875 228.675781 L 171.046875 253.945312 C 171.046875 254.332031 170.949219 254.636719 170.753906 254.859375 C 170.558594 255.082031 170.269531 255.191406 169.882812 255.191406 Z M 214.917969 255.273438 C 213.035156 255.273438 211.398438 254.84375 210.015625 253.984375 C 208.628906 253.125 207.550781 251.921875 206.773438 250.371094 C 206.023438 248.816406 205.652344 246.976562 205.652344 244.84375 C 205.652344 243.261719 205.859375 241.835938 206.273438 240.5625 C 206.71875 239.285156 207.339844 238.191406 208.144531 237.277344 C 208.976562 236.335938 209.960938 235.628906 211.09375 235.160156 C 212.257812 234.660156 213.535156 234.410156 214.917969 234.410156 C 216.832031 234.410156 218.480469 234.839844 219.863281 235.699219 C 221.25 236.558594 222.316406 237.777344 223.066406 239.355469 C 223.839844 240.90625 224.230469 242.738281 224.230469 244.84375 C 224.230469 246.449219 224.007812 247.890625 223.5625 249.164062 C 223.148438 250.4375 222.523438 251.535156 221.695312 252.449219 C 220.890625 253.363281 219.921875 254.070312 218.785156 254.566406 C 217.648438 255.039062 216.359375 255.273438 214.917969 255.273438 Z M 214.917969 253.15625 C 216.304688 253.15625 217.496094 252.835938 218.492188 252.199219 C 219.519531 251.535156 220.292969 250.578125 220.820312 249.332031 C 221.375 248.085938 221.652344 246.585938 221.652344 244.84375 C 221.652344 242.210938 221.042969 240.171875 219.824219 238.734375 C 218.632812 237.292969 216.996094 236.570312 214.917969 236.570312 C 213.5625 236.570312 212.371094 236.902344 211.34375 237.570312 C 210.347656 238.207031 209.570312 239.148438 209.015625 240.394531 C 208.492188 241.613281 208.226562 243.097656 208.226562 244.84375 C 208.226562 247.503906 208.835938 249.550781 210.054688 250.992188 C 211.277344 252.433594 212.898438 253.15625 214.917969 253.15625 Z M 247.074219 255.191406 C 246.6875 255.191406 246.382812 255.082031 246.160156 254.859375 C 245.9375 254.636719 245.828125 254.332031 245.828125 253.945312 L 245.828125 246.921875 L 242.542969 246.921875 C 241.296875 246.921875 240.257812 247.226562 239.425781 247.835938 C 238.597656 248.445312 237.917969 249.191406 237.390625 250.078125 L 234.898438 254.441406 C 234.703125 254.773438 234.46875 254.996094 234.191406 255.109375 C 233.941406 255.21875 233.691406 255.234375 233.441406 255.148438 C 233.195312 255.09375 232.972656 254.96875 232.777344 254.773438 C 232.582031 254.582031 232.460938 254.359375 232.402344 254.109375 C 232.375 253.859375 232.445312 253.582031 232.613281 253.277344 L 234.898438 249.332031 C 235.394531 248.5 236.035156 247.808594 236.808594 247.253906 C 237.613281 246.671875 238.402344 246.378906 239.179688 246.378906 L 239.550781 246.378906 L 239.550781 246.671875 C 237.363281 246.671875 235.644531 246.160156 234.398438 245.132812 C 233.152344 244.082031 232.527344 242.613281 232.527344 240.726562 C 232.527344 239.535156 232.792969 238.496094 233.316406 237.609375 C 233.84375 236.695312 234.632812 236.003906 235.6875 235.53125 C 236.769531 235.035156 238.113281 234.785156 239.71875 234.785156 L 246.910156 234.785156 C 247.351562 234.785156 247.683594 234.910156 247.90625 235.160156 C 248.15625 235.378906 248.28125 235.710938 248.28125 236.15625 L 248.28125 253.945312 C 248.28125 254.332031 248.167969 254.636719 247.949219 254.859375 C 247.726562 255.082031 247.433594 255.191406 247.074219 255.191406 Z M 240.175781 244.96875 L 245.828125 244.96875 L 245.828125 236.695312 L 240.175781 236.695312 C 238.402344 236.695312 237.101562 237.054688 236.269531 237.777344 C 235.4375 238.496094 235.023438 239.507812 235.023438 240.8125 C 235.023438 242.113281 235.4375 243.136719 236.269531 243.886719 C 237.101562 244.605469 238.402344 244.96875 240.175781 244.96875 Z M 274.140625 254.941406 C 273.699219 254.941406 273.351562 254.816406 273.101562 254.566406 C 272.851562 254.316406 272.730469 253.957031 272.730469 253.488281 L 272.730469 227.09375 C 272.730469 226.625 272.851562 226.265625 273.101562 226.015625 C 273.351562 225.765625 273.699219 225.640625 274.140625 225.640625 L 289.851562 225.640625 C 290.238281 225.640625 290.53125 225.738281 290.726562 225.933594 C 290.917969 226.125 291.015625 226.390625 291.015625 226.722656 C 291.015625 227.109375 290.917969 227.398438 290.726562 227.59375 C 290.53125 227.761719 290.238281 227.84375 289.851562 227.84375 L 275.222656 227.84375 L 275.222656 238.980469 L 289.019531 238.980469 C 289.410156 238.980469 289.699219 239.078125 289.894531 239.273438 C 290.085938 239.4375 290.183594 239.703125 290.183594 240.0625 C 290.183594 240.421875 290.085938 240.699219 289.894531 240.894531 C 289.699219 241.085938 289.410156 241.183594 289.019531 241.183594 L 275.222656 241.183594 L 275.222656 252.738281 L 289.851562 252.738281 C 290.238281 252.738281 290.53125 252.835938 290.726562 253.03125 C 290.917969 253.195312 291.015625 253.460938 291.015625 253.820312 C 291.015625 254.179688 290.917969 254.457031 290.726562 254.652344 C 290.53125 254.84375 290.238281 254.941406 289.851562 254.941406 Z M 300.957031 255.191406 C 300.539062 255.191406 300.222656 255.082031 300 254.859375 C 299.777344 254.636719 299.667969 254.316406 299.667969 253.902344 L 299.667969 235.949219 C 299.667969 235.503906 299.777344 235.171875 300 234.949219 C 300.222656 234.730469 300.539062 234.617188 300.957031 234.617188 C 301.34375 234.617188 301.648438 234.730469 301.871094 234.949219 C 302.089844 235.171875 302.203125 235.503906 302.203125 235.949219 L 302.203125 243.46875 L 306.359375 243.46875 L 312.96875 235.199219 C 313.160156 234.921875 313.382812 234.757812 313.632812 234.703125 C 313.910156 234.617188 314.160156 234.617188 314.378906 234.703125 C 314.601562 234.757812 314.78125 234.882812 314.921875 235.074219 C 315.058594 235.269531 315.113281 235.503906 315.085938 235.78125 C 315.085938 236.03125 314.988281 236.292969 314.796875 236.570312 L 308.519531 244.425781 L 307.648438 243.636719 C 308.449219 243.71875 309.128906 243.898438 309.683594 244.175781 C 310.238281 244.453125 310.777344 244.910156 311.304688 245.546875 C 311.859375 246.1875 312.480469 247.074219 313.175781 248.207031 L 316.375 253.445312 C 316.511719 253.722656 316.570312 253.984375 316.542969 254.234375 C 316.511719 254.457031 316.402344 254.664062 316.207031 254.859375 C 316.042969 255.023438 315.835938 255.121094 315.585938 255.148438 C 315.363281 255.203125 315.128906 255.175781 314.878906 255.066406 C 314.65625 254.984375 314.449219 254.804688 314.253906 254.527344 L 310.765625 248.75 C 310.238281 247.917969 309.738281 247.28125 309.269531 246.835938 C 308.824219 246.367188 308.3125 246.035156 307.730469 245.839844 C 307.175781 245.644531 306.46875 245.546875 305.609375 245.546875 L 302.203125 245.546875 L 302.203125 253.902344 C 302.203125 254.316406 302.089844 254.636719 301.871094 254.859375 C 301.648438 255.082031 301.34375 255.191406 300.957031 255.191406 Z M 332.238281 255.273438 C 330.355469 255.273438 328.722656 254.84375 327.335938 253.984375 C 325.949219 253.125 324.871094 251.921875 324.09375 250.371094 C 323.347656 248.816406 322.972656 246.976562 322.972656 244.84375 C 322.972656 243.261719 323.179688 241.835938 323.59375 240.5625 C 324.039062 239.285156 324.660156 238.191406 325.464844 237.277344 C 326.296875 236.335938 327.28125 235.628906 328.417969 235.160156 C 329.578125 234.660156 330.855469 234.410156 332.238281 234.410156 C 334.152344 234.410156 335.800781 234.839844 337.1875 235.699219 C 338.570312 236.558594 339.636719 237.777344 340.386719 239.355469 C 341.160156 240.90625 341.550781 242.738281 341.550781 244.84375 C 341.550781 246.449219 341.328125 247.890625 340.882812 249.164062 C 340.46875 250.4375 339.84375 251.535156 339.015625 252.449219 C 338.210938 253.363281 337.242188 254.070312 336.105469 254.566406 C 334.96875 255.039062 333.679688 255.273438 332.238281 255.273438 Z M 332.238281 253.15625 C 333.625 253.15625 334.816406 252.835938 335.8125 252.199219 C 336.839844 251.535156 337.613281 250.578125 338.140625 249.332031 C 338.695312 248.085938 338.972656 246.585938 338.972656 244.84375 C 338.972656 242.210938 338.363281 240.171875 337.144531 238.734375 C 335.953125 237.292969 334.316406 236.570312 332.238281 236.570312 C 330.882812 236.570312 329.691406 236.902344 328.664062 237.570312 C 327.667969 238.207031 326.890625 239.148438 326.339844 240.394531 C 325.8125 241.613281 325.546875 243.097656 325.546875 244.84375 C 325.546875 247.503906 326.15625 249.550781 327.378906 250.992188 C 328.597656 252.433594 330.21875 253.15625 332.238281 253.15625 Z M 332.238281 253.15625 " clip-rule="nonzero"></path></clipPath></defs><g clip-path="url(#b1380ccf3d)"><path fill="none" d="M 0 0.226562 L 376 0.226562 L 376 338.773438 L 0 338.773438 Z M 0 0.226562 " fill-opacity="1" fill-rule="nonzero"></path></g><g clip-path="url(#47c1de5600)"><path fill="none" d="M 67.835938 0.226562 L 307.96875 0.226562 C 309.0625 0.226562 310.15625 0.25 311.253906 0.304688 C 312.347656 0.359375 313.441406 0.441406 314.53125 0.546875 C 315.621094 0.65625 316.707031 0.789062 317.792969 0.949219 C 318.875 1.109375 319.957031 1.296875 321.03125 1.511719 C 322.105469 1.726562 323.171875 1.964844 324.238281 2.230469 C 325.300781 2.496094 326.355469 2.789062 327.40625 3.109375 C 328.453125 3.425781 329.492188 3.769531 330.523438 4.140625 C 331.558594 4.507812 332.578125 4.902344 333.589844 5.320312 C 334.605469 5.742188 335.605469 6.183594 336.597656 6.652344 C 337.585938 7.121094 338.566406 7.613281 339.53125 8.132812 C 340.496094 8.648438 341.453125 9.1875 342.390625 9.75 C 343.332031 10.316406 344.257812 10.902344 345.167969 11.507812 C 346.078125 12.117188 346.976562 12.75 347.855469 13.402344 C 348.734375 14.054688 349.597656 14.730469 350.445312 15.425781 C 351.292969 16.121094 352.121094 16.835938 352.933594 17.570312 C 353.746094 18.304688 354.539062 19.0625 355.316406 19.835938 C 356.089844 20.613281 356.84375 21.40625 357.582031 22.21875 C 358.316406 23.027344 359.03125 23.859375 359.726562 24.707031 C 360.421875 25.554688 361.097656 26.417969 361.75 27.296875 C 362.402344 28.175781 363.03125 29.074219 363.640625 29.984375 C 364.25 30.894531 364.835938 31.820312 365.398438 32.761719 C 365.964844 33.699219 366.503906 34.652344 367.019531 35.621094 C 367.535156 36.585938 368.03125 37.566406 368.496094 38.554688 C 368.964844 39.546875 369.410156 40.546875 369.828125 41.558594 C 370.25 42.574219 370.644531 43.59375 371.011719 44.625 C 371.382812 45.660156 371.726562 46.699219 372.042969 47.746094 C 372.363281 48.796875 372.652344 49.851562 372.921875 50.914062 C 373.1875 51.976562 373.425781 53.046875 373.640625 54.121094 C 373.855469 55.195312 374.042969 56.277344 374.203125 57.359375 C 374.363281 58.445312 374.496094 59.53125 374.605469 60.621094 C 374.710938 61.710938 374.792969 62.804688 374.847656 63.898438 C 374.898438 64.992188 374.925781 66.089844 374.925781 67.183594 C 374.925781 68.28125 374.898438 69.375 374.847656 70.46875 C 374.792969 71.566406 374.710938 72.65625 374.605469 73.746094 C 374.496094 74.839844 374.363281 75.925781 374.203125 77.007812 C 374.042969 78.09375 373.855469 79.171875 373.640625 80.246094 C 373.425781 81.324219 373.1875 82.390625 372.921875 83.453125 C 372.652344 84.519531 372.363281 85.574219 372.042969 86.621094 C 371.726562 87.671875 371.382812 88.710938 371.011719 89.742188 C 370.644531 90.773438 370.25 91.796875 369.828125 92.808594 C 369.410156 93.820312 368.964844 94.824219 368.496094 95.8125 C 368.03125 96.804688 367.535156 97.78125 367.019531 98.75 C 366.503906 99.714844 365.964844 100.667969 365.398438 101.609375 C 364.835938 102.550781 364.25 103.472656 363.640625 104.386719 C 363.03125 105.296875 362.402344 106.191406 361.75 107.074219 C 361.097656 107.953125 360.421875 108.816406 359.726562 109.664062 C 359.03125 110.511719 358.316406 111.339844 357.582031 112.152344 C 356.84375 112.964844 356.089844 113.757812 355.316406 114.53125 C 354.539062 115.308594 353.746094 116.0625 352.933594 116.796875 C 352.121094 117.535156 351.292969 118.25 350.445312 118.945312 C 349.597656 119.640625 348.734375 120.316406 347.855469 120.96875 C 346.976562 121.621094 346.078125 122.25 345.167969 122.859375 C 344.257812 123.46875 343.332031 124.054688 342.390625 124.617188 C 341.449219 125.179688 340.496094 125.722656 339.53125 126.238281 C 338.566406 126.753906 337.585938 127.246094 336.597656 127.714844 C 335.605469 128.183594 334.605469 128.628906 333.589844 129.046875 C 332.578125 129.46875 331.558594 129.859375 330.523438 130.230469 C 329.492188 130.597656 328.453125 130.941406 327.40625 131.261719 C 326.355469 131.578125 325.300781 131.871094 324.238281 132.136719 C 323.171875 132.402344 322.105469 132.644531 321.03125 132.859375 C 319.957031 133.070312 318.875 133.257812 317.792969 133.417969 C 316.707031 133.582031 315.621094 133.714844 314.53125 133.820312 C 313.441406 133.929688 312.347656 134.011719 311.253906 134.0625 C 310.15625 134.117188 309.0625 134.144531 307.96875 134.144531 L 67.835938 134.144531 C 66.738281 134.144531 65.644531 134.117188 64.550781 134.0625 C 63.453125 134.011719 62.363281 133.929688 61.273438 133.820312 C 60.179688 133.714844 59.09375 133.582031 58.007812 133.417969 C 56.925781 133.257812 55.847656 133.070312 54.773438 132.859375 C 53.695312 132.644531 52.628906 132.402344 51.566406 132.136719 C 50.5 131.871094 49.445312 131.578125 48.398438 131.261719 C 47.347656 130.941406 46.308594 130.597656 45.277344 130.230469 C 44.246094 129.859375 43.222656 129.46875 42.210938 129.046875 C 41.199219 128.628906 40.195312 128.183594 39.207031 127.714844 C 38.214844 127.246094 37.238281 126.753906 36.269531 126.238281 C 35.304688 125.722656 34.351562 125.179688 33.410156 124.617188 C 32.46875 124.054688 31.546875 123.46875 30.632812 122.859375 C 29.722656 122.25 28.828125 121.621094 27.945312 120.96875 C 27.066406 120.316406 26.203125 119.640625 25.355469 118.945312 C 24.507812 118.25 23.679688 117.535156 22.867188 116.796875 C 22.054688 116.0625 21.261719 115.308594 20.488281 114.53125 C 19.710938 113.757812 18.957031 112.964844 18.222656 112.152344 C 17.484375 111.339844 16.769531 110.511719 16.074219 109.664062 C 15.378906 108.816406 14.703125 107.953125 14.050781 107.074219 C 13.398438 106.191406 12.769531 105.296875 12.160156 104.386719 C 11.550781 103.472656 10.964844 102.550781 10.402344 101.609375 C 9.839844 100.667969 9.296875 99.714844 8.78125 98.75 C 8.265625 97.78125 7.773438 96.804688 7.304688 95.8125 C 6.835938 94.824219 6.390625 93.820312 5.972656 92.808594 C 5.550781 91.796875 5.160156 90.773438 4.789062 89.742188 C 4.421875 88.710938 4.078125 87.671875 3.757812 86.621094 C 3.441406 85.574219 3.148438 84.519531 2.882812 83.453125 C 2.617188 82.390625 2.375 81.324219 2.160156 80.246094 C 1.949219 79.171875 1.761719 78.09375 1.601562 77.007812 C 1.4375 75.925781 1.304688 74.839844 1.199219 73.746094 C 1.089844 72.65625 1.007812 71.566406 0.957031 70.46875 C 0.902344 69.375 0.875 68.28125 0.875 67.183594 C 0.875 66.089844 0.902344 64.992188 0.957031 63.898438 C 1.007812 62.804688 1.089844 61.710938 1.199219 60.621094 C 1.304688 59.53125 1.4375 58.445312 1.601562 57.359375 C 1.761719 56.277344 1.949219 55.195312 2.160156 54.121094 C 2.375 53.046875 2.617188 51.976562 2.882812 50.914062 C 3.148438 49.851562 3.441406 48.796875 3.757812 47.746094 C 4.078125 46.699219 4.421875 45.660156 4.789062 44.625 C 5.160156 43.59375 5.550781 42.574219 5.972656 41.558594 C 6.390625 40.546875 6.835938 39.546875 7.304688 38.554688 C 7.773438 37.566406 8.265625 36.585938 8.78125 35.621094 C 9.296875 34.652344 9.839844 33.699219 10.402344 32.761719 C 10.964844 31.820312 11.550781 30.894531 12.160156 29.984375 C 12.769531 29.074219 13.398438 28.175781 14.050781 27.296875 C 14.703125 26.417969 15.378906 25.554688 16.074219 24.707031 C 16.769531 23.859375 17.484375 23.027344 18.222656 22.21875 C 18.957031 21.40625 19.710938 20.613281 20.488281 19.835938 C 21.261719 19.0625 22.054688 18.304688 22.867188 17.570312 C 23.679688 16.835938 24.507812 16.121094 25.355469 15.425781 C 26.203125 14.730469 27.066406 14.054688 27.945312 13.402344 C 28.828125 12.75 29.722656 12.117188 30.632812 11.507812 C 31.546875 10.902344 32.46875 10.316406 33.410156 9.75 C 34.351562 9.1875 35.304688 8.648438 36.269531 8.132812 C 37.238281 7.613281 38.214844 7.121094 39.207031 6.652344 C 40.195312 6.183594 41.199219 5.742188 42.210938 5.320312 C 43.222656 4.902344 44.246094 4.507812 45.277344 4.140625 C 46.308594 3.769531 47.347656 3.425781 48.398438 3.109375 C 49.445312 2.789062 50.5 2.496094 51.566406 2.230469 C 52.628906 1.964844 53.695312 1.726562 54.773438 1.511719 C 55.847656 1.296875 56.925781 1.109375 58.007812 0.949219 C 59.09375 0.789062 60.179688 0.65625 61.273438 0.546875 C 62.363281 0.441406 63.453125 0.359375 64.550781 0.304688 C 65.644531 0.25 66.738281 0.226562 67.835938 0.226562 Z M 67.835938 0.226562 " fill-opacity="1" fill-rule="nonzero"></path></g><path fill="#14110B" d="M 34.875 112.734375 C 34.0625 112.734375 33.402344 112.554688 32.894531 112.199219 C 32.4375 111.792969 32.15625 111.285156 32.054688 110.675781 C 32.003906 110.015625 32.15625 109.28125 32.511719 108.464844 L 53.464844 60.769531 C 53.921875 59.753906 54.457031 59.039062 55.066406 58.632812 C 55.726562 58.175781 56.4375 57.949219 57.199219 57.949219 C 57.960938 57.949219 58.648438 58.175781 59.257812 58.632812 C 59.917969 59.039062 60.449219 59.753906 60.859375 60.769531 L 81.886719 108.464844 C 82.292969 109.28125 82.445312 110.015625 82.34375 110.675781 C 82.292969 111.335938 82.039062 111.84375 81.582031 112.199219 C 81.125 112.554688 80.492188 112.734375 79.679688 112.734375 C 78.761719 112.734375 78.027344 112.503906 77.46875 112.046875 C 76.910156 111.539062 76.453125 110.828125 76.097656 109.914062 L 70.457031 96.886719 L 73.507812 98.484375 L 40.742188 98.484375 L 43.867188 96.886719 L 38.304688 109.914062 C 37.847656 110.878906 37.363281 111.589844 36.855469 112.046875 C 36.347656 112.503906 35.6875 112.734375 34.875 112.734375 Z M 57.125 65.796875 L 44.855469 94.675781 L 43.027344 93.226562 L 71.21875 93.226562 L 69.542969 94.675781 L 57.277344 65.796875 Z M 57.125 65.796875 " fill-opacity="1" fill-rule="nonzero"></path><path fill="#14110B" d="M 92.785156 112.734375 C 91.769531 112.734375 90.984375 112.453125 90.425781 111.894531 C 89.917969 111.285156 89.664062 110.472656 89.664062 109.457031 L 89.664062 61.910156 C 89.664062 60.792969 89.941406 59.957031 90.5 59.398438 C 91.109375 58.785156 91.972656 58.480469 93.089844 58.480469 L 130.578125 58.480469 C 131.644531 58.480469 132.484375 58.785156 133.09375 59.398438 C 133.703125 59.957031 134.007812 60.792969 134.007812 61.910156 L 134.007812 109.457031 C 134.007812 110.472656 133.730469 111.285156 133.171875 111.894531 C 132.613281 112.453125 131.851562 112.734375 130.882812 112.734375 C 129.867188 112.734375 129.082031 112.453125 128.523438 111.894531 C 127.964844 111.285156 127.683594 110.472656 127.683594 109.457031 L 127.683594 63.890625 L 95.910156 63.890625 L 95.910156 109.457031 C 95.910156 110.472656 95.65625 111.285156 95.148438 111.894531 C 94.640625 112.453125 93.851562 112.734375 92.785156 112.734375 Z M 92.785156 112.734375 " fill-opacity="1" fill-rule="nonzero"></path><path fill="#14110B" d="M 166.164062 112.734375 C 165.199219 112.734375 164.4375 112.453125 163.878906 111.894531 C 163.320312 111.285156 163.042969 110.472656 163.042969 109.457031 L 163.042969 63.890625 L 145.898438 63.890625 C 144.984375 63.890625 144.273438 63.636719 143.765625 63.128906 C 143.257812 62.621094 143 61.960938 143 61.148438 C 143 60.285156 143.257812 59.625 143.765625 59.167969 C 144.273438 58.710938 144.984375 58.480469 145.898438 58.480469 L 186.507812 58.480469 C 187.425781 58.480469 188.136719 58.710938 188.644531 59.167969 C 189.152344 59.625 189.40625 60.285156 189.40625 61.148438 C 189.40625 62.011719 189.152344 62.699219 188.644531 63.207031 C 188.136719 63.664062 187.425781 63.890625 186.507812 63.890625 L 169.367188 63.890625 L 169.367188 109.457031 C 169.367188 110.472656 169.085938 111.285156 168.527344 111.894531 C 168.019531 112.453125 167.230469 112.734375 166.164062 112.734375 Z M 166.164062 112.734375 " fill-opacity="1" fill-rule="nonzero"></path><path fill="#14110B" d="M 200.648438 112.199219 C 199.53125 112.199219 198.667969 111.921875 198.058594 111.363281 C 197.5 110.753906 197.21875 109.890625 197.21875 108.769531 L 197.21875 61.910156 C 197.21875 60.792969 197.5 59.957031 198.058594 59.398438 C 198.667969 58.785156 199.53125 58.480469 200.648438 58.480469 L 228.992188 58.480469 C 229.855469 58.480469 230.515625 58.710938 230.972656 59.167969 C 231.433594 59.625 231.660156 60.261719 231.660156 61.074219 C 231.660156 61.9375 231.433594 62.597656 230.972656 63.054688 C 230.515625 63.511719 229.855469 63.738281 228.992188 63.738281 L 203.316406 63.738281 L 203.316406 82.332031 L 227.394531 82.332031 C 228.257812 82.332031 228.917969 82.558594 229.375 83.015625 C 229.832031 83.421875 230.058594 84.058594 230.058594 84.921875 C 230.058594 85.785156 229.832031 86.445312 229.375 86.902344 C 228.917969 87.359375 228.257812 87.589844 227.394531 87.589844 L 203.316406 87.589844 L 203.316406 106.941406 L 228.992188 106.941406 C 229.855469 106.941406 230.515625 107.171875 230.972656 107.628906 C 231.433594 108.085938 231.660156 108.71875 231.660156 109.535156 C 231.660156 110.398438 231.433594 111.058594 230.972656 111.515625 C 230.515625 111.972656 229.855469 112.199219 228.992188 112.199219 Z M 200.648438 112.199219 " fill-opacity="1" fill-rule="nonzero"></path><path fill="#14110B" d="M 246.292969 112.734375 C 245.273438 112.734375 244.488281 112.453125 243.929688 111.894531 C 243.421875 111.285156 243.167969 110.472656 243.167969 109.457031 L 243.167969 61.148438 C 243.167969 60.082031 243.421875 59.296875 243.929688 58.785156 C 244.488281 58.226562 245.273438 57.949219 246.292969 57.949219 C 247.308594 57.949219 248.070312 58.226562 248.578125 58.785156 C 249.136719 59.296875 249.414062 60.082031 249.414062 61.148438 L 249.414062 82.40625 L 259.929688 82.40625 L 258.101562 83.625 L 273.949219 59.625 C 274.40625 58.914062 274.941406 58.457031 275.550781 58.253906 C 276.160156 58 276.769531 57.949219 277.378906 58.101562 C 277.988281 58.203125 278.496094 58.480469 278.902344 58.9375 C 279.308594 59.347656 279.539062 59.878906 279.589844 60.539062 C 279.691406 61.148438 279.511719 61.808594 279.054688 62.519531 L 264.195312 84.695312 L 261.835938 82.636719 C 264.933594 82.992188 267.574219 84.085938 269.757812 85.914062 C 271.945312 87.742188 273.847656 90.28125 275.472656 93.53125 L 282.710938 108.3125 C 283.117188 109.128906 283.246094 109.863281 283.09375 110.523438 C 282.941406 111.132812 282.609375 111.617188 282.101562 111.972656 C 281.59375 112.328125 281.011719 112.53125 280.351562 112.582031 C 279.742188 112.683594 279.132812 112.582031 278.523438 112.277344 C 277.914062 111.972656 277.429688 111.4375 277.074219 110.675781 L 270.292969 96.425781 C 268.769531 93.328125 267.042969 91.121094 265.113281 89.796875 C 263.230469 88.476562 260.894531 87.816406 258.101562 87.816406 L 249.414062 87.816406 L 249.414062 109.457031 C 249.414062 110.472656 249.160156 111.285156 248.652344 111.894531 C 248.144531 112.453125 247.359375 112.734375 246.292969 112.734375 Z M 246.292969 112.734375 " fill-opacity="1" fill-rule="nonzero"></path><path fill="#14110B" d="M 292.175781 112.734375 C 291.363281 112.734375 290.703125 112.554688 290.195312 112.199219 C 289.738281 111.792969 289.457031 111.285156 289.355469 110.675781 C 289.304688 110.015625 289.457031 109.28125 289.8125 108.464844 L 310.769531 60.769531 C 311.226562 59.753906 311.757812 59.039062 312.367188 58.632812 C 313.027344 58.175781 313.738281 57.949219 314.5 57.949219 C 315.261719 57.949219 315.949219 58.175781 316.558594 58.632812 C 317.21875 59.039062 317.753906 59.753906 318.160156 60.769531 L 339.1875 108.464844 C 339.59375 109.28125 339.746094 110.015625 339.644531 110.675781 C 339.59375 111.335938 339.339844 111.84375 338.882812 112.199219 C 338.425781 112.554688 337.792969 112.734375 336.980469 112.734375 C 336.066406 112.734375 335.328125 112.503906 334.769531 112.046875 C 334.210938 111.539062 333.753906 110.828125 333.398438 109.914062 L 327.757812 96.886719 L 330.808594 98.484375 L 298.042969 98.484375 L 301.167969 96.886719 L 295.605469 109.914062 C 295.148438 110.878906 294.664062 111.589844 294.15625 112.046875 C 293.648438 112.503906 292.988281 112.734375 292.175781 112.734375 Z M 314.425781 65.796875 L 302.15625 94.675781 L 300.328125 93.226562 L 328.519531 93.226562 L 326.84375 94.675781 L 314.578125 65.796875 Z M 314.425781 65.796875 " fill-opacity="1" fill-rule="nonzero"></path><g clip-path="url(#c2e44b0e03)"><g clip-path="url(#e0d00825b0)"><path fill="#14110B" d="M 72.453125 21.003906 L 72.453125 52.421875 L 154.835938 52.421875 L 154.835938 21.003906 Z M 72.453125 21.003906 " fill-rule="nonzero"></path></g></g><g clip-path="url(#271424f311)"><g clip-path="url(#64d2471657)"><path fill="#14110B" d="M 114.554688 35.105469 L 114.554688 48.46875 L 132.363281 48.46875 L 132.363281 35.105469 Z M 114.554688 35.105469 " fill-rule="nonzero"></path></g></g><g clip-path="url(#d6d94bb618)"><g clip-path="url(#27ff88e0a5)"><path fill="#14110B" d="M 168.71875 21.472656 L 168.71875 51.355469 L 341.550781 51.355469 L 341.550781 21.472656 Z M 168.71875 21.472656 " fill-opacity="1" fill-rule="nonzero"></path></g></g><g clip-path="url(#d7c17936e0)"><path fill="#14110B" d="M 67.835938 204.144531 L 307.96875 204.144531 C 309.0625 204.144531 310.15625 204.171875 311.253906 204.226562 C 312.347656 204.277344 313.441406 204.359375 314.53125 204.46875 C 315.621094 204.574219 316.707031 204.707031 317.792969 204.871094 C 318.875 205.03125 319.957031 205.21875 321.03125 205.429688 C 322.105469 205.644531 323.171875 205.886719 324.238281 206.152344 C 325.300781 206.417969 326.355469 206.710938 327.40625 207.027344 C 328.453125 207.347656 329.492188 207.691406 330.523438 208.058594 C 331.558594 208.429688 332.578125 208.820312 333.589844 209.242188 C 334.605469 209.660156 335.605469 210.105469 336.597656 210.574219 C 337.585938 211.042969 338.566406 211.535156 339.53125 212.050781 C 340.496094 212.566406 341.453125 213.109375 342.390625 213.671875 C 343.332031 214.234375 344.257812 214.820312 345.167969 215.429688 C 346.078125 216.039062 346.976562 216.667969 347.855469 217.320312 C 348.734375 217.972656 349.597656 218.648438 350.445312 219.34375 C 351.292969 220.039062 352.121094 220.753906 352.933594 221.492188 C 353.746094 222.226562 354.539062 222.980469 355.316406 223.757812 C 356.089844 224.53125 356.84375 225.324219 357.582031 226.136719 C 358.316406 226.949219 359.03125 227.777344 359.726562 228.625 C 360.421875 229.472656 361.097656 230.335938 361.75 231.214844 C 362.402344 232.097656 363.03125 232.992188 363.640625 233.902344 C 364.25 234.816406 364.835938 235.738281 365.398438 236.679688 C 365.964844 237.621094 366.503906 238.574219 367.019531 239.539062 C 367.535156 240.507812 368.03125 241.484375 368.496094 242.476562 C 368.964844 243.464844 369.410156 244.46875 369.828125 245.480469 C 370.25 246.492188 370.644531 247.515625 371.011719 248.546875 C 371.382812 249.578125 371.726562 250.617188 372.042969 251.667969 C 372.363281 252.714844 372.652344 253.769531 372.921875 254.835938 C 373.1875 255.898438 373.425781 256.964844 373.640625 258.042969 C 373.855469 259.117188 374.042969 260.195312 374.203125 261.277344 C 374.363281 262.363281 374.496094 263.449219 374.605469 264.542969 C 374.710938 265.632812 374.792969 266.722656 374.847656 267.820312 C 374.898438 268.914062 374.925781 270.007812 374.925781 271.105469 C 374.925781 272.199219 374.898438 273.296875 374.847656 274.390625 C 374.792969 275.484375 374.710938 276.578125 374.605469 277.667969 C 374.496094 278.757812 374.363281 279.84375 374.203125 280.929688 C 374.042969 282.011719 373.855469 283.09375 373.640625 284.167969 C 373.425781 285.242188 373.1875 286.3125 372.921875 287.375 C 372.652344 288.4375 372.363281 289.492188 372.042969 290.542969 C 371.726562 291.589844 371.382812 292.628906 371.011719 293.664062 C 370.644531 294.695312 370.25 295.714844 369.828125 296.730469 C 369.410156 297.742188 368.964844 298.742188 368.496094 299.734375 C 368.03125 300.722656 367.535156 301.703125 367.019531 302.667969 C 366.503906 303.636719 365.964844 304.589844 365.398438 305.527344 C 364.835938 306.46875 364.25 307.394531 363.640625 308.304688 C 363.03125 309.214844 362.402344 310.113281 361.75 310.992188 C 361.097656 311.871094 360.421875 312.734375 359.726562 313.582031 C 359.03125 314.429688 358.316406 315.261719 357.582031 316.070312 C 356.84375 316.882812 356.089844 317.675781 355.316406 318.453125 C 354.539062 319.226562 353.746094 319.984375 352.933594 320.71875 C 352.121094 321.453125 351.292969 322.167969 350.445312 322.863281 C 349.597656 323.558594 348.734375 324.234375 347.855469 324.886719 C 346.976562 325.539062 346.078125 326.171875 345.167969 326.78125 C 344.257812 327.386719 343.332031 327.972656 342.390625 328.539062 C 341.449219 329.101562 340.496094 329.640625 339.53125 330.15625 C 338.566406 330.675781 337.585938 331.167969 336.597656 331.636719 C 335.605469 332.105469 334.605469 332.546875 333.589844 332.96875 C 332.578125 333.386719 331.558594 333.78125 330.523438 334.148438 C 329.492188 334.519531 328.453125 334.863281 327.40625 335.179688 C 326.355469 335.5 325.300781 335.792969 324.238281 336.058594 C 323.171875 336.324219 322.105469 336.5625 321.03125 336.777344 C 319.957031 336.992188 318.875 337.179688 317.792969 337.339844 C 316.707031 337.5 315.621094 337.632812 314.53125 337.742188 C 313.441406 337.847656 312.347656 337.929688 311.253906 337.984375 C 310.15625 338.039062 309.0625 338.0625 307.96875 338.0625 L 67.835938 338.0625 C 66.738281 338.0625 65.644531 338.039062 64.550781 337.984375 C 63.453125 337.929688 62.363281 337.847656 61.273438 337.742188 C 60.179688 337.632812 59.09375 337.5 58.007812 337.339844 C 56.925781 337.179688 55.847656 336.992188 54.773438 336.777344 C 53.695312 336.5625 52.628906 336.324219 51.566406 336.058594 C 50.5 335.792969 49.445312 335.5 48.398438 335.179688 C 47.347656 334.863281 46.308594 334.519531 45.277344 334.148438 C 44.246094 333.78125 43.222656 333.386719 42.210938 332.96875 C 41.199219 332.546875 40.195312 332.105469 39.207031 331.636719 C 38.214844 331.167969 37.238281 330.675781 36.269531 330.15625 C 35.304688 329.640625 34.351562 329.101562 33.410156 328.539062 C 32.46875 327.972656 31.546875 327.386719 30.632812 326.78125 C 29.722656 326.171875 28.828125 325.539062 27.945312 324.886719 C 27.066406 324.234375 26.203125 323.558594 25.355469 322.863281 C 24.507812 322.167969 23.679688 321.453125 22.867188 320.71875 C 22.054688 319.984375 21.261719 319.226562 20.488281 318.453125 C 19.710938 317.675781 18.957031 316.882812 18.222656 316.070312 C 17.484375 315.261719 16.769531 314.429688 16.074219 313.582031 C 15.378906 312.734375 14.703125 311.871094 14.050781 310.992188 C 13.398438 310.113281 12.769531 309.214844 12.160156 308.304688 C 11.550781 307.394531 10.964844 306.46875 10.402344 305.527344 C 9.839844 304.589844 9.296875 303.636719 8.78125 302.667969 C 8.265625 301.703125 7.773438 300.722656 7.304688 299.734375 C 6.835938 298.742188 6.390625 297.742188 5.972656 296.730469 C 5.550781 295.714844 5.160156 294.695312 4.789062 293.664062 C 4.421875 292.628906 4.078125 291.589844 3.757812 290.542969 C 3.441406 289.492188 3.148438 288.4375 2.882812 287.375 C 2.617188 286.3125 2.375 285.242188 2.160156 284.167969 C 1.949219 283.09375 1.761719 282.011719 1.601562 280.929688 C 1.4375 279.84375 1.304688 278.757812 1.199219 277.667969 C 1.089844 276.578125 1.007812 275.484375 0.957031 274.390625 C 0.902344 273.296875 0.875 272.199219 0.875 271.105469 C 0.875 270.007812 0.902344 268.914062 0.957031 267.820312 C 1.007812 266.722656 1.089844 265.632812 1.199219 264.542969 C 1.304688 263.449219 1.4375 262.363281 1.601562 261.277344 C 1.761719 260.195312 1.949219 259.117188 2.160156 258.042969 C 2.375 256.964844 2.617188 255.898438 2.882812 254.835938 C 3.148438 253.769531 3.441406 252.714844 3.757812 251.667969 C 4.078125 250.617188 4.421875 249.578125 4.789062 248.546875 C 5.160156 247.515625 5.550781 246.492188 5.972656 245.480469 C 6.390625 244.46875 6.835938 243.464844 7.304688 242.476562 C 7.773438 241.484375 8.265625 240.507812 8.78125 239.539062 C 9.296875 238.574219 9.839844 237.621094 10.402344 236.679688 C 10.964844 235.738281 11.550781 234.816406 12.160156 233.902344 C 12.769531 232.992188 13.398438 232.097656 14.050781 231.214844 C 14.703125 230.335938 15.378906 229.472656 16.074219 228.625 C 16.769531 227.777344 17.484375 226.949219 18.222656 226.136719 C 18.957031 225.324219 19.710938 224.53125 20.488281 223.757812 C 21.261719 222.980469 22.054688 222.226562 22.867188 221.492188 C 23.679688 220.753906 24.507812 220.039062 25.355469 219.34375 C 26.203125 218.648438 27.066406 217.972656 27.945312 217.320312 C 28.828125 216.667969 29.722656 216.039062 30.632812 215.429688 C 31.546875 214.820312 32.46875 214.234375 33.410156 213.671875 C 34.351562 213.109375 35.304688 212.566406 36.269531 212.050781 C 37.238281 211.535156 38.214844 211.042969 39.207031 210.574219 C 40.195312 210.105469 41.199219 209.660156 42.210938 209.242188 C 43.222656 208.820312 44.246094 208.429688 45.277344 208.058594 C 46.308594 207.691406 47.347656 207.347656 48.398438 207.027344 C 49.445312 206.710938 50.5 206.417969 51.566406 206.152344 C 52.628906 205.886719 53.695312 205.644531 54.773438 205.429688 C 55.847656 205.21875 56.925781 205.03125 58.007812 204.871094 C 59.09375 204.707031 60.179688 204.574219 61.273438 204.46875 C 62.363281 204.359375 63.453125 204.277344 64.550781 204.226562 C 65.644531 204.171875 66.738281 204.144531 67.835938 204.144531 Z M 67.835938 204.144531 " fill-opacity="1" fill-rule="nonzero"></path></g><path fill="none" d="M 34.875 316.652344 C 34.0625 316.652344 33.402344 316.476562 32.894531 316.121094 C 32.4375 315.714844 32.15625 315.207031 32.054688 314.597656 C 32.003906 313.9375 32.15625 313.199219 32.511719 312.386719 L 53.464844 264.6875 C 53.921875 263.671875 54.457031 262.960938 55.066406 262.554688 C 55.726562 262.097656 56.4375 261.867188 57.199219 261.867188 C 57.960938 261.867188 58.648438 262.097656 59.257812 262.554688 C 59.917969 262.960938 60.449219 263.671875 60.859375 264.6875 L 81.886719 312.386719 C 82.292969 313.199219 82.445312 313.9375 82.34375 314.597656 C 82.292969 315.257812 82.039062 315.765625 81.582031 316.121094 C 81.125 316.476562 80.492188 316.652344 79.679688 316.652344 C 78.761719 316.652344 78.027344 316.425781 77.46875 315.96875 C 76.910156 315.460938 76.453125 314.75 76.097656 313.835938 L 70.457031 300.804688 L 73.507812 302.40625 L 40.742188 302.40625 L 43.867188 300.804688 L 38.304688 313.835938 C 37.847656 314.800781 37.363281 315.511719 36.855469 315.96875 C 36.347656 316.425781 35.6875 316.652344 34.875 316.652344 Z M 57.125 269.714844 L 44.855469 298.59375 L 43.027344 297.148438 L 71.21875 297.148438 L 69.542969 298.59375 L 57.277344 269.714844 Z M 57.125 269.714844 " fill-opacity="1" fill-rule="nonzero"></path><path fill="none" d="M 92.785156 316.652344 C 91.769531 316.652344 90.984375 316.375 90.425781 315.816406 C 89.917969 315.207031 89.664062 314.394531 89.664062 313.375 L 89.664062 265.832031 C 89.664062 264.714844 89.941406 263.875 90.5 263.316406 C 91.109375 262.707031 91.972656 262.402344 93.089844 262.402344 L 130.578125 262.402344 C 131.644531 262.402344 132.484375 262.707031 133.09375 263.316406 C 133.703125 263.875 134.007812 264.714844 134.007812 265.832031 L 134.007812 313.375 C 134.007812 314.394531 133.730469 315.207031 133.171875 315.816406 C 132.613281 316.375 131.851562 316.652344 130.882812 316.652344 C 129.867188 316.652344 129.082031 316.375 128.523438 315.816406 C 127.964844 315.207031 127.683594 314.394531 127.683594 313.375 L 127.683594 267.8125 L 95.910156 267.8125 L 95.910156 313.375 C 95.910156 314.394531 95.65625 315.207031 95.148438 315.816406 C 94.640625 316.375 93.851562 316.652344 92.785156 316.652344 Z M 92.785156 316.652344 " fill-opacity="1" fill-rule="nonzero"></path><path fill="none" d="M 166.164062 316.652344 C 165.199219 316.652344 164.4375 316.375 163.878906 315.816406 C 163.320312 315.207031 163.042969 314.394531 163.042969 313.375 L 163.042969 267.8125 L 145.898438 267.8125 C 144.984375 267.8125 144.273438 267.558594 143.765625 267.050781 C 143.257812 266.542969 143 265.882812 143 265.070312 C 143 264.207031 143.257812 263.542969 143.765625 263.085938 C 144.273438 262.628906 144.984375 262.402344 145.898438 262.402344 L 186.507812 262.402344 C 187.425781 262.402344 188.136719 262.628906 188.644531 263.085938 C 189.152344 263.542969 189.40625 264.207031 189.40625 265.070312 C 189.40625 265.933594 189.152344 266.617188 188.644531 267.125 C 188.136719 267.582031 187.425781 267.8125 186.507812 267.8125 L 169.367188 267.8125 L 169.367188 313.375 C 169.367188 314.394531 169.085938 315.207031 168.527344 315.816406 C 168.019531 316.375 167.230469 316.652344 166.164062 316.652344 Z M 166.164062 316.652344 " fill-opacity="1" fill-rule="nonzero"></path><path fill="none" d="M 200.648438 316.121094 C 199.53125 316.121094 198.667969 315.839844 198.058594 315.28125 C 197.5 314.671875 197.21875 313.808594 197.21875 312.691406 L 197.21875 265.832031 C 197.21875 264.714844 197.5 263.875 198.058594 263.316406 C 198.667969 262.707031 199.53125 262.402344 200.648438 262.402344 L 228.992188 262.402344 C 229.855469 262.402344 230.515625 262.628906 230.972656 263.085938 C 231.433594 263.542969 231.660156 264.179688 231.660156 264.992188 C 231.660156 265.855469 231.433594 266.515625 230.972656 266.972656 C 230.515625 267.429688 229.855469 267.660156 228.992188 267.660156 L 203.316406 267.660156 L 203.316406 286.25 L 227.394531 286.25 C 228.257812 286.25 228.917969 286.480469 229.375 286.9375 C 229.832031 287.34375 230.058594 287.976562 230.058594 288.84375 C 230.058594 289.707031 229.832031 290.367188 229.375 290.824219 C 228.917969 291.28125 228.257812 291.507812 227.394531 291.507812 L 203.316406 291.507812 L 203.316406 310.863281 L 228.992188 310.863281 C 229.855469 310.863281 230.515625 311.089844 230.972656 311.546875 C 231.433594 312.003906 231.660156 312.640625 231.660156 313.453125 C 231.660156 314.316406 231.433594 314.976562 230.972656 315.433594 C 230.515625 315.890625 229.855469 316.121094 228.992188 316.121094 Z M 200.648438 316.121094 " fill-opacity="1" fill-rule="nonzero"></path><path fill="none" d="M 246.292969 316.652344 C 245.273438 316.652344 244.488281 316.375 243.929688 315.816406 C 243.421875 315.207031 243.167969 314.394531 243.167969 313.375 L 243.167969 265.070312 C 243.167969 264.003906 243.421875 263.214844 243.929688 262.707031 C 244.488281 262.148438 245.273438 261.867188 246.292969 261.867188 C 247.308594 261.867188 248.070312 262.148438 248.578125 262.707031 C 249.136719 263.214844 249.414062 264.003906 249.414062 265.070312 L 249.414062 286.328125 L 259.929688 286.328125 L 258.101562 287.546875 L 273.949219 263.542969 C 274.40625 262.832031 274.941406 262.375 275.550781 262.171875 C 276.160156 261.917969 276.769531 261.867188 277.378906 262.019531 C 277.988281 262.121094 278.496094 262.402344 278.902344 262.859375 C 279.308594 263.265625 279.539062 263.796875 279.589844 264.460938 C 279.691406 265.070312 279.511719 265.730469 279.054688 266.441406 L 264.195312 288.613281 L 261.835938 286.554688 C 264.933594 286.910156 267.574219 288.003906 269.757812 289.832031 C 271.945312 291.660156 273.847656 294.199219 275.472656 297.453125 L 282.710938 312.234375 C 283.117188 313.046875 283.246094 313.785156 283.09375 314.445312 C 282.941406 315.054688 282.609375 315.535156 282.101562 315.890625 C 281.59375 316.246094 281.011719 316.449219 280.351562 316.5 C 279.742188 316.601562 279.132812 316.5 278.523438 316.195312 C 277.914062 315.890625 277.429688 315.359375 277.074219 314.597656 L 270.292969 300.347656 C 268.769531 297.25 267.042969 295.039062 265.113281 293.71875 C 263.230469 292.398438 260.894531 291.738281 258.101562 291.738281 L 249.414062 291.738281 L 249.414062 313.375 C 249.414062 314.394531 249.160156 315.207031 248.652344 315.816406 C 248.144531 316.375 247.359375 316.652344 246.292969 316.652344 Z M 246.292969 316.652344 " fill-opacity="1" fill-rule="nonzero"></path><path fill="none" d="M 292.175781 316.652344 C 291.363281 316.652344 290.703125 316.476562 290.195312 316.121094 C 289.738281 315.714844 289.457031 315.207031 289.355469 314.597656 C 289.304688 313.9375 289.457031 313.199219 289.8125 312.386719 L 310.769531 264.6875 C 311.226562 263.671875 311.757812 262.960938 312.367188 262.554688 C 313.027344 262.097656 313.738281 261.867188 314.5 261.867188 C 315.261719 261.867188 315.949219 262.097656 316.558594 262.554688 C 317.21875 262.960938 317.753906 263.671875 318.160156 264.6875 L 339.1875 312.386719 C 339.59375 313.199219 339.746094 313.9375 339.644531 314.597656 C 339.59375 315.257812 339.339844 315.765625 338.882812 316.121094 C 338.425781 316.476562 337.792969 316.652344 336.980469 316.652344 C 336.066406 316.652344 335.328125 316.425781 334.769531 315.96875 C 334.210938 315.460938 333.753906 314.75 333.398438 313.835938 L 327.757812 300.804688 L 330.808594 302.40625 L 298.042969 302.40625 L 301.167969 300.804688 L 295.605469 313.835938 C 295.148438 314.800781 294.664062 315.511719 294.15625 315.96875 C 293.648438 316.425781 292.988281 316.652344 292.175781 316.652344 Z M 314.425781 269.714844 L 302.15625 298.59375 L 300.328125 297.148438 L 328.519531 297.148438 L 326.84375 298.59375 L 314.578125 269.714844 Z M 314.425781 269.714844 " fill-opacity="1" fill-rule="nonzero"></path><g clip-path="url(#1ee2694041)"><g clip-path="url(#5237489600)"><path fill="none" d="M 72.453125 224.925781 L 72.453125 256.339844 L 154.835938 256.339844 L 154.835938 224.925781 Z M 72.453125 224.925781 " fill-opacity="1" fill-rule="nonzero"></path></g></g><g clip-path="url(#3264368903)"><g clip-path="url(#a3118e5a03)"><path fill="none" d="M 114.554688 239.023438 L 114.554688 252.390625 L 132.363281 252.390625 L 132.363281 239.023438 Z M 114.554688 239.023438 " fill-opacity="1" fill-rule="nonzero"></path></g></g><g clip-path="url(#16bb1587ed)"><g clip-path="url(#8e05f296ca)"><path fill="none" d="M 168.71875 225.390625 L 168.71875 255.273438 L 341.550781 255.273438 L 341.550781 225.390625 Z M 168.71875 225.390625 " fill-opacity="1" fill-rule="nonzero"></path></g></g></svg>