<svg width="951" height="1305" viewBox="0 0 951 1305" fill="none" xmlns="http://www.w3.org/2000/svg">
<rect width="951" height="1305" rx="475.5" fill="#188294"></rect>
<rect x="20.5" y="20.5" width="910" height="1264" rx="455" fill="#FEFEFE"></rect>
<path d="M785.023 836.031C785.023 1010.57 643.335 1152.57 469.182 1152.57C295.028 1152.57 153.34 1010.57 153.34 836.031V467.298C153.34 292.761 295.028 150.761 469.182 150.761C643.335 150.761 785.023 292.761 785.023 467.298V836.031Z" fill="#E25737"></path>
<mask id="mask0_7_1048" style="mask-type:luminance" maskUnits="userSpaceOnUse" x="149" y="147" width="640" height="1009">
<path d="M149.74 147.425H788.562V1155.88H149.74V147.425Z" fill="white"></path>
</mask>
<g mask="url(#mask0_7_1048)">
<path d="M788.32 467.298V836.031C788.32 1012.4 645.161 1155.88 469.181 1155.88C293.202 1155.88 150.037 1012.4 150.037 836.031V467.298C150.037 290.931 293.202 147.456 469.181 147.456C645.161 147.456 788.32 290.931 788.32 467.298ZM156.642 836.031C156.642 1008.75 296.838 1149.26 469.181 1149.26C641.525 1149.26 781.721 1008.74 781.721 836.031V467.298C781.721 294.575 641.51 154.07 469.181 154.07C296.853 154.07 156.642 294.575 156.642 467.298V836.031Z" fill="#FEFEFE"></path>
</g>
<path d="M735.544 836.031C735.544 983.233 616.06 1102.98 469.183 1102.98C322.305 1102.98 202.821 983.233 202.821 836.031V467.299C202.821 320.097 322.305 200.351 469.183 200.351C616.06 200.351 735.544 320.097 735.544 467.299V836.031Z" fill="#E25737"></path>
<path d="M738.847 467.298V836.031C738.847 985.051 617.871 1106.29 469.183 1106.29C320.49 1106.29 199.52 985.051 199.52 836.031V467.298C199.52 318.282 320.49 197.04 469.183 197.04C617.871 197.04 738.847 318.282 738.847 467.298ZM206.119 836.031C206.119 981.407 324.126 1099.67 469.183 1099.67C614.235 1099.67 732.247 981.407 732.247 836.031V467.298C732.247 321.926 614.235 203.66 469.183 203.66C324.126 203.66 206.119 321.926 206.119 467.298V836.031Z" fill="#FEFEFE"></path>
<path d="M686.068 836.031C686.068 955.886 588.774 1053.39 469.183 1053.39C349.591 1053.39 252.297 955.886 252.297 836.031V467.298C252.297 347.443 349.591 249.935 469.183 249.935C588.774 249.935 686.068 347.443 686.068 467.298V836.031Z" fill="#E25737"></path>
<path d="M689.365 467.299V836.032C689.365 957.701 590.599 1056.7 469.182 1056.7C347.765 1056.7 248.999 957.701 248.999 836.032V467.299C248.999 345.63 347.765 246.631 469.182 246.631C590.599 246.631 689.365 345.615 689.365 467.299ZM255.599 836.032C255.599 954.057 351.416 1050.09 469.182 1050.09C586.948 1050.09 682.765 954.057 682.765 836.032V467.299C682.765 349.274 586.948 253.245 469.182 253.245C351.416 253.245 255.599 349.274 255.599 467.299V836.032Z" fill="#FEFEFE"></path>
<path d="M636.589 836.031C636.589 928.54 561.499 1003.81 469.184 1003.81C376.868 1003.81 301.778 928.55 301.778 836.031V467.298C301.778 374.795 376.868 299.524 469.184 299.524C561.499 299.524 636.589 374.795 636.589 467.298V836.031Z" fill="#E25737"></path>
<path d="M639.89 467.298V836.031C639.89 930.369 563.308 1007.11 469.182 1007.11C375.057 1007.11 298.475 930.369 298.475 836.031V467.298C298.475 372.966 375.057 296.22 469.182 296.22C563.308 296.22 639.89 372.966 639.89 467.298ZM305.074 836.031C305.074 926.725 378.693 1000.5 469.182 1000.5C559.672 1000.5 633.285 926.725 633.285 836.031V467.298C633.285 376.609 559.672 302.834 469.182 302.834C378.693 302.834 305.074 376.609 305.074 467.298V836.031Z" fill="#FEFEFE"></path>
<path d="M351.254 836.021V467.299C351.254 465.366 351.305 463.434 351.397 461.502C351.495 459.569 351.633 457.642 351.823 455.715C352.013 453.793 352.249 451.87 352.531 449.959C352.818 448.047 353.146 446.14 353.521 444.244C353.9 442.347 354.32 440.461 354.792 438.585C355.259 436.704 355.772 434.844 356.336 432.994C356.895 431.143 357.5 429.304 358.151 427.484C358.797 425.665 359.495 423.861 360.233 422.072C360.972 420.284 361.751 418.516 362.577 416.769C363.402 415.021 364.269 413.294 365.182 411.588C366.089 409.882 367.038 408.196 368.033 406.541C369.023 404.881 370.058 403.247 371.13 401.638C372.202 400.03 373.31 398.447 374.463 396.895C375.612 395.343 376.797 393.816 378.022 392.321C379.248 390.825 380.509 389.366 381.802 387.932C383.099 386.498 384.427 385.095 385.796 383.728C387.161 382.361 388.555 381.03 389.986 379.729C391.417 378.429 392.878 377.165 394.371 375.942C395.863 374.713 397.381 373.521 398.929 372.37C400.483 371.219 402.058 370.103 403.663 369.029C405.268 367.955 406.898 366.922 408.555 365.925C410.206 364.933 411.888 363.982 413.59 363.068C415.293 362.158 417.016 361.289 418.76 360.462C420.503 359.635 422.267 358.848 424.052 358.108C425.831 357.368 427.631 356.674 429.452 356.022C431.267 355.369 433.098 354.762 434.944 354.202C436.795 353.642 438.651 353.123 440.523 352.655C442.395 352.182 444.277 351.761 446.169 351.386C448.066 351.006 449.964 350.677 451.877 350.394C453.784 350.106 455.697 349.87 457.62 349.68C459.538 349.495 461.461 349.351 463.389 349.253C465.317 349.161 467.245 349.114 469.179 349.114C471.107 349.114 473.035 349.161 474.963 349.253C476.891 349.351 478.814 349.495 480.737 349.68C482.655 349.87 484.568 350.106 486.481 350.394C488.388 350.677 490.291 351.006 492.183 351.386C494.075 351.761 495.957 352.182 497.829 352.655C499.701 353.123 501.562 353.642 503.408 354.202C505.254 354.762 507.085 355.369 508.9 356.022C510.721 356.674 512.521 357.368 514.3 358.108C516.085 358.848 517.849 359.635 519.592 360.462C521.341 361.289 523.064 362.158 524.762 363.068C526.464 363.982 528.146 364.933 529.797 365.925C531.454 366.922 533.084 367.955 534.689 369.029C536.295 370.103 537.874 371.219 539.423 372.37C540.971 373.521 542.494 374.713 543.987 375.942C545.479 377.165 546.935 378.429 548.366 379.729C549.797 381.03 551.197 382.361 552.561 383.728C553.925 385.095 555.253 386.498 556.55 387.932C557.848 389.366 559.104 390.825 560.33 392.321C561.555 393.816 562.74 395.343 563.889 396.895C565.042 398.447 566.15 400.03 567.222 401.638C568.294 403.247 569.329 404.881 570.319 406.541C571.314 408.196 572.263 409.882 573.175 411.588C574.083 413.294 574.95 415.021 575.775 416.769C576.601 418.516 577.38 420.284 578.119 422.072C578.857 423.861 579.555 425.665 580.206 427.484C580.852 429.304 581.457 431.143 582.021 432.994C582.58 434.844 583.093 436.704 583.565 438.585C584.032 440.461 584.457 442.347 584.832 444.244C585.206 446.14 585.539 448.047 585.821 449.959C586.103 451.87 586.339 453.793 586.529 455.715C586.719 457.642 586.862 459.569 586.955 461.502C587.052 463.434 587.098 465.366 587.098 467.299V836.021C587.098 837.954 587.052 839.886 586.955 841.819C586.862 843.751 586.719 845.678 586.529 847.605C586.339 849.528 586.103 851.45 585.821 853.361C585.539 855.273 585.206 857.18 584.832 859.076C584.457 860.973 584.032 862.859 583.565 864.735C583.093 866.611 582.58 868.476 582.021 870.326C581.457 872.177 580.852 874.017 580.206 875.836C579.555 877.655 578.857 879.459 578.119 881.248C577.38 883.036 576.601 884.804 575.775 886.551C574.95 888.299 574.083 890.026 573.175 891.732C572.263 893.438 571.314 895.119 570.319 896.779C569.329 898.439 568.294 900.073 567.222 901.682C566.15 903.29 565.042 904.868 563.889 906.425C562.74 907.977 561.555 909.499 560.33 910.994C559.104 912.49 557.848 913.954 556.55 915.388C555.253 916.822 553.925 918.22 552.561 919.592C551.197 920.959 549.797 922.29 548.366 923.591C546.935 924.891 545.479 926.15 543.987 927.378C542.494 928.607 540.971 929.794 539.423 930.95C537.874 932.101 536.295 933.212 534.689 934.286C533.084 935.365 531.454 936.398 529.797 937.39C528.146 938.387 526.464 939.338 524.762 940.252C523.064 941.162 521.341 942.031 519.592 942.858C517.849 943.686 516.085 944.472 514.3 945.212C512.521 945.952 510.721 946.646 508.9 947.299C507.085 947.951 505.254 948.558 503.408 949.118C501.562 949.678 499.701 950.192 497.829 950.665C495.957 951.132 494.075 951.559 492.183 951.934C490.291 952.315 488.388 952.643 486.481 952.926C484.568 953.209 482.655 953.445 480.737 953.635C478.814 953.826 476.891 953.969 474.963 954.062C473.035 954.16 471.107 954.206 469.179 954.206C467.245 954.206 465.317 954.16 463.389 954.062C461.461 953.969 459.538 953.826 457.62 953.635C455.697 953.445 453.784 953.209 451.877 952.926C449.964 952.643 448.066 952.315 446.169 951.934C444.277 951.559 442.395 951.132 440.523 950.665C438.651 950.192 436.795 949.678 434.944 949.118C433.098 948.558 431.267 947.951 429.452 947.299C427.631 946.646 425.831 945.952 424.052 945.212C422.267 944.472 420.503 943.686 418.76 942.858C417.016 942.031 415.293 941.162 413.59 940.252C411.888 939.338 410.206 938.387 408.555 937.39C406.898 936.398 405.268 935.365 403.663 934.286C402.058 933.212 400.483 932.101 398.929 930.95C397.381 929.794 395.863 928.607 394.371 927.378C392.878 926.15 391.417 924.891 389.986 923.591C388.555 922.29 387.161 920.959 385.796 919.592C384.427 918.22 383.099 916.822 381.802 915.388C380.509 913.954 379.248 912.49 378.022 910.994C376.797 909.499 375.612 907.977 374.463 906.425C373.31 904.868 372.202 903.29 371.13 901.682C370.058 900.073 369.023 898.439 368.033 896.779C367.038 895.119 366.089 893.438 365.182 891.732C364.269 890.026 363.402 888.299 362.577 886.551C361.751 884.804 360.972 883.036 360.233 881.248C359.495 879.459 358.797 877.655 358.151 875.836C357.5 874.017 356.895 872.177 356.336 870.326C355.772 868.476 355.259 866.611 354.792 864.735C354.32 862.859 353.9 860.973 353.521 859.076C353.146 857.18 352.818 855.273 352.531 853.361C352.249 851.45 352.013 849.528 351.823 847.605C351.633 845.678 351.495 843.751 351.397 841.819C351.305 839.886 351.254 837.954 351.254 836.021Z" fill="#FEFEFE"></path>
<path d="M351.254 836.021V467.299C351.254 465.366 351.305 463.434 351.397 461.502C351.495 459.569 351.633 457.642 351.823 455.715C352.013 453.793 352.249 451.87 352.531 449.959C352.818 448.047 353.146 446.14 353.521 444.244C353.9 442.347 354.32 440.461 354.792 438.585C355.259 436.704 355.772 434.844 356.336 432.994C356.895 431.143 357.5 429.304 358.151 427.484C358.797 425.665 359.495 423.861 360.233 422.072C360.972 420.284 361.751 418.516 362.577 416.769C363.402 415.021 364.269 413.294 365.182 411.588C366.089 409.882 367.038 408.196 368.033 406.541C369.023 404.881 370.058 403.247 371.13 401.638C372.202 400.03 373.31 398.447 374.463 396.895C375.612 395.343 376.797 393.816 378.022 392.321C379.248 390.825 380.509 389.366 381.802 387.932C383.099 386.498 384.427 385.095 385.796 383.728C387.161 382.361 388.555 381.03 389.986 379.729C391.417 378.429 392.878 377.165 394.371 375.942C395.863 374.713 397.381 373.521 398.929 372.37C400.483 371.219 402.058 370.103 403.663 369.029C405.268 367.955 406.898 366.922 408.555 365.925C410.206 364.933 411.888 363.982 413.59 363.068C415.293 362.158 417.016 361.289 418.76 360.462C420.503 359.635 422.267 358.848 424.052 358.108C425.831 357.368 427.631 356.674 429.452 356.022C431.267 355.369 433.098 354.762 434.944 354.202C436.795 353.642 438.651 353.123 440.523 352.655C442.395 352.182 444.277 351.761 446.169 351.386C448.066 351.006 449.964 350.677 451.877 350.394C453.784 350.106 455.697 349.87 457.62 349.68C459.538 349.495 461.461 349.351 463.389 349.253C465.317 349.161 467.245 349.114 469.179 349.114C471.107 349.114 473.035 349.161 474.963 349.253C476.891 349.351 478.814 349.495 480.737 349.68C482.655 349.87 484.568 350.106 486.481 350.394C488.388 350.677 490.291 351.006 492.183 351.386C494.075 351.761 495.957 352.182 497.829 352.655C499.701 353.123 501.562 353.642 503.408 354.202C505.254 354.762 507.085 355.369 508.9 356.022C510.721 356.674 512.521 357.368 514.3 358.108C516.085 358.848 517.849 359.635 519.592 360.462C521.341 361.289 523.064 362.158 524.762 363.068C526.464 363.982 528.146 364.933 529.797 365.925C531.454 366.922 533.084 367.955 534.689 369.029C536.295 370.103 537.874 371.219 539.423 372.37C540.971 373.521 542.494 374.713 543.987 375.942C545.479 377.165 546.935 378.429 548.366 379.729C549.797 381.03 551.197 382.361 552.561 383.728C553.925 385.095 555.253 386.498 556.55 387.932C557.848 389.366 559.104 390.825 560.33 392.321C561.555 393.816 562.74 395.343 563.889 396.895C565.042 398.447 566.15 400.03 567.222 401.638C568.294 403.247 569.329 404.881 570.319 406.541C571.314 408.196 572.263 409.882 573.175 411.588C574.083 413.294 574.95 415.021 575.775 416.769C576.601 418.516 577.38 420.284 578.119 422.072C578.857 423.861 579.555 425.665 580.206 427.484C580.852 429.304 581.457 431.143 582.021 432.994C582.58 434.844 583.093 436.704 583.565 438.585C584.032 440.461 584.457 442.347 584.832 444.244C585.206 446.14 585.539 448.047 585.821 449.959C586.103 451.87 586.339 453.793 586.529 455.715C586.719 457.642 586.862 459.569 586.955 461.502C587.052 463.434 587.098 465.366 587.098 467.299V836.021C587.098 837.954 587.052 839.886 586.955 841.819C586.862 843.751 586.719 845.678 586.529 847.605C586.339 849.528 586.103 851.45 585.821 853.361C585.539 855.273 585.206 857.18 584.832 859.076C584.457 860.973 584.032 862.859 583.565 864.735C583.093 866.611 582.58 868.476 582.021 870.326C581.457 872.177 580.852 874.017 580.206 875.836C579.555 877.655 578.857 879.459 578.119 881.248C577.38 883.036 576.601 884.804 575.775 886.551C574.95 888.299 574.083 890.026 573.175 891.732C572.263 893.438 571.314 895.119 570.319 896.779C569.329 898.439 568.294 900.073 567.222 901.682C566.15 903.29 565.042 904.868 563.889 906.425C562.74 907.977 561.555 909.499 560.33 910.994C559.104 912.49 557.848 913.954 556.55 915.388C555.253 916.822 553.925 918.22 552.561 919.592C551.197 920.959 549.797 922.29 548.366 923.591C546.935 924.891 545.479 926.15 543.987 927.378C542.494 928.607 540.971 929.794 539.423 930.95C537.874 932.101 536.295 933.212 534.689 934.286C533.084 935.365 531.454 936.398 529.797 937.39C528.146 938.387 526.464 939.338 524.762 940.252C523.064 941.162 521.341 942.031 519.592 942.858C517.849 943.686 516.085 944.472 514.3 945.212C512.521 945.952 510.721 946.646 508.9 947.299C507.085 947.951 505.254 948.558 503.408 949.118C501.562 949.678 499.701 950.192 497.829 950.665C495.957 951.132 494.075 951.559 492.183 951.934C490.291 952.315 488.388 952.643 486.481 952.926C484.568 953.209 482.655 953.445 480.737 953.635C478.814 953.826 476.891 953.969 474.963 954.062C473.035 954.16 471.107 954.206 469.179 954.206C467.245 954.206 465.317 954.16 463.389 954.062C461.461 953.969 459.538 953.826 457.62 953.635C455.697 953.445 453.784 953.209 451.877 952.926C449.964 952.643 448.066 952.315 446.169 951.934C444.277 951.559 442.395 951.132 440.523 950.665C438.651 950.192 436.795 949.678 434.944 949.118C433.098 948.558 431.267 947.951 429.452 947.299C427.631 946.646 425.831 945.952 424.052 945.212C422.267 944.472 420.503 943.686 418.76 942.858C417.016 942.031 415.293 941.162 413.59 940.252C411.888 939.338 410.206 938.387 408.555 937.39C406.898 936.398 405.268 935.365 403.663 934.286C402.058 933.212 400.483 932.101 398.929 930.95C397.381 929.794 395.863 928.607 394.371 927.378C392.878 926.15 391.417 924.891 389.986 923.591C388.555 922.29 387.161 920.959 385.796 919.592C384.427 918.22 383.099 916.822 381.802 915.388C380.509 913.954 379.248 912.49 378.022 910.994C376.797 909.499 375.612 907.977 374.463 906.425C373.31 904.868 372.202 903.29 371.13 901.682C370.058 900.073 369.023 898.439 368.033 896.779C367.038 895.119 366.089 893.438 365.182 891.732C364.269 890.026 363.402 888.299 362.577 886.551C361.751 884.804 360.972 883.036 360.233 881.248C359.495 879.459 358.797 877.655 358.151 875.836C357.5 874.017 356.895 872.177 356.336 870.326C355.772 868.476 355.259 866.611 354.792 864.735C354.32 862.859 353.9 860.973 353.521 859.076C353.146 857.18 352.818 855.273 352.531 853.361C352.249 851.45 352.013 849.528 351.823 847.605C351.633 845.678 351.495 843.751 351.397 841.819C351.305 839.886 351.254 837.954 351.254 836.021Z" fill="#FEFEFE"></path>
<path d="M590.393 467.298V836.031C590.393 903.017 536.021 957.515 469.182 957.515C402.343 957.515 347.965 903.017 347.965 836.031V467.298C347.965 400.312 402.343 345.819 469.182 345.819C536.021 345.819 590.393 400.312 590.393 467.298ZM354.554 836.031C354.554 899.373 405.978 950.911 469.182 950.911C532.385 950.911 583.809 899.373 583.809 836.031V467.298C583.809 403.956 532.385 352.418 469.182 352.418C405.978 352.418 354.554 403.956 354.554 467.298V836.031Z" fill="#FEFEFE"></path>
<path d="M633.055 868.224L585.277 853.037L587.277 846.731L635.05 861.918L633.055 868.224Z" fill="#FEFEFE"></path>
<path d="M672.372 906.101L626.491 886.284L629.101 880.209L674.982 900.026L672.372 906.101Z" fill="#FEFEFE"></path>
<path d="M709.796 948.557L666.336 924.752L669.5 918.944L712.965 942.755L709.796 948.557Z" fill="#FEFEFE"></path>
<path d="M742.827 987.806L704.612 964.741L708.017 959.072L746.232 982.138L742.827 987.806Z" fill="#FEFEFE"></path>
<path d="M117.226 897.886C113.287 898.389 109.477 897.685 105.8 895.768C102.119 893.862 99.2263 891.143 97.1238 887.607L72.7758 906.314L71.2989 894L94.1495 876.917L92.2009 861.89L67.5657 865.076L66.2734 854.941L131.81 846.451L135.4 874.43C135.851 877.868 135.43 881.275 134.148 884.647C132.877 888.029 130.81 890.943 127.954 893.384C125.092 895.82 121.518 897.32 117.226 897.886ZM125.451 874.019L123.359 857.861L101.924 860.636L104.344 879.425C104.739 882.427 106.108 884.616 108.447 886.004C110.785 887.386 113.293 887.9 115.975 887.545C119.405 887.103 121.949 885.572 123.605 882.941C125.256 880.309 125.872 877.334 125.451 874.019Z" fill="#188294"></path>
<path d="M162.272 989.112L124.734 1005.11C120.165 1007.05 115.617 1007.74 111.094 1007.16C106.566 1006.59 102.489 1004.89 98.8683 1002.08C95.2582 999.288 92.4377 995.505 90.4173 990.736C88.4173 986.033 87.6584 981.387 88.1404 976.798C88.6173 972.203 90.2173 968.071 92.9403 964.402C95.6735 960.742 99.3247 957.941 103.894 955.994L141.431 940L145.41 949.395L108.673 965.059C105.648 966.344 103.258 968.205 101.494 970.631C99.7298 973.067 98.6683 975.734 98.3145 978.627C97.9709 981.516 98.3555 984.265 99.4632 986.871C100.637 989.651 102.396 991.949 104.735 993.758C107.083 995.567 109.745 996.677 112.714 997.088C115.693 997.509 118.693 997.078 121.719 995.793L158.456 980.128L162.272 989.112Z" fill="#188294"></path>
<path d="M212.367 1065.73L218.849 1073.62L167.814 1115.7L161.866 1108.47L176.388 1046.63C173.665 1049.38 170.937 1052.09 168.204 1054.79C165.481 1057.48 162.635 1060.04 159.671 1062.48L138.461 1079.98L132 1072.08L183.034 1030L188.86 1037.09L173.537 1099.61C176.722 1096.24 180.306 1092.78 184.286 1089.25C188.275 1085.71 192.044 1082.48 195.588 1079.56L212.367 1065.73Z" fill="#188294"></path>
<path d="M289.095 1127.7L297.587 1133.39L260.87 1188.46L253.096 1183.24L249.158 1119.82C247.353 1123.25 245.527 1126.65 243.681 1130.02C241.845 1133.38 239.866 1136.66 237.733 1139.87L222.472 1162.75L214 1157.07L250.717 1102L258.347 1107.1L261.691 1171.38C263.783 1167.24 266.224 1162.9 269.014 1158.35C271.803 1153.81 274.475 1149.63 277.034 1145.81L289.095 1127.7Z" fill="#188294"></path>
<path d="M347.784 1225.96L318 1215.52L321.118 1206.59L331.21 1210.13L346.799 1165.46L336.707 1161.92L339.804 1153L369.588 1163.44L366.491 1172.37L356.419 1168.83L340.83 1213.5L350.902 1217.04L347.784 1225.96Z" fill="#188294"></path>
<path d="M456.547 1176.86L466.701 1177.71L461.183 1243.72L451.85 1242.94L417.779 1189.38C417.846 1193.25 417.887 1197.1 417.902 1200.94C417.928 1204.76 417.784 1208.6 417.471 1212.43L415.174 1239.85L405 1239.01L410.518 1173L419.666 1173.76L453.655 1228.36C453.475 1223.75 453.516 1218.77 453.778 1213.44C454.034 1208.11 454.357 1203.15 454.742 1198.57L456.547 1176.86Z" fill="#188294"></path>
<path d="M543.355 1173.78C547.047 1172.99 550.575 1172.8 553.939 1173.2C557.303 1173.59 560.359 1174.36 563.108 1175.52C565.867 1176.69 568.123 1178.09 569.877 1179.72L564.811 1187.84C561.857 1186.02 558.744 1184.66 555.478 1183.77C552.206 1182.88 548.842 1182.8 545.386 1183.52C541.006 1184.44 537.263 1186.29 534.145 1189.05C531.027 1191.82 528.817 1195.17 527.519 1199.08C526.217 1203 526.027 1207.18 526.945 1211.62C527.858 1216.01 529.766 1219.77 532.668 1222.91C535.581 1226.03 539.052 1228.27 543.088 1229.61C547.134 1230.96 551.293 1231.18 555.56 1230.29C558.636 1229.65 561.395 1228.44 563.847 1226.67C566.308 1224.89 568.164 1222.77 569.426 1220.32C570.682 1217.87 571.026 1215.28 570.451 1212.57C570.395 1212.25 570.359 1212.07 570.349 1212.01L551.949 1215.88L549.878 1205.97L578.533 1199.97C578.846 1200.87 579.149 1201.78 579.436 1202.68C579.723 1203.58 579.959 1204.5 580.154 1205.41C580.861 1208.82 581.046 1212.25 580.708 1215.73C580.379 1219.22 579.385 1222.39 577.733 1225.25C575.913 1228.86 573.231 1231.98 569.693 1234.63C566.149 1237.26 562.011 1239.08 557.283 1240.07C552.59 1241.05 548.037 1241.12 543.622 1240.28C539.201 1239.43 535.135 1237.82 531.417 1235.45C527.709 1233.06 524.586 1230.03 522.043 1226.34C519.509 1222.66 517.756 1218.46 516.771 1213.76C515.802 1209.07 515.745 1204.56 516.607 1200.21C517.468 1195.87 519.109 1191.89 521.53 1188.27C523.961 1184.64 527.032 1181.56 530.74 1179.04C534.458 1176.52 538.663 1174.76 543.355 1173.78Z" fill="#188294"></path>
<path d="M708.886 1172.8L675.758 1127.22L660.805 1138.14L655 1130.18L693.604 1102L699.409 1109.96L684.004 1121.2L717.131 1166.78L708.886 1172.8Z" fill="#188294"></path>
<path d="M728 1072.97L754.789 1041L762.317 1047.33L742.092 1071.47L755.445 1082.71L772.327 1062.56L779.855 1068.9L762.973 1089.04L777.639 1101.4L797.864 1077.26L805.392 1083.59L778.603 1115.56L728 1072.97Z" fill="#188294"></path>
<path d="M856.418 988.048L838.88 986.691L827.086 1011.77L839.311 1024.43L834.881 1033.85L786 982.436L790.431 973L861.034 978.201L856.418 988.048ZM810.02 993.969L819.825 1004.14L828.44 985.828L813.938 984.738C811.589 984.533 809.086 984.26 806.43 983.916C803.779 983.577 801.112 983.217 798.43 982.847C800.441 984.779 802.466 986.702 804.502 988.603C806.528 990.494 808.369 992.283 810.02 993.969Z" fill="#188294"></path>
<path d="M812.497 899.586L850.568 883.428L819.02 856.333L820.436 847L885.787 856.909L884.27 867.002L857.481 862.953C853.558 862.351 849.85 861.709 846.363 861.02C842.866 860.321 839.399 859.535 835.963 858.656L862.752 882.42L861.809 888.608L829.399 902.916C832.928 903.055 836.451 903.327 839.963 903.738C843.466 904.15 847.178 904.658 851.101 905.26L877.89 909.309L876.352 919.403L811 909.494L812.497 899.586Z" fill="#188294"></path>
<path d="M141.35 413.953L80.7977 406.943L78.5003 426.884L67.916 425.651L73.8646 374.134L84.4489 375.367L82.0694 395.925L142.621 402.935L141.35 413.953Z" fill="#188294"></path>
<path d="M114.846 272.615L169.963 326.784L165.84 336.734L88.7344 335.788L93.5547 324.153L140.241 324.995C142.733 325.067 145.179 325.139 147.584 325.222C149.979 325.304 152.399 325.443 154.845 325.633C152.973 324.045 151.143 322.436 149.348 320.802C147.558 319.157 145.779 317.528 144.015 315.909L109.923 284.559L114.846 272.615Z" fill="#188294"></path>
<path d="M143.014 228.355L171.218 193.099L179.525 199.759L158.213 226.402L172.961 238.263L190.766 216L199.074 222.681L181.269 244.944L197.474 257.937L218.786 231.294L227.093 237.975L198.889 273.231L143.014 228.355Z" fill="#188294"></path>
<path d="M273.607 137.448C276.094 140.958 277.361 144.961 277.402 149.453C277.443 153.95 276.299 158.108 273.976 161.931L304.17 175.808L293.155 183.476L265.279 170.195L251.905 179.652L267.433 201.689L258.407 208.083L217.096 149.474L241.998 131.835C245.064 129.672 248.531 128.351 252.397 127.868C256.264 127.374 260.089 127.888 263.864 129.41C267.648 130.921 270.899 133.598 273.607 137.448ZM246.633 141.621L232.254 151.797L245.772 170.956L262.489 159.136C265.156 157.244 266.556 154.829 266.694 151.879C266.843 148.934 266.063 146.261 264.356 143.861C262.192 140.793 259.433 139.133 256.069 138.887C252.715 138.63 249.577 139.539 246.633 141.621Z" fill="#188294"></path>
<path d="M344.433 81.0352C349.685 79.3084 354.592 78.6866 359.161 79.1645C363.725 79.6476 367.848 81.0301 371.53 83.3171C375.222 85.5938 378.422 88.5695 381.13 92.239C383.848 95.9137 385.96 100.066 387.468 104.697C389.504 110.921 390.165 117.011 389.458 122.972C388.745 128.924 386.524 134.212 382.791 138.843C379.068 143.478 373.709 146.942 366.71 149.245L340.085 157.982L317.809 89.7721L344.433 81.0352ZM362.915 139.274C368.043 137.589 371.838 135.137 374.299 131.915C376.761 128.698 378.14 125.028 378.443 120.917C378.74 116.795 378.181 112.56 376.761 108.212C375.366 103.91 373.325 100.19 370.648 97.0495C367.966 93.899 364.679 91.7405 360.782 90.5739C356.895 89.397 352.392 89.6488 347.264 91.3345L331.613 96.4738L347.264 144.414L362.915 139.274Z" fill="#188294"></path>
<path d="M502.521 96.7366C502.547 101.932 501.721 106.779 500.039 111.271C498.357 115.752 495.937 119.679 492.778 123.05C489.629 126.411 485.932 129.043 481.681 130.944C477.425 132.835 472.743 133.791 467.63 133.822C462.512 133.848 457.805 132.938 453.497 131.088C449.2 129.238 445.477 126.648 442.318 123.317C439.159 119.977 436.708 116.076 434.975 111.62C433.252 107.154 432.375 102.323 432.349 97.1272C432.308 91.9364 433.129 87.09 434.811 82.5931C436.503 78.1013 438.913 74.1748 442.031 70.8137C445.149 67.4577 448.846 64.8264 453.128 62.9197C457.42 61.0027 462.123 60.0314 467.24 60.0005C472.353 59.9748 477.045 60.8948 481.312 62.7552C485.578 64.6208 489.301 67.2162 492.491 70.5465C495.691 73.8768 498.152 77.7775 499.875 82.2436C501.598 86.7149 502.48 91.5458 502.521 96.7366ZM491.281 96.7983C491.25 91.7977 490.199 87.3419 488.122 83.436C486.055 79.5198 483.225 76.4259 479.63 74.1646C476.045 71.893 471.938 70.7623 467.302 70.7726C462.594 70.8034 458.451 71.9752 454.872 74.2879C451.302 76.5903 448.523 79.7151 446.544 83.6621C444.559 87.5988 443.58 92.0649 443.61 97.0655C443.636 102.056 444.662 106.512 446.687 110.428C448.723 114.334 451.533 117.428 455.118 119.699C458.712 121.961 462.861 123.081 467.569 123.05C472.204 123.04 476.307 121.878 479.876 119.576C483.455 117.263 486.255 114.118 488.265 110.14C490.286 106.167 491.291 101.722 491.281 96.7983Z" fill="#188294"></path>
<path d="M552.188 142.973L541.665 139.663L563.039 71.166L573.562 74.4758L563.08 108.046L607.058 84.96L620.924 89.3182L582.484 108.745L600.125 158L586.956 153.868L572.823 113.658L559.182 120.565L552.188 142.973Z" fill="#188294"></path>
<path d="M684.227 123.041L666.73 148.182L696.021 168.657L713.518 143.516L722.584 149.847L681.621 208.724L672.555 202.392L689.929 177.415L660.637 156.94L643.264 181.917L634.218 175.606L675.181 116.729L684.227 123.041Z" fill="#188294"></path>
<path d="M756.059 270.895L747.752 277.556L719.896 242.649L775.813 197.813L782.725 206.448L735.117 244.623L756.059 270.895Z" fill="#188294"></path>
<path d="M867.89 394.096C868.793 401.003 867.941 406.415 865.347 410.336C862.762 414.253 858.562 416.596 852.752 417.367C849.578 417.778 846.639 417.388 843.932 416.195C841.234 415.003 838.978 412.999 837.163 410.192C836.712 412.536 835.85 414.766 834.578 416.894C833.306 419.032 831.568 420.862 829.368 422.383C827.163 423.915 824.368 424.901 820.979 425.343C816.861 425.878 813.353 425.611 810.456 424.542C807.553 423.473 805.184 421.89 803.338 419.793C801.492 417.696 800.061 415.296 799.051 412.598C798.051 409.894 797.369 407.16 797 404.395L793 373.703L864.013 364.411L867.89 394.096ZM857.08 393.623L854.885 376.746L836.035 379.212L838.394 397.324C838.814 400.088 839.978 402.432 841.881 404.354C843.778 406.287 846.214 407.052 849.183 406.657C852.573 406.215 854.844 404.765 855.993 402.298C857.152 399.842 857.516 396.953 857.08 393.623ZM827.891 399.235L825.471 380.61L805 383.283L807.482 402.401C807.984 406.266 809.256 409.298 811.297 411.508C813.333 413.728 816.143 414.602 819.727 414.139C822.312 413.795 824.209 412.824 825.43 411.22C826.661 409.617 827.445 407.736 827.789 405.588C828.127 403.45 828.163 401.332 827.891 399.235Z" fill="#188294"></path>
<line x1="48.5576" y1="608.133" x2="130.558" y2="608.133" stroke="#188294" stroke-width="8"></line>
<line x1="48" y1="625.133" x2="130" y2="625.133" stroke="#188294" stroke-width="8"></line>
<line x1="81" y1="711.133" x2="81" y2="629.133" stroke="#188294" stroke-width="8"></line>
<line x1="98" y1="711.133" x2="98" y2="629.133" stroke="#188294" stroke-width="8"></line>
<line x1="901" y1="711.133" x2="819" y2="711.133" stroke="#188294" stroke-width="8"></line>
<line x1="901.558" y1="694.133" x2="819.558" y2="694.133" stroke="#188294" stroke-width="8"></line>
<line x1="868.558" y1="608.133" x2="868.558" y2="690.133" stroke="#188294" stroke-width="8"></line>
<line x1="851.558" y1="608.133" x2="851.558" y2="690.133" stroke="#188294" stroke-width="8"></line>
<path d="M54.5 597.473C52.732 597.473 51.168 597.189 49.808 596.623C48.4707 596.056 47.4053 595.297 46.612 594.345L49.91 591.489C50.6127 592.191 51.406 592.713 52.29 593.053C53.174 593.37 54.0127 593.529 54.806 593.529C55.1233 593.529 55.4067 593.495 55.656 593.427C55.9053 593.359 56.1093 593.268 56.268 593.155C56.4493 593.019 56.5853 592.871 56.676 592.713C56.7667 592.531 56.812 592.327 56.812 592.101C56.812 591.647 56.608 591.296 56.2 591.047C55.996 590.933 55.656 590.797 55.18 590.639C54.704 590.48 54.092 590.299 53.344 590.095C52.2787 589.823 51.3493 589.505 50.556 589.143C49.7853 588.757 49.1507 588.315 48.652 587.817C48.1987 587.341 47.8473 586.819 47.598 586.253C47.3487 585.663 47.224 585.006 47.224 584.281C47.224 583.442 47.4167 582.683 47.802 582.003C48.21 581.323 48.7427 580.733 49.4 580.235C50.08 579.736 50.8507 579.362 51.712 579.113C52.596 578.841 53.5027 578.705 54.432 578.705C55.4293 578.705 56.3813 578.818 57.288 579.045C58.1947 579.271 59.0333 579.589 59.804 579.997C60.5973 580.405 61.3 580.892 61.912 581.459L59.056 584.655C58.648 584.269 58.1833 583.929 57.662 583.635C57.1633 583.317 56.642 583.068 56.098 582.887C55.554 582.705 55.0553 582.615 54.602 582.615C54.262 582.615 53.956 582.649 53.684 582.717C53.4347 582.762 53.2193 582.853 53.038 582.989C52.8567 583.102 52.7207 583.249 52.63 583.431C52.5393 583.589 52.494 583.782 52.494 584.009C52.494 584.235 52.5507 584.451 52.664 584.655C52.8 584.859 52.9813 585.029 53.208 585.165C53.4347 585.301 53.7973 585.459 54.296 585.641C54.7947 585.799 55.4747 586.003 56.336 586.253C57.4013 586.547 58.3193 586.876 59.09 587.239C59.8607 587.601 60.4727 588.032 60.926 588.531C61.2887 588.916 61.5607 589.369 61.742 589.891C61.9233 590.389 62.014 590.933 62.014 591.523C62.014 592.679 61.6853 593.71 61.028 594.617C60.3933 595.501 59.5093 596.203 58.376 596.725C57.2427 597.223 55.9507 597.473 54.5 597.473ZM65.554 597.133V579.079H70.994V597.133H65.554ZM68.274 575.509C67.254 575.509 66.4493 575.271 65.86 574.795C65.2933 574.296 65.01 573.593 65.01 572.687C65.01 571.871 65.3047 571.202 65.894 570.681C66.4833 570.159 67.2767 569.899 68.274 569.899C69.294 569.899 70.0873 570.148 70.654 570.647C71.2207 571.123 71.504 571.803 71.504 572.687C71.504 573.525 71.2093 574.205 70.62 574.727C70.0533 575.248 69.2713 575.509 68.274 575.509ZM76.1054 597.133V579.079H81.2734L81.4434 582.751L80.3554 583.159C80.6047 582.343 81.0467 581.606 81.6814 580.949C82.3387 580.269 83.1207 579.725 84.0274 579.317C84.9341 578.909 85.8861 578.705 86.8834 578.705C88.2434 578.705 89.3881 578.988 90.3174 579.555C91.2467 580.099 91.9494 580.926 92.4254 582.037C92.9014 583.125 93.1394 584.462 93.1394 586.049V597.133H87.6654V586.491C87.6654 585.765 87.5634 585.165 87.3594 584.689C87.1554 584.213 86.8381 583.861 86.4074 583.635C85.9994 583.385 85.4894 583.272 84.8774 583.295C84.4014 583.295 83.9594 583.374 83.5514 583.533C83.1434 583.669 82.7921 583.884 82.4974 584.179C82.2027 584.451 81.9647 584.768 81.7834 585.131C81.6247 585.493 81.5454 585.89 81.5454 586.321V597.133H78.8594C78.2247 597.133 77.6807 597.133 77.2274 597.133C76.7741 597.133 76.4001 597.133 76.1054 597.133ZM105.609 597.473C103.864 597.473 102.3 597.065 100.917 596.249C99.5348 595.433 98.4354 594.322 97.6194 592.917C96.8261 591.489 96.4294 589.879 96.4294 588.089C96.4294 586.298 96.8261 584.7 97.6194 583.295C98.4354 581.867 99.5348 580.745 100.917 579.929C102.3 579.113 103.864 578.705 105.609 578.705C107.219 578.705 108.692 578.988 110.029 579.555C111.389 580.121 112.466 580.915 113.259 581.935L110.301 585.471C109.984 585.108 109.61 584.768 109.179 584.451C108.749 584.133 108.273 583.884 107.751 583.703C107.23 583.521 106.686 583.431 106.119 583.431C105.258 583.431 104.499 583.635 103.841 584.043C103.184 584.428 102.674 584.972 102.311 585.675C101.949 586.377 101.767 587.182 101.767 588.089C101.767 588.95 101.949 589.732 102.311 590.435C102.697 591.137 103.218 591.693 103.875 592.101C104.533 592.509 105.281 592.713 106.119 592.713C106.709 592.713 107.253 592.645 107.751 592.509C108.25 592.35 108.703 592.123 109.111 591.829C109.542 591.534 109.939 591.171 110.301 590.741L113.225 594.311C112.455 595.285 111.378 596.056 109.995 596.623C108.635 597.189 107.173 597.473 105.609 597.473ZM124.817 597.473C122.822 597.473 121.088 597.076 119.615 596.283C118.141 595.467 116.997 594.367 116.181 592.985C115.365 591.579 114.957 589.981 114.957 588.191C114.957 586.808 115.183 585.539 115.637 584.383C116.09 583.227 116.725 582.229 117.541 581.391C118.357 580.529 119.32 579.872 120.431 579.419C121.564 578.943 122.799 578.705 124.137 578.705C125.406 578.705 126.562 578.931 127.605 579.385C128.67 579.838 129.588 580.473 130.359 581.289C131.129 582.105 131.719 583.068 132.127 584.179C132.535 585.289 132.716 586.502 132.671 587.817L132.637 589.279H118.255L117.473 586.219H128.217L127.639 586.865V586.185C127.593 585.618 127.412 585.119 127.095 584.689C126.8 584.235 126.403 583.884 125.905 583.635C125.406 583.385 124.839 583.261 124.205 583.261C123.321 583.261 122.561 583.442 121.927 583.805C121.315 584.145 120.85 584.655 120.533 585.335C120.215 585.992 120.057 586.808 120.057 587.783C120.057 588.78 120.261 589.653 120.669 590.401C121.099 591.126 121.711 591.693 122.505 592.101C123.321 592.509 124.284 592.713 125.395 592.713C126.165 592.713 126.845 592.599 127.435 592.373C128.047 592.146 128.704 591.761 129.407 591.217L131.957 594.821C131.254 595.433 130.506 595.931 129.713 596.317C128.919 596.702 128.103 596.985 127.265 597.167C126.449 597.371 125.633 597.473 124.817 597.473Z" fill="#188294"></path>
<path d="M820.006 750.133L818.884 747.345L825.82 739.763C826.205 739.332 826.625 738.845 827.078 738.301C827.531 737.757 827.973 737.201 828.404 736.635C828.835 736.045 829.175 735.479 829.424 734.935C829.696 734.391 829.832 733.892 829.832 733.439C829.832 732.985 829.73 732.589 829.526 732.249C829.322 731.909 829.027 731.648 828.642 731.467C828.257 731.263 827.769 731.161 827.18 731.161C826.659 731.161 826.16 731.297 825.684 731.569C825.208 731.818 824.755 732.215 824.324 732.759C823.916 733.303 823.531 733.971 823.168 734.765L818.884 732.453C819.36 731.138 820.029 729.982 820.89 728.985C821.774 727.965 822.805 727.183 823.984 726.639C825.163 726.072 826.421 725.789 827.758 725.789C829.163 725.811 830.433 726.117 831.566 726.707C832.699 727.273 833.595 728.078 834.252 729.121C834.932 730.141 835.272 731.342 835.272 732.725C835.272 733.201 835.215 733.699 835.102 734.221C834.989 734.742 834.819 735.286 834.592 735.853C834.365 736.397 834.059 736.986 833.674 737.621C833.311 738.233 832.869 738.879 832.348 739.559C831.827 740.239 831.215 740.964 830.512 741.735L825.106 747.617L824.426 745.033H836.326V750.133H820.006ZM848.085 750.473C845.954 750.473 844.13 749.985 842.611 749.011C841.115 748.036 839.97 746.642 839.177 744.829C838.384 742.993 837.987 740.794 837.987 738.233C837.987 735.671 838.384 733.484 839.177 731.671C839.97 729.835 841.115 728.429 842.611 727.455C844.13 726.48 845.954 725.993 848.085 725.993C850.216 725.993 852.04 726.48 853.559 727.455C855.078 728.429 856.234 729.835 857.027 731.671C857.82 733.484 858.217 735.671 858.217 738.233C858.217 740.794 857.82 742.993 857.027 744.829C856.234 746.642 855.078 748.036 853.559 749.011C852.04 749.985 850.216 750.473 848.085 750.473ZM848.085 745.577C849.558 745.577 850.692 744.942 851.485 743.673C852.301 742.403 852.709 740.59 852.709 738.233C852.709 735.807 852.301 733.949 851.485 732.657C850.692 731.342 849.558 730.685 848.085 730.685C846.612 730.685 845.467 731.342 844.651 732.657C843.858 733.949 843.461 735.807 843.461 738.233C843.461 740.59 843.858 742.403 844.651 743.673C845.467 744.942 846.612 745.577 848.085 745.577ZM866.744 748.467V729.155L868.002 732.045L862.902 734.459L861.916 729.291L868.682 725.993H872.422V748.467H866.744ZM862.392 750.133V745.033H876.876V750.133H862.392ZM888.795 750.235C887.163 750.235 885.678 749.929 884.341 749.317C883.026 748.682 881.972 747.832 881.179 746.767C880.386 745.701 879.989 744.5 879.989 743.163C879.989 742.279 880.102 741.485 880.329 740.783C880.556 740.057 880.896 739.423 881.349 738.879C881.825 738.312 882.392 737.836 883.049 737.451C883.729 737.043 884.5 736.714 885.361 736.465L884.953 737.825C884.318 737.575 883.74 737.269 883.219 736.907C882.698 736.544 882.256 736.136 881.893 735.683C881.53 735.207 881.247 734.697 881.043 734.153C880.862 733.609 880.771 733.042 880.771 732.453C880.771 731.183 881.122 730.061 881.825 729.087C882.55 728.112 883.514 727.353 884.715 726.809C885.939 726.242 887.299 725.959 888.795 725.959C890.268 725.959 891.606 726.242 892.807 726.809C894.031 727.353 895.006 728.112 895.731 729.087C896.456 730.061 896.819 731.183 896.819 732.453C896.819 733.042 896.728 733.609 896.547 734.153C896.366 734.697 896.094 735.195 895.731 735.649C895.368 736.079 894.926 736.487 894.405 736.873C893.884 737.235 893.283 737.553 892.603 737.825L892.297 736.601C893.068 736.805 893.782 737.099 894.439 737.485C895.096 737.847 895.663 738.312 896.139 738.879C896.615 739.423 896.978 740.057 897.227 740.783C897.499 741.485 897.635 742.279 897.635 743.163C897.635 744.523 897.238 745.735 896.445 746.801C895.652 747.866 894.586 748.705 893.249 749.317C891.912 749.929 890.427 750.235 888.795 750.235ZM888.795 745.679C889.43 745.679 889.996 745.554 890.495 745.305C890.994 745.055 891.39 744.715 891.685 744.285C891.98 743.854 892.127 743.355 892.127 742.789C892.127 742.199 891.98 741.689 891.685 741.259C891.413 740.805 891.016 740.454 890.495 740.205C889.996 739.933 889.43 739.797 888.795 739.797C888.16 739.797 887.594 739.933 887.095 740.205C886.596 740.454 886.2 740.805 885.905 741.259C885.61 741.689 885.463 742.199 885.463 742.789C885.463 743.333 885.61 743.82 885.905 744.251C886.2 744.681 886.596 745.033 887.095 745.305C887.594 745.554 888.16 745.679 888.795 745.679ZM888.795 735.207C889.339 735.207 889.826 735.105 890.257 734.901C890.71 734.674 891.062 734.379 891.311 734.017C891.56 733.631 891.685 733.189 891.685 732.691C891.685 732.192 891.56 731.75 891.311 731.365C891.062 730.979 890.71 730.673 890.257 730.447C889.826 730.22 889.339 730.107 888.795 730.107C888.228 730.107 887.718 730.22 887.265 730.447C886.834 730.673 886.494 730.979 886.245 731.365C885.996 731.75 885.871 732.192 885.871 732.691C885.871 733.189 885.996 733.631 886.245 734.017C886.494 734.379 886.834 734.674 887.265 734.901C887.718 735.105 888.228 735.207 888.795 735.207Z" fill="#188294"></path>
<path d="M779.59 336.489L765.83 307.922L774.546 303.435L779.21 313.113L822.835 290.634L818.17 280.956L826.872 276.455L840.631 305.022L831.93 309.523L827.28 299.86L783.656 322.339L788.306 332.002L779.59 336.489Z" fill="#188294"></path>
<path d="M467.043 786.831C466.844 783.504 466.265 780.199 466.315 776.85C466.357 773.652 467.27 770.689 467.917 767.63C468.208 766.272 468.474 764.914 468.723 763.544C465.315 762.559 462.969 758.226 460.813 754.909C458.335 751.1 457.051 746.458 456.355 741.708C456.314 741.451 456.199 731.867 457.159 741.441C457.639 746.19 459.114 750.78 461.568 754.557C463.5 757.52 466.078 760.292 469.088 761.459C469.262 760.411 469.437 759.373 469.594 758.325C469.594 758.303 469.603 758.282 469.603 758.261C469.628 758.089 469.661 757.908 469.686 757.736C470.176 754.399 470.749 750.902 470.318 747.5C469.937 744.44 468.57 741.862 467.492 739.123C466.398 736.352 465.76 733.4 465.562 730.33C465.562 730.308 465.562 730.298 465.57 730.276C465.173 727.976 464.924 725.644 464.867 723.28C464.834 721.847 464.95 720.403 464.851 718.98C464.727 717.162 464.056 715.792 463.086 714.434C460.217 710.411 456.818 706.505 452.805 704.289C448.27 701.785 442.946 701.986 438.725 705.365C434.719 708.562 432.396 714.337 432.577 720.167C432.577 720.22 432.56 720.274 432.535 720.317C432.859 721.504 433.198 722.67 433.571 723.826C435.046 728.394 437.152 732.63 439.091 736.92C441.163 741.51 443.235 746.1 445.109 750.818C446.857 755.236 448.548 759.793 449.285 764.65C450.005 769.442 449.64 774.341 448.32 778.93C448.304 778.973 448.27 779.015 448.229 779.058C447.407 782.032 446.727 785.059 446.22 788.139C444.452 798.889 445.022 809.725 446.653 820.433C447.97 829.076 449.361 837.666 449.674 846.481C449.699 847.197 449.583 848.149 449.724 848.855C449.84 849.444 450.238 849.925 450.329 850.578C450.461 851.476 450.32 852.46 449.913 853.23C449.582 853.851 449.101 854.278 448.628 854.717C449.473 857.167 450.227 859.349 452.134 860.676C454.564 862.356 457.433 862.785 460.177 862.711C460.443 862.701 460.658 863.45 460.335 863.685C457.026 866.155 453.136 866.838 449.413 865.542C448.932 865.371 444.289 863.176 449.886 864.911C452.987 865.875 456.188 865.587 459.008 863.823C456.529 863.78 454.016 863.308 451.802 861.885C449.738 860.568 448.461 858.514 447.375 856.15C446.695 857.273 446.371 858.674 446.23 860.043C445.973 862.524 446.246 865.049 446.038 867.552C445.281 876.687 442.784 885.468 442.027 894.603C441.72 898.293 441.561 902.433 442.846 905.899C443.757 908.349 445.216 910.414 447.488 910.714C449.702 911.004 452.132 911.047 454.354 910.952C456.013 910.888 457.812 910.525 459.023 908.985C459.861 907.916 460.276 906.451 460.592 905.049C461.33 901.734 461.314 898.279 461.091 894.877C460.885 891.7 460.495 888.544 460.33 885.367C460.149 881.944 460.34 878.543 460.589 875.13C460.698 873.676 460.764 872.178 461.08 870.766C461.387 869.397 462.084 868.264 462.457 866.927C462.938 865.205 462.64 863.493 462.359 861.771C462.102 860.22 461.953 858.669 461.779 857.096C461.084 850.528 459.949 843.917 460.092 837.264C460.318 826.225 466 816.867 467.387 806.128C467.777 803.133 467.587 800.255 467.447 797.239C467.29 793.773 467.258 790.297 467.043 786.831ZM452.685 766.555C452.851 765.422 453.83 758.822 453.207 766.459C453.29 766.491 453.14 768.181 453.132 768.973C453.206 770.428 453.554 771.85 454.615 772.653C456.133 773.809 458.289 772.954 459.989 773.233C460.519 773.318 465.138 774.047 459.856 773.853C459.756 773.917 458.886 773.874 458.546 773.874C457.882 773.917 457.194 773.97 456.522 773.948C455.436 773.958 454.375 773.808 453.521 772.974C452.028 771.508 452.602 766.619 452.685 766.555ZM464.684 803.389C464.244 808.095 462.767 812.523 462.219 817.208C462.185 817.475 461.297 824.064 461.688 817.582C461.837 818.427 464.296 794.157 463.7 792.36C462.814 785.257 464.231 792.103 464.255 792.339C464.719 795.922 465.017 799.762 464.684 803.389ZM465.013 777.577C464.98 777.609 464.93 777.641 464.872 777.674C464.681 777.759 464.507 777.866 464.333 777.973C462.898 778.956 461.977 780.636 461.247 782.443C460.766 783.63 460.401 786.048 459.356 786.689C459.331 786.7 459.306 786.71 459.289 786.721C459.264 786.742 459.24 786.764 459.215 786.775C457.39 787.886 454.315 782.815 454.389 782.74C454.008 781.799 452.226 777.241 454.763 782.216C455.401 783.339 456.271 784.42 456.711 784.87C457.15 785.319 458.145 786.304 458.75 786.186C458.784 786.175 458.825 786.165 458.858 786.143C459.563 785.555 460.028 783.266 460.343 782.475C461.273 780.175 462.533 778.143 464.54 777.192C464.557 777.181 464.574 777.181 464.59 777.171C464.623 777.149 464.657 777.117 464.69 777.096C467.302 775.161 465.535 777.331 465.013 777.577Z" fill="#188294"></path>
<path d="M549.875 628.49C549.454 623.687 543.095 618.047 541.023 614.945C538.91 611.778 537.26 608.279 535.371 604.931C533.514 601.646 528.557 595.697 525.01 591.695C523.012 589.437 516.97 578.268 513.464 573.004C511.582 570.18 509.386 567.312 506.526 566.06C503.665 564.807 500.531 564.784 497.63 563.585C497.19 563.403 496.767 563.211 496.336 563.007C493.897 570.655 492.992 579.072 495.113 587.096C498.501 599.922 494.433 587.769 494.308 587.363C491.798 579.093 492.065 570.14 494.703 562.194C493.07 561.316 491.487 560.31 489.928 559.251C488.509 566.577 484.785 572.619 479.312 576.95C474.436 580.82 468.176 580.593 463.733 576.078C464.536 580.399 467.802 583.642 471.508 583.878C483.53 584.653 471.923 584.659 471.45 584.648C466.973 584.625 463.11 580.324 462.755 574.826C462.73 574.473 463.294 574.28 463.476 574.494C468.002 580.016 474.809 580.232 479.818 575.549C484.437 571.239 486.569 564.448 487.682 557.667C485.584 556.179 483.479 554.638 481.555 552.862C481.497 552.84 481.448 552.808 481.439 552.744C480.851 549.235 481.134 545.727 481.906 542.283C482.304 540.529 482.81 538.818 483.366 537.138C483.648 536.293 483.739 535.951 484.428 535.652C485.149 535.331 485.986 535.813 486.724 535.589C487.429 535.375 488.325 534.584 488.905 533.985C489.411 533.472 489.693 532.37 489.909 531.632C490.407 529.931 490.764 528.134 490.938 526.338C491.046 525.236 491.146 524.701 490.358 524.166C490.093 523.984 489.993 524.166 489.77 523.845C489.314 523.192 489.712 521.855 489.82 521.16C490.036 519.812 490.202 518.443 490.318 517.074C490.584 513.887 490.568 510.646 490.146 507.468C489.384 501.703 487.222 496.322 483.508 492.587C479.313 488.382 474.123 487.214 469.057 489.672C466.487 490.923 464.065 492.623 461.611 494.173C460.367 494.964 458.858 495.67 458.252 497.359C457.837 498.515 457.887 499.83 457.489 500.996C456.999 502.44 456.078 503.616 455.539 505.039C455.083 506.247 454.751 507.541 454.56 508.857C454.145 511.691 454.41 514.515 455.205 517.211C455.512 518.249 455.769 519.083 455.329 520.11C455.047 520.762 454.458 521.115 454.342 521.95C454.242 522.655 454.424 523.404 454.615 524.057C454.996 525.373 455.485 526.475 455.41 527.908C455.335 529.298 454.854 530.806 455.426 532.133C456.097 533.706 457.897 532.337 458.327 534.017C458.675 535.375 458.708 536.969 458.733 538.381C458.823 542.735 458.175 547.216 456.143 550.852C456.143 550.895 456.102 550.959 455.986 551.034C455.447 551.366 454.983 551.451 454.56 551.344C454.053 557.976 450.992 563.9 448.536 569.815C446.297 575.216 443.991 581.077 439.488 584.124C439.073 584.401 445.965 574.082 448.205 568.595C450.611 562.713 452.759 556.542 452.893 549.878C452.38 549.097 451.932 548.145 451.468 547.406C449.785 544.732 447.738 542.431 445.641 540.259C442.068 536.557 438.164 533.207 434.931 529.045C435.121 532.104 435.046 535.249 435.277 538.234C435.666 543.229 436.817 548 438.019 552.814C441.573 567.031 437.355 553.509 437.214 553.081C435.64 548.428 434.862 543.496 434.473 538.501C434.233 535.345 433.745 530.66 433.099 526.477C433.074 526.434 433.049 526.402 433.024 526.37C432.983 526.306 433 526.231 433.049 526.167C433.024 526.017 433 525.857 432.975 525.707C430.887 519.877 427.115 515.244 424.579 509.723C421.43 502.876 419.765 494.821 418.987 487.023C418.532 482.488 417.555 475.952 417.174 473.748C416.404 469.319 416.181 464.816 416.157 460.291C416.157 460.238 416.182 460.184 416.224 460.142L416.149 460.142L416.7 442.193C416.733 440.995 416.775 439.754 417.041 438.546C417.431 436.781 418.268 435.262 419.081 433.786L419.172 433.615C422.225 428.075 425.136 421.99 427.882 415.99C429.201 413.103 430.486 410.237 431.731 407.467C432.734 405.231 435.33 402.505 433.374 400.899C432.735 400.375 431.093 401.219 429.517 405.401C428.937 406.396 427.626 408.096 425.08 413.518C424.997 413.7 424.956 412.866 424.956 412.866C425.478 410.983 425.927 407.582 426.591 403.699C427.246 401.036 427.014 400.662 427.371 399.453C428.292 395.827 428.284 394.48 427.306 394.169C426.087 393.784 425.44 394.019 424.569 398.104C423.905 401.228 424.394 400.297 423.432 402.95C422.81 404.233 421.557 408.19 421.068 410.158C420.57 412.158 420.503 412.757 420.263 412.811C418.679 413.163 418.679 412.628 417.519 411.269C417.171 410.756 416.126 410.413 415.496 410.67C414.791 410.948 414.227 411.707 413.854 412.22C413.638 412.52 412.959 411.621 412.403 411.514C412.196 411.471 410.04 411.802 409.418 413.288L407.004 417.619C406.556 418.4 406.332 419.427 406.216 420.379C406.141 420.978 406.216 421.609 406.299 422.272L406.299 422.304C406.944 427.631 407.366 433.055 407.539 438.435C406.094 447.794 404.326 457.506 403.114 466.919C401.91 476.203 401.667 485.52 403.05 494.794C404.226 502.699 406.679 509.888 409.222 517.238C411.733 524.501 414.227 531.808 417.484 538.623C418.893 541.565 420.468 544.208 422.35 546.722C423.618 548.423 425.035 549.911 426.328 551.58C427.671 553.302 428.923 555.143 430.075 557.058C431.036 558.663 432.155 560.46 432.304 562.503C432.436 564.343 432.112 566.151 431.979 567.98C431.83 570.055 431.954 572.183 432.036 574.259C432.201 578.473 432.515 582.688 433.078 586.849C434.188 595.096 435.736 603.237 436.746 611.495C437.748 619.614 438.31 627.861 437.728 636.055C437.586 638.012 437.37 639.959 437.229 641.916C437.088 643.959 437.129 646.013 437.029 648.056C436.929 650.099 436.373 652.816 435.701 655.458C453.01 666.834 474.393 669.858 493.62 669.127C493.835 669.117 494.059 669.267 493.976 669.566C493.387 671.62 489.954 673.747 488.437 674.474C485.684 675.799 482.724 676.493 479.797 676.974C472.617 678.148 464.914 678.23 457.958 675.575C447.247 671.485 458.058 674.762 458.423 674.891C464.956 677.193 472.061 677.324 478.777 676.385C481.696 675.98 484.656 675.349 487.434 674.152C488.827 673.554 490.875 672.667 491.646 670.924C472.328 671.612 452.205 669.958 434.879 658.538C434.705 659.137 434.539 659.715 434.373 660.249C434.323 660.185 434.274 660.121 434.224 660.057C432.647 668.079 430.896 676.09 429.767 684.219C428.994 689.834 428.803 695.45 429.34 701.108C429.862 706.564 430.441 711.174 431.717 716.566C432.116 712.501 433.916 707.678 436.387 704.833C441.902 698.514 450.143 700.774 456.252 705.589C457.952 706.927 459.502 708.521 460.961 710.223C462.121 711.581 463.448 713.037 464.434 714.674C463.821 709.56 463.872 704.383 464.296 699.217C464.329 698.821 466.203 700.255 466.161 700.715C465.646 706.983 465.695 713.284 466.813 719.456C466.829 719.552 466.77 723.414 466.836 725.179C466.943 727.906 467.092 729.554 467.639 732.196C467.656 732.207 472.695 739.45 482.362 741.368C489.492 742.783 496.74 738.485 501.666 732.09C501.691 732.058 501.733 731.01 501.791 730.978C502.514 721.694 501.769 715.778 501.165 706.504C500.537 696.93 499.735 687.282 497.656 677.996C497.333 676.712 497.051 675.418 496.811 674.134C494.046 655.04 498.652 632.964 501.317 614.267C501.682 611.689 501.973 609.101 502.314 606.523C502.546 604.748 502.671 602.673 503.359 601.058C504.488 598.384 507.248 599.198 509.047 600.29C511.974 602.056 513.872 605.404 515.737 608.55C517.817 612.048 520.163 615.172 523.056 617.687C524.506 618.95 526.048 620.042 527.657 620.951C528.469 621.412 529.306 621.818 530.152 622.193C530.625 622.407 531.246 622.557 531.595 623.039C531.644 623.103 534.762 621.146 536.246 620.676C536.719 620.527 541.462 618.849 536.321 620.997C534.43 621.788 532.838 622.718 531.254 625.103C531.254 625.103 530.334 626.953 530.002 627.531C528.982 629.295 527.961 631.049 526.941 632.814C524.884 636.364 522.952 639.615 519.884 641.935C517.52 643.731 514.792 645.923 511.89 645.644C509.411 645.408 507.388 644.755 504.942 645.834C503.126 646.636 501.476 647.972 499.975 649.437C498.54 650.849 496.343 651.789 497.072 654.346C497.602 656.207 498.357 657.127 499.666 657.973C499.666 657.973 507.499 668.822 512.997 664.257C513.553 663.797 513.86 662.995 514.349 662.439C515.585 661.027 517.111 660.033 518.554 658.985C525.61 653.853 532.667 648.732 539.732 643.6C542.867 641.323 546.582 639.185 548.672 635.367C549.667 633.442 550.091 630.929 549.875 628.49Z" fill="#188294"></path>
<path d="M483.817 743.759C477.208 743.447 470.949 739.487 466.755 733.281C467.103 735.292 467.649 737.239 468.404 739.122C469.547 741.968 470.906 744.643 471.188 747.873C471.477 751.104 470.937 754.409 470.481 757.575C470.456 757.757 470.423 757.939 470.398 758.131C470.629 762.485 470.661 766.838 470.843 771.192C470.95 773.61 471.082 776.027 471.363 778.413C471.636 780.745 472.249 783.034 472.373 785.387C472.605 789.762 471.211 793.912 470.041 797.966C469.352 800.351 468.705 802.779 468.472 805.303C468.223 808.01 468.587 810.652 469.026 813.294C469.067 813.326 469.1 813.369 469.1 813.433C469.771 819.017 470.449 824.601 471.12 830.185C471.385 832.389 471.475 834.207 471.002 836.378C470.645 838.004 470.032 839.384 469.509 840.913C468.978 842.486 468.837 843.17 468.737 845.01C468.728 845.31 468.703 845.802 468.687 846.369C468.662 847.074 468.57 849.556 468.562 849.877C468.519 853.578 469.431 857.076 469.272 860.767C469.131 864.147 469.122 867.655 468.739 871.003C468.415 873.913 467.843 876.79 467.403 879.678C466.987 882.384 466.605 884.962 466.953 887.69C467.21 889.733 467.176 892.108 468.229 893.83C469.621 896.109 472.166 896.923 474.355 897.266C476.735 897.641 479.363 897.567 481.627 896.487C484.289 895.226 485.442 891.643 485.833 888.391C486.149 885.728 486.332 882.893 486.291 880.198C486.209 875.01 485.655 869.789 485.133 864.644C484.926 862.59 484.728 860.536 484.422 858.504C484.297 857.648 484.132 856.857 484.032 856.022C483.236 857.017 482.224 857.733 481.08 858.043C479.206 858.556 477.2 857.999 475.6 856.715C474.738 856.03 474 855.174 473.32 854.254C474.09 857.57 475.931 860.491 478.426 862.128C479.122 862.578 477.572 863.454 477.082 863.133C473.426 860.747 471.147 855.932 471.24 850.862C471.248 850.252 472.591 849.868 472.873 850.328C474.68 853.323 477.208 857.55 480.691 857.037C482.216 856.813 483.27 855.145 483.793 853.487C483.834 853.359 483.859 853.23 483.892 853.102C483.859 851.626 483.827 849.797 483.81 849.165C483.819 846.363 483.969 843.56 484.401 840.897C485.414 834.586 486.791 828.639 488.509 822.564C488.426 822.521 488.376 822.436 488.41 822.307C490.908 811.879 492.253 801.054 492.33 790.186C492.364 785.533 491.843 780.751 492.433 776.131C492.998 771.745 494.856 767.82 496.357 763.852C498 759.499 498.88 754.942 499.636 750.247C500.399 745.508 501.13 740.759 501.587 735.956C501.604 735.743 501.62 735.529 501.637 735.315C496.935 740.929 490.392 744.082 483.817 743.759ZM488.722 796.699C488.647 796.753 485.654 797.426 484.311 797.639C483.73 797.735 483.15 797.767 482.603 797.499C480.903 796.654 479.188 791.754 479.271 791.701C479.088 791.059 477.846 786.063 479.818 791.498C479.818 791.508 479.826 791.508 479.826 791.519C479.884 791.53 480.73 793.37 481.16 794.258C481.616 795.017 482.114 795.734 482.611 796.323C483.995 797.949 486.881 796.495 488.614 796.271C493.49 795.61 489.501 796.528 488.722 796.699Z" fill="#188294"></path>
<path d="M493.386 771.8L471.016 774.478C471.099 775.794 471.206 777.099 471.363 778.404C471.636 780.736 472.249 783.025 472.373 785.379C472.604 789.754 471.211 793.904 470.041 797.958C469.352 800.343 468.705 802.771 468.472 805.295C468.222 808.001 468.587 810.643 469.025 813.286C469.067 813.318 469.1 813.361 469.1 813.425C469.77 819.009 470.449 824.593 471.119 830.177C471.384 832.38 471.475 834.199 471.002 836.37C470.645 837.996 470.031 839.376 469.508 840.905C468.977 842.477 468.836 843.162 468.736 845.002C468.728 845.301 468.703 845.793 468.686 846.36C468.661 847.066 468.569 849.548 468.561 849.869C468.519 853.57 469.43 857.068 469.272 860.758C469.13 864.139 469.121 867.647 468.739 870.995C468.414 873.905 467.842 876.782 467.402 879.67C466.986 882.376 466.604 884.954 466.952 887.682C467.209 889.725 467.175 892.1 468.227 893.822C469.62 896.101 472.165 896.915 474.354 897.258C476.733 897.633 479.362 897.559 481.625 896.479C484.287 895.218 485.44 891.635 485.831 888.383C486.147 885.72 486.33 882.885 486.289 880.189C486.207 875.001 485.653 869.781 485.132 864.636C484.925 862.582 484.726 860.528 484.42 858.496C484.296 857.64 484.13 856.848 484.031 856.014C483.235 857.008 482.223 857.725 481.079 858.034C479.205 858.547 477.199 857.99 475.599 856.706C474.736 856.011 473.999 855.165 473.319 854.245C474.089 857.562 475.929 860.482 478.425 862.12C479.121 862.569 477.57 863.446 477.081 863.125C473.425 860.738 471.146 855.924 471.239 850.854C471.247 850.244 472.591 849.849 472.872 850.319C474.679 853.315 477.207 857.541 480.689 857.029C482.215 856.805 483.268 855.136 483.791 853.478C483.832 853.35 483.857 853.222 483.891 853.093C483.858 851.617 483.825 849.799 483.809 849.157C483.818 846.354 483.967 843.552 484.399 840.889C485.412 834.578 486.79 828.631 488.508 822.555C488.425 822.513 488.375 822.427 488.408 822.299C490.906 811.87 492.252 801.045 492.329 790.177C492.363 785.524 491.842 780.742 492.432 776.122C492.614 774.635 492.963 773.202 493.386 771.8ZM488.721 796.594C488.646 796.648 485.653 797.396 484.31 797.63C483.729 797.727 483.149 797.78 482.602 797.469C480.902 796.538 479.187 791.125 479.27 791.05C479.088 790.344 478.243 786.258 478.243 786.258C478.301 786.268 480.688 792.313 481.119 793.308C481.574 794.153 482.072 794.945 482.569 795.587C483.953 797.395 486.839 795.781 488.572 795.525C493.447 794.82 489.5 796.413 488.721 796.594Z" fill="#188294"></path>
<path d="M467.037 786.83C466.839 783.503 466.259 780.198 466.31 776.85C466.318 776.229 466.368 775.63 466.434 775.031L448.774 777.144C448.632 777.743 448.483 778.331 448.317 778.908C448.301 778.951 448.267 778.994 448.226 779.037C447.404 782.01 446.724 785.037 446.217 788.118C444.449 798.868 445.018 809.704 446.649 820.412C447.966 829.055 449.357 837.645 449.67 846.46C449.694 847.176 449.578 848.128 449.719 848.834C449.835 849.423 449.104 854.268 448.623 854.696C449.468 857.146 450.222 859.328 452.129 860.655C454.558 862.335 457.426 862.764 460.171 862.69C460.436 862.679 460.652 863.428 460.328 863.663C457.019 866.133 453.131 866.817 449.408 865.521C448.927 865.35 444.285 863.156 449.881 864.89C452.982 865.854 456.182 865.566 459.001 863.802C456.522 863.759 454.01 863.287 451.797 861.864C449.733 860.547 448.456 858.493 447.371 856.129C446.69 857.252 446.367 858.653 446.226 860.022C445.968 862.504 446.241 865.028 446.033 867.531C445.276 876.666 442.779 885.447 442.022 894.582C441.715 898.273 441.556 902.412 442.84 905.878C443.752 908.328 445.211 910.393 447.482 910.693C449.696 910.983 452.125 911.027 454.347 910.931C456.006 910.867 457.805 910.504 459.016 908.964C459.854 907.895 460.268 906.429 460.584 905.028C461.323 901.712 461.307 898.257 461.084 894.856C460.877 891.679 460.488 888.523 460.323 885.346C460.142 881.923 460.333 878.521 460.583 875.109C460.691 873.654 460.757 872.157 461.073 870.745C461.38 869.376 462.077 868.242 462.45 866.905C462.931 865.183 462.633 863.472 462.352 861.749C462.095 860.198 461.946 858.647 461.772 857.075C461.077 850.507 459.943 843.896 460.086 837.242C460.312 826.214 465.994 816.845 467.381 806.117C467.771 803.122 467.581 800.244 467.441 797.228C467.284 793.772 467.252 790.296 467.037 786.83ZM464.678 803.388C464.238 808.095 462.761 812.523 462.213 817.208C462.179 817.475 461.291 824.064 461.682 817.582C461.831 818.427 464.291 794.157 463.694 792.359C462.809 785.256 464.225 792.103 464.25 792.338C464.713 795.922 465.011 799.762 464.678 803.388ZM465.008 777.577C464.975 777.609 464.925 777.641 464.867 777.673C464.676 777.758 464.502 777.865 464.328 777.972C462.893 778.956 461.972 780.635 461.242 782.443C460.761 783.619 460.396 786.047 459.351 786.689C459.326 786.699 459.301 786.71 459.285 786.721C459.26 786.742 459.235 786.763 459.21 786.774C457.386 787.886 454.311 782.815 454.385 782.74C454.004 781.798 452.223 777.241 454.759 782.216C455.397 783.339 456.267 784.42 456.707 784.869C457.146 785.319 458.141 786.303 458.746 786.186C458.779 786.175 458.82 786.164 458.854 786.143C459.559 785.555 460.023 783.266 460.339 782.474C461.268 780.175 462.529 778.143 464.535 777.191C464.552 777.181 464.568 777.181 464.585 777.17C464.618 777.149 464.651 777.117 464.684 777.095C467.297 775.16 465.53 777.331 465.008 777.577Z" fill="#188294"></path>
<path d="M434.806 658.599C434.632 659.198 434.192 660.193 434.151 660.128C432.947 666.256 431.644 672.374 430.59 678.544L457.145 675.367C447.728 671.727 457.999 674.843 458.355 674.961C458.554 675.025 458.753 675.079 458.952 675.143L491.426 671.251C491.475 671.166 491.533 671.08 491.575 670.995C472.258 671.683 452.138 670.028 434.806 658.599Z" fill="#188294"></path>
<path d="M409.158 517.292C411.669 524.556 414.163 531.863 417.42 538.678C418.828 541.62 420.403 544.262 422.285 546.777C423.553 548.478 424.97 549.965 426.263 551.634C427.606 553.357 428.857 555.197 430.009 557.112C430.971 558.717 432.089 560.514 432.238 562.558C432.371 564.397 432.047 566.205 431.914 568.034C431.764 570.109 431.888 572.238 431.97 574.313C432.135 578.528 432.449 582.742 433.012 586.903C434.121 595.151 435.67 603.291 436.68 611.55C437.681 619.669 438.243 627.916 437.661 636.109C437.52 638.067 437.419 642.816 437.319 644.87C437.219 646.913 436.663 649.63 435.991 652.271C453.3 663.648 474.332 669.912 493.55 669.181C493.765 669.17 493.989 669.32 493.906 669.619C493.774 670.09 493.475 670.571 493.102 671.031L496.302 670.647C494.524 652.398 498.731 631.873 501.231 614.31C501.596 611.732 501.887 609.143 502.227 606.566C502.46 604.79 502.585 602.715 503.273 601.1C504.401 598.426 507.162 599.24 508.961 600.332C511.887 602.098 513.785 605.446 515.65 608.592C517.73 612.09 520.076 615.214 522.968 617.729C524.419 618.992 525.961 620.083 527.569 621.004C528.382 621.464 529.219 621.871 530.064 622.245C530.537 622.46 531.159 622.61 531.507 623.091C531.557 623.155 534.674 621.199 536.158 620.729C536.631 620.579 541.374 618.901 536.233 621.049C534.342 621.84 532.75 622.77 531.166 625.155C531.166 625.155 530.246 627.006 529.914 627.583C528.894 629.348 527.874 631.102 526.854 632.866C524.797 636.417 522.864 639.657 519.796 641.988C517.433 643.784 514.705 645.976 511.803 645.697C509.324 645.461 507.301 644.808 504.855 645.887C503.039 646.689 501.389 648.025 499.888 649.49C498.454 650.902 496.256 651.842 496.986 654.399C497.516 656.261 498.27 657.181 499.58 658.026C499.58 658.026 507.412 668.875 512.91 664.31C513.465 663.85 513.772 663.058 514.262 662.492C515.497 661.08 517.023 660.086 518.466 659.038C525.522 653.906 532.579 648.785 539.644 643.653C542.778 641.375 546.493 639.237 548.583 635.409C549.67 633.409 550.093 630.906 549.878 628.467C549.456 623.664 543.098 618.025 541.026 614.922C538.913 611.755 537.264 608.257 535.374 604.908C533.518 601.624 528.561 595.685 525.014 591.673C523.016 589.415 516.975 578.246 513.469 572.982C511.587 570.157 509.391 567.29 506.531 566.037C503.671 564.785 500.537 564.763 497.635 563.564C497.196 563.382 496.773 563.189 496.342 562.985C493.903 570.633 492.998 579.051 495.118 587.074C498.506 599.9 494.438 587.748 494.314 587.341C491.804 579.072 492.071 570.119 494.709 562.172C493.076 561.294 491.493 560.288 489.934 559.229C488.515 566.556 484.791 572.598 479.318 576.928C474.442 580.799 468.183 580.572 463.74 576.057C464.543 580.378 467.809 583.62 471.515 583.857C483.537 584.631 471.93 584.638 471.457 584.627C466.98 584.604 463.117 580.303 462.762 574.805C462.737 574.452 463.301 574.259 463.483 574.473C468.009 580.005 474.816 580.211 479.824 575.527C484.443 571.218 486.575 564.426 487.688 557.645C485.591 556.157 483.485 554.616 481.562 552.84C481.504 552.819 481.454 552.787 481.446 552.722C480.858 549.214 481.141 545.705 481.913 542.261C482.311 540.507 482.817 538.796 483.373 537.117C483.655 536.272 483.746 535.929 484.434 535.63C485.156 535.31 485.993 535.791 486.731 535.567C487.436 535.353 488.331 534.562 488.912 533.963C489.418 533.45 489.7 532.348 489.916 531.61C490.413 529.909 490.77 528.113 490.945 526.316C491.053 525.214 491.152 524.679 490.365 524.144C490.1 523.962 490 524.144 489.776 523.823C489.32 523.17 489.719 521.833 489.827 521.138C490.042 519.79 490.209 518.421 490.325 517.052C490.591 513.865 490.575 510.624 490.153 507.446C489.391 501.681 487.229 496.3 483.515 492.565C479.321 488.36 474.131 487.192 469.065 489.651C466.495 490.902 464.073 492.602 461.619 494.152C460.375 494.943 458.866 495.648 458.261 497.338C457.846 498.493 457.895 499.809 457.497 500.975C457.008 502.419 456.087 503.595 455.548 505.017C455.092 506.226 454.76 507.509 454.569 508.836C454.154 511.67 454.418 514.494 455.214 517.19C455.52 518.228 455.777 519.062 455.337 520.089C455.055 520.741 454.467 521.094 454.35 521.928C454.251 522.634 454.433 523.383 454.623 524.036C455.005 525.352 455.493 526.453 455.418 527.887C455.344 529.277 454.862 530.785 455.434 532.112C456.105 533.685 457.905 532.316 458.344 533.996C458.692 535.354 458.725 536.948 458.749 538.36C458.839 542.714 458.192 547.195 456.16 550.831C456.16 550.874 456.118 550.938 456.002 551.013C455.463 551.345 454.999 551.43 454.576 551.323C454.069 557.955 451.008 563.88 448.553 569.794C446.313 575.195 444.007 581.056 439.505 584.103C439.09 584.381 444.68 573.323 446.92 567.836C449.326 561.954 451.474 555.782 451.608 549.118C451.095 548.337 450.647 547.385 450.183 546.647C448.5 543.972 447.755 542.41 445.658 540.227C442.085 536.525 438.181 533.176 434.948 529.014C435.138 532.073 435.063 535.218 435.295 538.202C435.683 543.198 436.835 547.969 438.036 552.783C441.589 567 437.372 553.478 437.231 553.05C435.657 548.396 434.879 543.465 434.49 538.469C434.251 535.314 433.762 530.629 433.117 526.446C433.092 526.403 433.067 526.371 433.042 526.339C433.001 526.275 433.017 526.2 433.067 526.136C433.042 525.986 433.017 525.826 432.992 525.676C430.904 519.845 427.133 515.213 424.597 509.692C421.448 502.845 419.784 494.79 419.006 486.992C418.551 482.457 417.574 475.921 417.193 473.717C416.423 469.288 416.2 464.785 416.177 460.26C416.177 460.207 416.201 460.153 416.243 460.11L416.168 460.11L416.719 442.162C416.753 440.964 416.795 439.723 417.06 438.514C417.45 436.749 418.288 435.231 419.101 433.755L419.192 433.584C422.244 428.044 425.156 421.959 427.901 415.959C429.22 413.071 430.506 410.205 431.75 407.435C432.754 405.2 435.349 402.473 433.393 400.868C432.755 400.343 431.113 401.188 429.537 405.37C428.956 406.364 427.646 408.064 425.099 413.487C425.016 413.669 424.975 412.834 424.975 412.834C425.498 410.952 425.946 407.55 426.61 403.668C427.266 401.005 427.034 400.63 427.391 399.422C428.312 395.796 428.304 394.448 427.326 394.137C426.107 393.752 425.46 393.976 424.589 398.073C423.925 401.196 424.414 400.266 423.452 402.918C422.83 404.201 421.577 408.159 421.087 410.127C420.589 412.127 420.523 412.726 420.283 412.779C418.699 413.132 418.699 412.597 417.539 411.238C417.191 410.724 416.146 410.382 415.516 410.638C414.811 410.916 414.247 411.675 413.874 412.189C413.658 412.488 412.979 411.589 412.423 411.482C412.216 411.439 410.069 411.77 409.438 413.257L407.025 417.588C406.577 418.369 406.353 419.396 406.236 420.348C406.162 420.947 406.236 421.578 406.319 422.241L406.319 422.273C406.964 427.6 407.386 433.024 407.559 438.404C406.114 447.763 404.346 457.475 403.134 466.888C401.93 476.172 401.687 485.489 403.07 494.763C404.171 502.754 406.615 509.932 409.158 517.292Z" fill="#188294"></path>
</svg>