<svg width="1006" height="1351" viewBox="0 0 1006 1351" fill="none" xmlns="http://www.w3.org/2000/svg">
<rect width="1006" height="1351" rx="503" fill="white"></rect>
<rect x="28" y="23" width="951" height="1305" rx="475.5" fill="#188294"></rect>
<rect x="49" y="44" width="910" height="1264" rx="455" fill="#188294"></rect>
<path d="M820.684 859.271C820.684 1033.81 678.996 1175.81 504.842 1175.81C330.688 1175.81 189 1033.81 189 859.271V490.538C189 316 330.688 174 504.842 174C678.996 174 820.684 316 820.684 490.538V859.271Z" fill="#E25737"></path>
<mask id="mask0_40_1137" style="mask-type:luminance" maskUnits="userSpaceOnUse" x="183" y="172" width="640" height="1009">
<path d="M183.74 172H822.562V1180.45H183.74V172Z" fill="white"></path>
</mask>
<g mask="url(#mask0_40_1137)">
<path d="M822.32 491.874V860.606C822.32 1036.97 679.161 1180.45 503.181 1180.45C327.202 1180.45 184.037 1036.97 184.037 860.606V491.874C184.037 315.506 327.202 172.031 503.181 172.031C679.161 172.031 822.32 315.506 822.32 491.874ZM190.642 860.606C190.642 1033.33 330.838 1173.83 503.181 1173.83C675.525 1173.83 815.721 1033.31 815.721 860.606V491.874C815.721 319.15 675.51 178.646 503.181 178.646C330.853 178.646 190.642 319.15 190.642 491.874V860.606Z" fill="#188294"></path>
</g>
<path d="M768.544 860.607C768.544 1007.81 649.06 1127.55 502.182 1127.55C355.305 1127.55 235.821 1007.81 235.821 860.607V491.874C235.821 344.673 355.305 224.926 502.182 224.926C649.06 224.926 768.544 344.673 768.544 491.874V860.607Z" fill="#E25737"></path>
<path d="M771.847 491.873V860.606C771.847 1009.63 650.871 1130.86 502.183 1130.86C353.49 1130.86 232.52 1009.63 232.52 860.606V491.873C232.52 342.858 353.49 221.615 502.183 221.615C650.871 221.615 771.847 342.858 771.847 491.873ZM239.119 860.606C239.119 1005.98 357.126 1124.25 502.183 1124.25C647.235 1124.25 765.247 1005.98 765.247 860.606V491.873C765.247 346.501 647.235 228.235 502.183 228.235C357.126 228.235 239.119 346.501 239.119 491.873V860.606Z" fill="#FEFEFE"></path>
<path d="M719.068 860.606C719.068 980.461 621.774 1077.97 502.183 1077.97C382.591 1077.97 285.297 980.461 285.297 860.606V491.873C285.297 372.019 382.591 274.51 502.183 274.51C621.774 274.51 719.068 372.019 719.068 491.873V860.606Z" fill="#E25737"></path>
<path d="M722.365 491.874V860.607C722.365 982.276 623.599 1081.28 502.182 1081.28C380.765 1081.28 281.999 982.276 281.999 860.607V491.874C281.999 370.205 380.765 271.206 502.182 271.206C623.599 271.206 722.365 370.19 722.365 491.874ZM288.599 860.607C288.599 978.632 384.416 1074.66 502.182 1074.66C619.948 1074.66 715.765 978.632 715.765 860.607V491.874C715.765 373.849 619.948 277.82 502.182 277.82C384.416 277.82 288.599 373.849 288.599 491.874V860.607Z" fill="#FEFEFE"></path>
<path d="M669.589 860.607C669.589 953.115 594.499 1028.38 502.184 1028.38C409.868 1028.38 334.778 953.125 334.778 860.607V491.874C334.778 399.371 409.868 324.1 502.184 324.1C594.499 324.1 669.589 399.371 669.589 491.874V860.607Z" fill="#E25737"></path>
<path d="M672.89 491.874V860.606C672.89 954.944 596.308 1031.69 502.182 1031.69C408.057 1031.69 331.475 954.944 331.475 860.606V491.874C331.475 397.541 408.057 320.795 502.182 320.795C596.308 320.795 672.89 397.541 672.89 491.874ZM338.074 860.606C338.074 951.3 411.693 1025.08 502.182 1025.08C592.672 1025.08 666.285 951.3 666.285 860.606V491.874C666.285 401.185 592.672 327.409 502.182 327.409C411.693 327.409 338.074 401.185 338.074 491.874V860.606Z" fill="#FEFEFE"></path>
<path d="M384 857.907V489.184C384 487.252 384.051 485.32 384.144 483.387C384.241 481.455 384.379 479.528 384.569 477.6C384.759 475.678 384.995 473.756 385.277 471.844C385.564 469.932 385.892 468.026 386.267 466.129C386.646 464.233 387.067 462.347 387.538 460.471C388.005 458.59 388.518 456.729 389.082 454.879C389.641 453.029 390.246 451.189 390.897 449.37C391.543 447.551 392.241 445.747 392.979 443.958C393.718 442.17 394.497 440.402 395.323 438.654C396.148 436.907 397.015 435.18 397.928 433.474C398.835 431.768 399.784 430.082 400.779 428.427C401.769 426.767 402.805 425.133 403.876 423.524C404.948 421.916 406.056 420.333 407.21 418.781C408.358 417.228 409.543 415.702 410.768 414.207C411.994 412.711 413.256 411.251 414.548 409.818C415.845 408.384 417.173 406.981 418.543 405.614C419.907 404.246 421.301 402.915 422.732 401.615C424.163 400.315 425.624 399.051 427.117 397.827C428.609 396.599 430.127 395.407 431.675 394.256C433.229 393.104 434.804 391.989 436.409 390.915C438.014 389.841 439.644 388.808 441.301 387.811C442.952 386.819 444.634 385.868 446.337 384.953C448.039 384.044 449.762 383.175 451.506 382.348C453.249 381.52 455.013 380.734 456.798 379.994C458.577 379.254 460.377 378.56 462.198 377.907C464.013 377.255 465.844 376.648 467.69 376.088C469.541 375.528 471.397 375.009 473.269 374.541C475.141 374.068 477.023 373.647 478.915 373.272C480.812 372.891 482.71 372.562 484.623 372.28C486.53 371.992 488.443 371.755 490.366 371.565C492.284 371.38 494.207 371.236 496.135 371.139C498.063 371.046 499.991 371 501.925 371C503.853 371 505.781 371.046 507.709 371.139C509.637 371.236 511.56 371.38 513.483 371.565C515.401 371.755 517.314 371.992 519.227 372.28C521.134 372.562 523.037 372.891 524.929 373.272C526.821 373.647 528.703 374.068 530.575 374.541C532.447 375.009 534.308 375.528 536.154 376.088C538.001 376.648 539.831 377.255 541.647 377.907C543.467 378.56 545.267 379.254 547.046 379.994C548.831 380.734 550.595 381.52 552.339 382.348C554.087 383.175 555.81 384.044 557.508 384.953C559.21 385.868 560.892 386.819 562.543 387.811C564.2 388.808 565.83 389.841 567.436 390.915C569.041 391.989 570.62 393.104 572.169 394.256C573.717 395.407 575.24 396.599 576.733 397.827C578.225 399.051 579.681 400.315 581.112 401.615C582.543 402.915 583.943 404.246 585.307 405.614C586.671 406.981 587.999 408.384 589.296 409.818C590.594 411.251 591.85 412.711 593.076 414.207C594.301 415.702 595.486 417.228 596.635 418.781C597.788 420.333 598.896 421.916 599.968 423.524C601.04 425.133 602.076 426.767 603.065 428.427C604.06 430.082 605.009 431.768 605.922 433.474C606.829 435.18 607.696 436.907 608.521 438.654C609.347 440.402 610.127 442.17 610.865 443.958C611.603 445.747 612.301 447.551 612.952 449.37C613.598 451.189 614.203 453.029 614.767 454.879C615.326 456.729 615.839 458.59 616.311 460.471C616.778 462.347 617.203 464.233 617.578 466.129C617.952 468.026 618.285 469.932 618.567 471.844C618.849 473.756 619.085 475.678 619.275 477.6C619.465 479.528 619.608 481.455 619.701 483.387C619.798 485.32 619.844 487.252 619.844 489.184V857.907C619.844 859.839 619.798 861.772 619.701 863.704C619.608 865.637 619.465 867.564 619.275 869.491C619.085 871.413 618.849 873.335 618.567 875.247C618.285 877.159 617.952 879.066 617.578 880.962C617.203 882.859 616.778 884.745 616.311 886.621C615.839 888.496 615.326 890.362 614.767 892.212C614.203 894.062 613.598 895.902 612.952 897.722C612.301 899.541 611.603 901.345 610.865 903.133C610.127 904.922 609.347 906.69 608.521 908.437C607.696 910.185 606.829 911.911 605.922 913.618C605.009 915.324 604.06 917.004 603.065 918.664C602.076 920.324 601.04 921.959 599.968 923.567C598.896 925.176 597.788 926.754 596.635 928.311C595.486 929.863 594.301 931.384 593.076 932.88C591.85 934.375 590.594 935.84 589.296 937.274C587.999 938.708 586.671 940.106 585.307 941.478C583.943 942.845 582.543 944.176 581.112 945.476C579.681 946.777 578.225 948.036 576.733 949.264C575.24 950.492 573.717 951.68 572.169 952.836C570.62 953.987 569.041 955.097 567.436 956.171C565.83 957.251 564.2 958.284 562.543 959.276C560.892 960.273 559.21 961.223 557.508 962.138C555.81 963.048 554.087 963.916 552.339 964.744C550.595 965.571 548.831 966.358 547.046 967.098C545.267 967.838 543.467 968.532 541.647 969.184C539.831 969.837 538.001 970.443 536.154 971.004C534.308 971.564 532.447 972.078 530.575 972.551C528.703 973.018 526.821 973.445 524.929 973.82C523.037 974.2 521.134 974.529 519.227 974.812C517.314 975.094 515.401 975.331 513.483 975.521C511.56 975.711 509.637 975.855 507.709 975.948C505.781 976.045 503.853 976.092 501.925 976.092C499.991 976.092 498.063 976.045 496.135 975.948C494.207 975.855 492.284 975.711 490.366 975.521C488.443 975.331 486.53 975.094 484.623 974.812C482.71 974.529 480.812 974.2 478.915 973.82C477.023 973.445 475.141 973.018 473.269 972.551C471.397 972.078 469.541 971.564 467.69 971.004C465.844 970.443 464.013 969.837 462.198 969.184C460.377 968.532 458.577 967.838 456.798 967.098C455.013 966.358 453.249 965.571 451.506 964.744C449.762 963.916 448.039 963.048 446.337 962.138C444.634 961.223 442.952 960.273 441.301 959.276C439.644 958.284 438.014 957.251 436.409 956.171C434.804 955.097 433.229 953.987 431.675 952.836C430.127 951.68 428.609 950.492 427.117 949.264C425.624 948.036 424.163 946.777 422.732 945.476C421.301 944.176 419.907 942.845 418.543 941.478C417.173 940.106 415.845 938.708 414.548 937.274C413.256 935.84 411.994 934.375 410.768 932.88C409.543 931.384 408.358 929.863 407.21 928.311C406.056 926.754 404.948 925.176 403.876 923.567C402.805 921.959 401.769 920.324 400.779 918.664C399.784 917.004 398.835 915.324 397.928 913.618C397.015 911.911 396.148 910.185 395.323 908.437C394.497 906.69 393.718 904.922 392.979 903.133C392.241 901.345 391.543 899.541 390.897 897.722C390.246 895.902 389.641 894.062 389.082 892.212C388.518 890.362 388.005 888.496 387.538 886.621C387.067 884.745 386.646 882.859 386.267 880.962C385.892 879.066 385.564 877.159 385.277 875.247C384.995 873.335 384.759 871.413 384.569 869.491C384.379 867.564 384.241 865.637 384.144 863.704C384.051 861.772 384 859.839 384 857.907Z" fill="#188294"></path>
<path d="M623.393 491.873V860.606C623.393 927.592 569.021 982.09 502.182 982.09C435.343 982.09 380.965 927.592 380.965 860.606V491.873C380.965 424.887 435.343 370.395 502.182 370.395C569.021 370.395 623.393 424.887 623.393 491.873ZM387.554 860.606C387.554 923.949 438.978 975.486 502.182 975.486C565.385 975.486 616.809 923.949 616.809 860.606V491.873C616.809 428.531 565.385 376.993 502.182 376.993C438.978 376.993 387.554 428.531 387.554 491.873V860.606Z" fill="#FEFEFE"></path>
<path d="M661.055 892.799L613.277 877.613L615.277 871.307L663.05 886.493L661.055 892.799Z" fill="#FEFEFE"></path>
<path d="M700.372 930.676L654.491 910.859L657.101 904.784L702.982 924.602L700.372 930.676Z" fill="#FEFEFE"></path>
<path d="M737.796 973.132L694.336 949.327L697.5 943.52L740.965 967.33L737.796 973.132Z" fill="#FEFEFE"></path>
<path d="M770.827 1012.38L732.612 989.316L736.017 983.647L774.232 1006.71L770.827 1012.38Z" fill="#FEFEFE"></path>
<line x1="76.5576" y1="632.708" x2="158.558" y2="632.708" stroke="#FEFEFE" stroke-width="8"></line>
<line x1="76" y1="649.708" x2="158" y2="649.708" stroke="#FEFEFE" stroke-width="8"></line>
<line x1="109" y1="735.708" x2="109" y2="653.708" stroke="#FEFEFE" stroke-width="8"></line>
<line x1="126" y1="735.708" x2="126" y2="653.708" stroke="#FEFEFE" stroke-width="8"></line>
<line x1="929" y1="735.708" x2="847" y2="735.708" stroke="#FEFEFE" stroke-width="8"></line>
<line x1="929.558" y1="718.708" x2="847.558" y2="718.708" stroke="#FEFEFE" stroke-width="8"></line>
<line x1="896.558" y1="632.708" x2="896.558" y2="714.708" stroke="#FEFEFE" stroke-width="8"></line>
<line x1="879.558" y1="632.708" x2="879.558" y2="714.708" stroke="#FEFEFE" stroke-width="8"></line>
<path d="M83.384 621.184C81.1853 621.184 79.3833 620.708 77.978 619.756C76.5727 618.804 75.7227 617.444 75.428 615.676L79.372 614.656C79.5307 615.449 79.7913 616.073 80.154 616.526C80.5393 616.979 81.004 617.308 81.548 617.512C82.1147 617.693 82.7267 617.784 83.384 617.784C84.3813 617.784 85.118 617.614 85.594 617.274C86.07 616.911 86.308 616.469 86.308 615.948C86.308 615.427 86.0813 615.03 85.628 614.758C85.1747 614.463 84.4493 614.225 83.452 614.044L82.5 613.874C81.3213 613.647 80.2447 613.341 79.27 612.956C78.2953 612.548 77.5133 611.993 76.924 611.29C76.3347 610.587 76.04 609.681 76.04 608.57C76.04 606.893 76.652 605.612 77.876 604.728C79.1 603.821 80.7093 603.368 82.704 603.368C84.5853 603.368 86.1493 603.787 87.396 604.626C88.6427 605.465 89.4587 606.564 89.844 607.924L85.866 609.148C85.6847 608.287 85.3107 607.675 84.744 607.312C84.2 606.949 83.52 606.768 82.704 606.768C81.888 606.768 81.2647 606.915 80.834 607.21C80.4033 607.482 80.188 607.867 80.188 608.366C80.188 608.91 80.4147 609.318 80.868 609.59C81.3213 609.839 81.9333 610.032 82.704 610.168L83.656 610.338C84.9253 610.565 86.07 610.871 87.09 611.256C88.1327 611.619 88.9487 612.151 89.538 612.854C90.15 613.534 90.456 614.463 90.456 615.642C90.456 617.41 89.81 618.781 88.518 619.756C87.2487 620.708 85.5373 621.184 83.384 621.184ZM94.2101 620.708V603.844H98.4941V620.708H94.2101ZM96.3521 601.872C95.5814 601.872 94.9241 601.623 94.3801 601.124C93.8587 600.625 93.5981 599.968 93.5981 599.152C93.5981 598.336 93.8587 597.679 94.3801 597.18C94.9241 596.681 95.5814 596.432 96.3521 596.432C97.1454 596.432 97.8027 596.681 98.3241 597.18C98.8454 597.679 99.1061 598.336 99.1061 599.152C99.1061 599.968 98.8454 600.625 98.3241 601.124C97.8027 601.623 97.1454 601.872 96.3521 601.872ZM103.241 620.708V603.844H107.457V606.054H108.069C108.341 605.465 108.851 604.909 109.599 604.388C110.347 603.844 111.481 603.572 112.999 603.572C114.314 603.572 115.459 603.878 116.433 604.49C117.431 605.079 118.201 605.907 118.745 606.972C119.289 608.015 119.561 609.239 119.561 610.644V620.708H115.277V610.984C115.277 609.715 114.96 608.763 114.325 608.128C113.713 607.493 112.829 607.176 111.673 607.176C110.359 607.176 109.339 607.618 108.613 608.502C107.888 609.363 107.525 610.576 107.525 612.14V620.708H103.241ZM132.115 621.184C130.483 621.184 128.998 620.844 127.661 620.164C126.346 619.484 125.303 618.498 124.533 617.206C123.762 615.914 123.377 614.35 123.377 612.514V612.038C123.377 610.202 123.762 608.638 124.533 607.346C125.303 606.054 126.346 605.068 127.661 604.388C128.998 603.708 130.483 603.368 132.115 603.368C133.724 603.368 135.107 603.651 136.263 604.218C137.419 604.785 138.348 605.567 139.051 606.564C139.776 607.539 140.252 608.649 140.479 609.896L136.331 610.78C136.24 610.1 136.036 609.488 135.719 608.944C135.401 608.4 134.948 607.969 134.359 607.652C133.792 607.335 133.078 607.176 132.217 607.176C131.355 607.176 130.573 607.369 129.871 607.754C129.191 608.117 128.647 608.672 128.239 609.42C127.853 610.145 127.661 611.041 127.661 612.106V612.446C127.661 613.511 127.853 614.418 128.239 615.166C128.647 615.891 129.191 616.447 129.871 616.832C130.573 617.195 131.355 617.376 132.217 617.376C133.509 617.376 134.483 617.047 135.141 616.39C135.821 615.71 136.251 614.826 136.433 613.738L140.581 614.724C140.286 615.925 139.776 617.025 139.051 618.022C138.348 618.997 137.419 619.767 136.263 620.334C135.107 620.901 133.724 621.184 132.115 621.184ZM151.798 621.184C150.121 621.184 148.636 620.833 147.344 620.13C146.075 619.405 145.078 618.396 144.352 617.104C143.65 615.789 143.298 614.248 143.298 612.48V612.072C143.298 610.304 143.65 608.774 144.352 607.482C145.055 606.167 146.041 605.159 147.31 604.456C148.58 603.731 150.053 603.368 151.73 603.368C153.385 603.368 154.824 603.742 156.048 604.49C157.272 605.215 158.224 606.235 158.904 607.55C159.584 608.842 159.924 610.349 159.924 612.072V613.534H147.65C147.696 614.69 148.126 615.631 148.942 616.356C149.758 617.081 150.756 617.444 151.934 617.444C153.136 617.444 154.02 617.183 154.586 616.662C155.153 616.141 155.584 615.563 155.878 614.928L159.38 616.764C159.063 617.353 158.598 617.999 157.986 618.702C157.397 619.382 156.604 619.971 155.606 620.47C154.609 620.946 153.34 621.184 151.798 621.184ZM147.684 610.338H155.572C155.482 609.363 155.085 608.581 154.382 607.992C153.702 607.403 152.807 607.108 151.696 607.108C150.54 607.108 149.622 607.403 148.942 607.992C148.262 608.581 147.843 609.363 147.684 610.338Z" fill="#FEFEFE"></path>
<path d="M847.428 773.708V770.852C847.428 769.197 847.7 767.826 848.244 766.738C848.788 765.627 849.57 764.721 850.59 764.018C851.633 763.293 852.902 762.703 854.398 762.25L856.676 761.536C857.515 761.264 858.217 760.935 858.784 760.55C859.351 760.142 859.781 759.655 860.076 759.088C860.393 758.521 860.552 757.875 860.552 757.15V757.014C860.552 755.881 860.167 754.985 859.396 754.328C858.625 753.648 857.571 753.308 856.234 753.308C854.919 753.308 853.854 753.671 853.038 754.396C852.245 755.099 851.848 756.119 851.848 757.456V758.068H847.496V757.524C847.496 755.801 847.881 754.339 848.652 753.138C849.423 751.937 850.465 751.019 851.78 750.384C853.117 749.749 854.602 749.432 856.234 749.432C857.866 749.432 859.339 749.749 860.654 750.384C861.969 750.996 863 751.869 863.748 753.002C864.519 754.113 864.904 755.427 864.904 756.946V757.286C864.904 758.805 864.587 760.097 863.952 761.162C863.34 762.205 862.501 763.066 861.436 763.746C860.371 764.403 859.158 764.947 857.798 765.378L855.622 766.058C854.647 766.353 853.888 766.681 853.344 767.044C852.8 767.384 852.415 767.769 852.188 768.2C851.984 768.608 851.882 769.107 851.882 769.696V769.832H864.7V773.708H847.428ZM877.204 774.184C874.393 774.184 872.138 773.413 870.438 771.872C868.738 770.308 867.888 767.951 867.888 764.8V758.816C867.888 755.756 868.738 753.433 870.438 751.846C872.138 750.237 874.393 749.432 877.204 749.432C880.037 749.432 882.292 750.237 883.97 751.846C885.67 753.433 886.52 755.756 886.52 758.816V764.8C886.52 767.951 885.67 770.308 883.97 771.872C882.292 773.413 880.037 774.184 877.204 774.184ZM877.204 770.308C878.904 770.308 880.15 769.843 880.944 768.914C881.76 767.985 882.168 766.659 882.168 764.936V758.612C882.168 756.867 881.714 755.552 880.808 754.668C879.924 753.761 878.722 753.308 877.204 753.308C875.64 753.308 874.416 753.773 873.532 754.702C872.67 755.631 872.24 756.935 872.24 758.612V764.936C872.24 766.727 872.648 768.075 873.464 768.982C874.302 769.866 875.549 770.308 877.204 770.308ZM897.006 773.708V753.104H896.394L893.198 760.652H888.642L893.504 749.908H901.358V773.708H897.006ZM913.807 774.184C911.994 774.184 910.385 773.912 908.979 773.368C907.597 772.824 906.509 772.042 905.715 771.022C904.945 769.979 904.559 768.755 904.559 767.35V766.942C904.559 765.854 904.752 764.959 905.137 764.256C905.523 763.531 905.999 762.964 906.565 762.556C907.155 762.148 907.71 761.865 908.231 761.706V761.094C907.71 760.913 907.189 760.618 906.667 760.21C906.146 759.802 905.715 759.258 905.375 758.578C905.058 757.898 904.899 757.082 904.899 756.13V755.722C904.899 754.475 905.262 753.387 905.987 752.458C906.735 751.506 907.778 750.769 909.115 750.248C910.453 749.704 912.017 749.432 913.807 749.432C915.598 749.432 917.162 749.704 918.499 750.248C919.837 750.769 920.868 751.506 921.593 752.458C922.341 753.387 922.715 754.475 922.715 755.722V756.13C922.715 757.082 922.545 757.898 922.205 758.578C921.888 759.258 921.469 759.802 920.947 760.21C920.449 760.618 919.927 760.913 919.383 761.094V761.706C919.927 761.865 920.483 762.148 921.049 762.556C921.616 762.964 922.092 763.531 922.477 764.256C922.863 764.959 923.055 765.854 923.055 766.942V767.35C923.055 768.755 922.659 769.979 921.865 771.022C921.095 772.042 920.007 772.824 918.601 773.368C917.219 773.912 915.621 774.184 913.807 774.184ZM913.807 770.308C915.371 770.308 916.573 770.013 917.411 769.424C918.273 768.812 918.703 768.007 918.703 767.01V766.738C918.703 765.741 918.284 764.947 917.445 764.358C916.629 763.746 915.417 763.44 913.807 763.44C912.221 763.44 911.008 763.746 910.169 764.358C909.331 764.947 908.911 765.741 908.911 766.738V767.01C908.911 768.007 909.331 768.812 910.169 769.424C911.031 770.013 912.243 770.308 913.807 770.308ZM913.807 759.564C915.258 759.564 916.38 759.303 917.173 758.782C917.967 758.261 918.363 757.524 918.363 756.572V756.3C918.363 755.348 917.955 754.611 917.139 754.09C916.323 753.569 915.213 753.308 913.807 753.308C912.402 753.308 911.291 753.569 910.475 754.09C909.659 754.611 909.251 755.348 909.251 756.3V756.572C909.251 757.524 909.648 758.261 910.441 758.782C911.235 759.303 912.357 759.564 913.807 759.564Z" fill="#FEFEFE"></path>
<path d="M500.043 811.406C499.845 808.079 499.265 804.774 499.316 801.426C499.358 798.227 500.27 795.265 500.918 792.206C501.208 790.847 501.474 789.489 501.723 788.12C498.315 787.134 495.969 782.801 493.814 779.485C491.335 775.676 490.051 771.033 489.355 766.283C489.314 766.026 489.2 756.442 490.16 766.016C490.64 770.766 492.115 775.355 494.569 779.132C496.5 782.096 499.079 784.867 502.088 786.034C502.263 784.986 502.437 783.948 502.595 782.9C502.595 782.879 502.603 782.857 502.603 782.836C502.628 782.665 502.661 782.483 502.686 782.312C503.176 778.974 503.749 775.477 503.319 772.075C502.938 769.016 501.57 766.437 500.493 763.698C499.399 760.928 498.761 757.975 498.562 754.905C498.562 754.884 498.562 754.873 498.571 754.852C498.173 752.552 497.925 750.22 497.867 747.856C497.834 746.422 497.951 744.978 497.852 743.555C497.728 741.737 497.056 740.368 496.086 739.009C493.218 734.986 489.819 731.08 485.806 728.865C481.27 726.36 475.947 726.561 471.725 729.94C467.719 733.137 465.396 738.912 465.577 744.742C465.577 744.796 465.561 744.849 465.536 744.892C465.859 746.079 466.199 747.245 466.572 748.401C468.047 752.969 470.152 757.205 472.092 761.496C474.164 766.085 476.236 770.675 478.109 775.393C479.858 779.811 481.549 784.369 482.286 789.225C483.006 794.018 482.64 798.917 481.321 803.505C481.304 803.548 481.271 803.591 481.229 803.633C480.408 806.607 479.727 809.634 479.221 812.714C477.452 823.464 478.022 834.3 479.654 845.008C480.97 853.652 482.362 862.242 482.675 871.056C482.7 871.773 482.583 872.724 482.724 873.431C482.84 874.019 483.238 874.5 483.329 875.153C483.462 876.051 483.32 877.036 482.914 877.806C482.582 878.426 482.101 878.854 481.628 879.292C482.474 881.742 483.228 883.924 485.135 885.251C487.564 886.932 490.433 887.36 493.178 887.287C493.443 887.276 493.659 888.025 493.335 888.26C490.026 890.73 486.137 891.413 482.414 890.117C481.933 889.946 477.29 887.752 482.887 889.486C485.988 890.45 489.189 890.163 492.008 888.399C489.529 888.355 487.017 887.883 484.803 886.46C482.738 885.143 481.462 883.089 480.376 880.725C479.696 881.848 479.372 883.249 479.231 884.618C478.973 887.1 479.246 889.624 479.038 892.127C478.282 901.262 475.784 910.043 475.028 919.178C474.72 922.868 474.562 927.008 475.846 930.474C476.758 932.924 478.217 934.989 480.489 935.289C482.703 935.579 485.133 935.622 487.355 935.527C489.013 935.463 490.813 935.1 492.024 933.56C492.862 932.491 493.277 931.026 493.592 929.625C494.331 926.309 494.315 922.854 494.092 919.452C493.885 916.275 493.496 913.119 493.331 909.942C493.149 906.519 493.34 903.118 493.59 899.706C493.698 898.251 493.765 896.753 494.08 895.342C494.387 893.972 495.084 892.839 495.457 891.502C495.939 889.78 495.641 888.068 495.359 886.346C495.102 884.795 494.953 883.244 494.78 881.671C494.084 875.103 492.95 868.492 493.092 861.839C493.318 850.8 499 841.442 500.387 830.703C500.778 827.708 500.588 824.831 500.447 821.814C500.291 818.348 500.258 814.872 500.043 811.406ZM485.685 791.131C485.851 789.997 486.831 783.397 486.207 791.034C486.29 791.067 486.141 792.757 486.132 793.548C486.207 795.003 486.555 796.426 487.616 797.228C489.133 798.384 491.289 797.529 492.989 797.808C493.52 797.894 498.139 798.623 492.856 798.428C492.757 798.492 491.886 798.449 491.546 798.449C490.883 798.492 490.195 798.545 489.523 798.523C488.437 798.534 487.375 798.384 486.521 797.549C485.029 796.083 485.602 791.195 485.685 791.131ZM497.685 827.964C497.244 832.67 495.767 837.098 495.219 841.783C495.186 842.051 494.297 848.639 494.688 842.157C494.837 843.002 497.297 818.732 496.7 816.935C495.814 809.832 497.231 816.679 497.256 816.914C497.719 820.497 498.017 824.338 497.685 827.964ZM498.013 802.153C497.98 802.185 497.931 802.217 497.873 802.249C497.682 802.334 497.508 802.441 497.333 802.548C495.899 803.532 494.978 805.211 494.248 807.018C493.767 808.205 493.401 810.623 492.356 811.264C492.331 811.275 492.306 811.286 492.29 811.296C492.265 811.318 492.24 811.339 492.215 811.35C490.391 812.462 487.315 807.39 487.39 807.315C487.009 806.374 485.227 801.816 487.763 806.791C488.401 807.915 489.272 808.995 489.711 809.445C490.151 809.894 491.146 810.879 491.751 810.761C491.784 810.751 491.826 810.74 491.859 810.718C492.564 810.13 493.029 807.841 493.344 807.05C494.273 804.751 495.534 802.719 497.541 801.767C497.557 801.757 497.574 801.757 497.591 801.746C497.624 801.725 497.657 801.692 497.69 801.671C500.303 799.736 498.536 801.907 498.013 802.153Z" fill="#FEFEFE"></path>
<path d="M582.876 653.065C582.454 648.262 576.096 642.623 574.024 639.52C571.91 636.353 570.261 632.854 568.371 629.506C566.515 626.221 561.558 620.272 558.01 616.27C556.012 614.013 549.97 602.843 546.464 597.579C544.583 594.755 542.386 591.887 539.526 590.635C536.666 589.382 533.532 589.36 530.63 588.161C530.191 587.979 529.768 587.786 529.337 587.583C526.898 595.23 525.992 603.648 528.113 611.671C531.501 624.497 527.433 612.344 527.309 611.938C524.798 603.669 525.065 594.716 527.704 586.769C526.07 585.891 524.487 584.885 522.928 583.826C521.509 591.152 517.785 597.195 512.312 601.525C507.436 605.395 501.176 605.168 496.733 600.653C497.537 604.975 500.803 608.217 504.509 608.453C516.531 609.228 504.923 609.234 504.451 609.224C499.973 609.201 496.111 604.899 495.755 599.401C495.73 599.048 496.294 598.856 496.477 599.07C501.002 604.591 507.809 604.807 512.818 600.124C517.437 595.815 519.569 589.023 520.682 582.242C518.585 580.754 516.479 579.213 514.556 577.437C514.498 577.416 514.448 577.383 514.44 577.319C513.852 573.811 514.134 570.302 514.906 566.858C515.304 565.104 515.811 563.393 516.366 561.714C516.648 560.869 516.74 560.526 517.428 560.227C518.149 559.906 518.987 560.388 519.725 560.164C520.429 559.95 521.325 559.159 521.906 558.56C522.411 558.047 522.694 556.945 522.909 556.207C523.407 554.507 523.764 552.71 523.938 550.913C524.046 549.811 524.146 549.276 523.359 548.741C523.093 548.559 522.994 548.741 522.77 548.42C522.314 547.767 522.712 546.43 522.82 545.735C523.036 544.387 523.202 543.018 523.319 541.649C523.585 538.462 523.569 535.221 523.146 532.044C522.385 526.278 520.222 520.897 516.508 517.162C512.314 512.957 507.124 511.789 502.057 514.248C499.487 515.498 497.065 517.198 494.611 518.748C493.367 519.539 491.858 520.245 491.252 521.935C490.838 523.09 490.887 524.405 490.489 525.571C489.999 527.015 489.079 528.191 488.54 529.614C488.083 530.822 487.751 532.117 487.56 533.432C487.145 536.267 487.41 539.091 488.205 541.786C488.512 542.824 488.769 543.659 488.329 544.685C488.047 545.338 487.458 545.69 487.342 546.525C487.243 547.231 487.425 547.98 487.615 548.632C487.997 549.948 488.485 551.05 488.411 552.483C488.336 553.874 487.854 555.382 488.426 556.708C489.098 558.281 490.897 556.912 491.328 558.592C491.676 559.951 491.709 561.544 491.733 562.956C491.823 567.31 491.176 571.791 489.144 575.428C489.144 575.47 489.102 575.535 488.986 575.609C488.447 575.941 487.983 576.026 487.56 575.919C487.053 582.551 483.992 588.476 481.537 594.39C479.297 599.791 476.991 605.652 472.488 608.699C472.074 608.977 478.966 598.657 481.205 593.17C483.611 587.288 485.76 581.117 485.894 574.453C485.38 573.672 484.932 572.72 484.468 571.982C482.786 569.307 480.738 567.006 478.641 564.834C475.068 561.132 471.164 557.782 467.931 553.62C468.121 556.68 468.046 559.824 468.278 562.809C468.666 567.804 469.818 572.575 471.019 577.389C474.573 591.606 470.355 578.084 470.215 577.656C468.64 573.003 467.862 568.071 467.473 563.076C467.233 559.92 466.745 555.235 466.099 551.052C466.075 551.01 466.05 550.978 466.025 550.946C465.983 550.881 466 550.806 466.05 550.742C466.025 550.593 466 550.432 465.975 550.282C463.887 544.452 460.115 539.819 457.58 534.299C454.43 527.452 452.765 519.397 451.988 511.598C451.533 507.063 450.556 500.527 450.175 498.323C449.404 493.895 449.182 489.391 449.158 484.867C449.158 484.813 449.182 484.76 449.224 484.717L449.149 484.717L449.7 466.768C449.734 465.57 449.775 464.329 450.041 463.121C450.431 461.356 451.269 459.837 452.082 458.362L452.173 458.19C455.225 452.651 458.137 446.565 460.882 440.566C462.201 437.678 463.487 434.812 464.731 432.042C465.735 429.807 468.33 427.08 466.374 425.475C465.736 424.95 464.094 425.795 462.518 429.976C461.937 430.971 460.627 432.671 458.08 438.094C457.997 438.275 457.956 437.441 457.956 437.441C458.479 435.559 458.927 432.157 459.591 428.275C460.247 425.611 460.015 425.237 460.371 424.028C461.293 420.403 461.285 419.055 460.306 418.744C459.087 418.359 458.441 418.594 457.569 422.68C456.905 425.803 457.395 424.872 456.432 427.525C455.81 428.808 454.558 432.765 454.068 434.733C453.57 436.734 453.504 437.333 453.263 437.386C451.68 437.738 451.68 437.204 450.519 435.845C450.171 435.331 449.126 434.988 448.496 435.245C447.791 435.523 447.227 436.282 446.854 436.795C446.639 437.095 445.959 436.196 445.403 436.089C445.196 436.046 443.04 436.377 442.418 437.863L440.005 442.195C439.557 442.975 439.333 444.002 439.216 444.954C439.142 445.553 439.216 446.184 439.299 446.847L439.299 446.88C439.945 452.207 440.366 457.63 440.539 463.01C439.095 472.369 437.327 482.081 436.114 491.494C434.91 500.778 434.668 510.095 436.05 519.369C437.226 527.274 439.679 534.463 442.223 541.813C444.733 549.077 447.228 556.383 450.485 563.198C451.894 566.14 453.468 568.783 455.35 571.297C456.618 572.999 458.036 574.486 459.329 576.155C460.671 577.878 461.923 579.718 463.075 581.633C464.037 583.238 465.155 585.035 465.304 587.078C465.437 588.918 465.113 590.726 464.98 592.555C464.83 594.63 464.954 596.759 465.037 598.834C465.202 603.048 465.516 607.263 466.079 611.424C467.188 619.672 468.737 627.812 469.747 636.07C470.748 644.189 471.31 652.437 470.728 660.63C470.587 662.587 470.371 664.534 470.229 666.492C470.088 668.535 470.129 670.588 470.029 672.631C469.929 674.674 469.373 677.391 468.701 680.033C486.011 691.41 507.393 694.434 526.62 693.702C526.836 693.692 527.06 693.842 526.977 694.141C526.388 696.195 522.955 698.322 521.437 699.049C518.684 700.374 515.724 701.069 512.797 701.549C505.617 702.723 497.914 702.806 490.959 700.15C480.247 696.061 491.058 699.338 491.423 699.466C497.956 701.768 505.062 701.899 511.778 700.96C514.696 700.555 517.656 699.925 520.434 698.728C521.827 698.129 523.875 697.242 524.647 695.499C505.328 696.187 485.206 694.533 467.88 683.113C467.705 683.712 467.539 684.29 467.374 684.825C467.324 684.76 467.274 684.696 467.224 684.632C465.647 692.654 463.896 700.665 462.767 708.794C461.995 714.409 461.803 720.025 462.341 725.684C462.862 731.139 463.441 735.75 464.717 741.141C465.116 737.077 466.916 732.253 469.387 729.409C474.902 723.089 483.143 725.349 489.253 730.165C490.952 731.502 492.502 733.097 493.961 734.798C495.122 736.157 496.448 737.612 497.434 739.249C496.822 734.136 496.873 728.959 497.297 723.792C497.33 723.396 499.203 724.83 499.162 725.29C498.646 731.558 498.695 737.859 499.813 744.031C499.829 744.127 499.771 747.989 499.837 749.754C499.944 752.481 500.093 754.129 500.639 756.771C500.656 756.782 505.696 764.025 515.363 765.943C522.493 767.358 529.74 763.06 534.666 756.665C534.691 756.633 534.733 755.585 534.791 755.553C535.514 746.269 534.769 740.353 534.166 731.079C533.538 721.505 532.735 711.857 530.656 702.571C530.333 701.288 530.052 699.993 529.811 698.71C527.046 679.615 531.652 657.539 534.317 638.842C534.683 636.265 534.974 633.676 535.314 631.098C535.547 629.323 535.671 627.248 536.36 625.633C537.488 622.959 540.249 623.773 542.048 624.865C544.974 626.631 546.872 629.979 548.737 633.125C550.817 636.623 553.163 639.748 556.056 642.262C557.507 643.525 559.049 644.617 560.657 645.527C561.47 645.987 562.307 646.394 563.152 646.768C563.625 646.982 564.247 647.132 564.595 647.614C564.645 647.678 567.763 645.722 569.247 645.251C569.719 645.102 574.462 643.424 569.321 645.572C567.431 646.363 565.839 647.293 564.255 649.678C564.255 649.678 563.334 651.528 563.002 652.106C561.982 653.87 560.962 655.624 559.942 657.389C557.885 660.939 555.952 664.19 552.884 666.51C550.521 668.307 547.792 670.498 544.891 670.219C542.412 669.983 540.389 669.33 537.942 670.409C536.127 671.211 534.476 672.547 532.975 674.012C531.541 675.424 529.343 676.364 530.072 678.921C530.603 680.782 531.357 681.703 532.667 682.548C532.667 682.548 540.5 693.397 545.998 688.832C546.553 688.372 546.86 687.57 547.35 687.014C548.585 685.602 550.111 684.608 551.554 683.56C558.611 678.428 565.668 673.307 572.733 668.176C575.867 665.898 579.582 663.76 581.672 659.942C582.668 658.017 583.091 655.504 582.876 653.065Z" fill="#FEFEFE"></path>
<path d="M516.817 768.334C510.208 768.022 503.949 764.062 499.755 757.856C500.103 759.868 500.65 761.815 501.404 763.697C502.547 766.543 503.906 769.218 504.188 772.448C504.477 775.679 503.938 778.984 503.481 782.15C503.456 782.332 503.423 782.514 503.398 782.706C503.629 787.06 503.661 791.414 503.843 795.767C503.95 798.185 504.082 800.602 504.363 802.988C504.637 805.32 505.25 807.609 505.373 809.962C505.605 814.338 504.211 818.487 503.041 822.541C502.352 824.926 501.705 827.354 501.472 829.879C501.223 832.585 501.587 835.227 502.026 837.869C502.067 837.901 502.1 837.944 502.1 838.008C502.771 843.592 503.449 849.176 504.12 854.76C504.385 856.964 504.476 858.782 504.002 860.954C503.646 862.579 503.032 863.959 502.509 865.489C501.978 867.061 501.837 867.745 501.737 869.585C501.729 869.885 501.704 870.377 501.687 870.944C501.662 871.65 501.57 874.131 501.562 874.452C501.519 878.153 502.431 881.651 502.272 885.342C502.131 888.722 502.122 892.23 501.74 895.578C501.416 898.488 500.843 901.365 500.403 904.253C499.988 906.959 499.606 909.537 499.953 912.265C500.21 914.308 500.176 916.683 501.229 918.405C502.621 920.684 505.167 921.498 507.355 921.841C509.735 922.216 512.364 922.142 514.627 921.063C517.289 919.801 518.443 916.218 518.833 912.966C519.149 910.303 519.332 907.469 519.291 904.773C519.209 899.585 518.655 894.365 518.133 889.219C517.927 887.166 517.728 885.112 517.422 883.079C517.298 882.223 517.132 881.432 517.033 880.597C516.236 881.592 515.225 882.308 514.08 882.618C512.206 883.131 510.2 882.574 508.6 881.29C507.738 880.605 507 879.749 506.32 878.829C507.091 882.145 508.931 885.066 511.426 886.703C512.122 887.153 510.572 888.029 510.083 887.708C506.427 885.322 504.147 880.507 504.24 875.437C504.248 874.828 505.591 874.443 505.873 874.903C507.68 877.899 510.208 882.125 513.691 881.612C515.217 881.388 516.27 879.72 516.793 878.062C516.834 877.934 516.859 877.805 516.892 877.677C516.859 876.201 516.827 874.372 516.81 873.741C516.819 870.938 516.969 868.136 517.401 865.472C518.414 859.161 519.791 853.214 521.509 847.139C521.426 847.096 521.376 847.011 521.41 846.882C523.908 836.454 525.253 825.629 525.33 814.761C525.364 810.108 524.843 805.327 525.433 800.706C525.998 796.32 527.856 792.395 529.358 788.427C531 784.074 531.88 779.518 532.636 774.822C533.4 770.083 534.13 765.334 534.587 760.532C534.604 760.318 534.621 760.104 534.637 759.89C529.935 765.504 523.392 768.657 516.817 768.334ZM521.722 821.274C521.647 821.328 518.654 822.001 517.311 822.214C516.73 822.31 516.15 822.342 515.603 822.075C513.903 821.229 512.188 816.329 512.271 816.276C512.088 815.634 510.846 810.638 512.818 816.073C512.818 816.084 512.826 816.084 512.826 816.094C512.884 816.105 513.73 817.945 514.161 818.833C514.616 819.593 515.114 820.31 515.611 820.898C516.996 822.524 519.881 821.071 521.614 820.847C526.49 820.185 522.501 821.104 521.722 821.274Z" fill="#FEFEFE"></path>
<path d="M526.386 796.376L504.016 799.053C504.099 800.369 504.206 801.674 504.363 802.979C504.637 805.311 505.25 807.601 505.373 809.954C505.605 814.329 504.211 818.479 503.041 822.533C502.352 824.918 501.705 827.346 501.472 829.87C501.223 832.576 501.587 835.219 502.026 837.861C502.067 837.893 502.1 837.936 502.1 838C502.77 843.584 503.449 849.168 504.119 854.752C504.384 856.956 504.475 858.774 504.002 860.945C503.645 862.571 503.031 863.951 502.508 865.48C501.977 867.053 501.836 867.737 501.736 869.577C501.728 869.876 501.703 870.369 501.686 870.935C501.661 871.641 501.569 874.123 501.561 874.444C501.519 878.145 502.43 881.643 502.272 885.334C502.13 888.714 502.121 892.222 501.739 895.57C501.415 898.48 500.842 901.357 500.402 904.245C499.987 906.951 499.605 909.529 499.952 912.257C500.209 914.3 500.175 916.675 501.228 918.397C502.62 920.676 505.165 921.49 507.354 921.833C509.733 922.208 512.362 922.134 514.625 921.054C517.287 919.793 518.441 916.21 518.831 912.958C519.147 910.295 519.33 907.46 519.289 904.764C519.207 899.576 518.653 894.356 518.132 889.211C517.925 887.157 517.726 885.103 517.42 883.071C517.296 882.215 517.13 881.423 517.031 880.589C516.235 881.583 515.223 882.3 514.079 882.61C512.205 883.123 510.199 882.566 508.599 881.282C507.737 880.586 506.999 879.741 506.319 878.821C507.09 882.137 508.929 885.058 511.425 886.695C512.121 887.145 510.57 888.021 510.081 887.7C506.426 885.314 504.147 880.499 504.239 875.429C504.247 874.819 505.591 874.424 505.872 874.895C507.679 877.89 510.207 882.116 513.689 881.604C515.215 881.38 516.268 879.712 516.791 878.054C516.833 877.925 516.858 877.797 516.891 877.669C516.858 876.192 516.825 874.374 516.809 873.732C516.818 870.93 516.968 868.127 517.399 865.464C518.412 859.153 519.79 853.206 521.508 847.131C521.425 847.088 521.375 847.002 521.408 846.874C523.906 836.445 525.252 825.62 525.329 814.752C525.363 810.099 524.842 805.318 525.432 800.697C525.615 799.21 525.963 797.777 526.386 796.376ZM521.721 821.169C521.646 821.223 518.653 821.971 517.31 822.206C516.729 822.302 516.149 822.355 515.602 822.045C513.902 821.113 512.187 815.7 512.27 815.625C512.088 814.919 511.243 810.833 511.243 810.833C511.301 810.844 513.688 816.888 514.119 817.883C514.575 818.728 515.072 819.52 515.569 820.162C516.953 821.97 519.839 820.356 521.572 820.1C526.447 819.395 522.5 820.988 521.721 821.169Z" fill="#FEFEFE"></path>
<path d="M500.037 811.405C499.839 808.078 499.259 804.773 499.31 801.425C499.318 800.804 499.368 800.205 499.435 799.606L481.774 801.719C481.633 802.318 481.483 802.906 481.317 803.484C481.301 803.526 481.268 803.569 481.226 803.612C480.405 806.585 479.724 809.612 479.218 812.693C477.449 823.443 478.019 834.279 479.65 844.987C480.966 853.63 482.357 862.22 482.67 871.035C482.695 871.751 482.578 872.703 482.719 873.409C482.835 873.998 482.104 878.843 481.623 879.271C482.468 881.721 483.222 883.903 485.129 885.23C487.558 886.91 490.427 887.339 493.171 887.265C493.436 887.255 493.652 888.003 493.328 888.239C490.02 890.709 486.131 891.392 482.408 890.096C481.927 889.925 477.285 887.731 482.881 889.465C485.982 890.429 489.182 890.141 492.002 888.377C489.523 888.334 487.011 887.862 484.797 886.439C482.733 885.123 481.456 883.068 480.371 880.704C479.691 881.827 479.367 883.228 479.226 884.597C478.968 887.079 479.241 889.603 479.033 892.106C478.277 901.241 475.779 910.023 475.022 919.157C474.715 922.848 474.556 926.987 475.841 930.454C476.752 932.903 478.211 934.968 480.483 935.269C482.696 935.558 485.126 935.602 487.348 935.506C489.006 935.442 490.805 935.079 492.016 933.539C492.854 932.47 493.269 931.005 493.584 929.603C494.323 926.288 494.307 922.833 494.084 919.431C493.877 916.254 493.488 913.098 493.323 909.921C493.142 906.498 493.333 903.097 493.583 899.684C493.691 898.23 493.758 896.732 494.073 895.32C494.38 893.951 495.077 892.817 495.45 891.48C495.931 889.758 495.633 888.047 495.352 886.325C495.095 884.773 494.946 883.222 494.773 881.65C494.078 875.082 492.943 868.471 493.086 861.817C493.312 850.789 498.994 841.42 500.381 830.692C500.771 827.697 500.581 824.819 500.441 821.803C500.284 818.348 500.252 814.871 500.037 811.405ZM497.679 827.963C497.238 832.67 495.761 837.098 495.213 841.783C495.18 842.05 494.291 848.639 494.682 842.157C494.831 843.002 497.291 818.732 496.695 816.934C495.809 809.831 497.225 816.678 497.25 816.913C497.714 820.497 498.011 824.337 497.679 827.963ZM498.008 802.152C497.975 802.184 497.925 802.216 497.867 802.248C497.676 802.334 497.502 802.44 497.328 802.547C495.893 803.531 494.973 805.21 494.243 807.018C493.761 808.194 493.396 810.622 492.351 811.264C492.326 811.274 492.301 811.285 492.285 811.296C492.26 811.317 492.235 811.339 492.21 811.349C490.386 812.461 487.311 807.39 487.386 807.315C487.005 806.374 485.223 801.816 487.759 806.791C488.397 807.914 489.267 808.995 489.707 809.444C490.146 809.894 491.141 810.878 491.746 810.761C491.779 810.75 491.821 810.739 491.854 810.718C492.559 810.13 493.024 807.841 493.339 807.05C494.268 804.75 495.529 802.718 497.535 801.767C497.552 801.756 497.569 801.756 497.585 801.745C497.618 801.724 497.652 801.692 497.685 801.67C500.297 799.735 498.53 801.906 498.008 802.152Z" fill="#FEFEFE"></path>
<path d="M467.806 683.174C467.631 683.773 467.192 684.768 467.15 684.704C465.947 690.832 464.644 696.949 463.59 703.12L490.144 699.942C480.727 696.302 490.998 699.418 491.355 699.536C491.554 699.6 491.753 699.654 491.952 699.718L524.426 695.826C524.475 695.741 524.533 695.655 524.575 695.57C505.258 696.258 485.138 694.603 467.806 683.174Z" fill="#FEFEFE"></path>
<path d="M442.158 541.868C444.669 549.131 447.163 556.438 450.42 563.253C451.828 566.195 453.403 568.838 455.285 571.352C456.553 573.053 457.97 574.54 459.263 576.209C460.606 577.932 461.857 579.772 463.009 581.687C463.971 583.292 465.089 585.09 465.238 587.133C465.371 588.973 465.047 590.78 464.914 592.609C464.764 594.684 464.888 596.813 464.97 598.888C465.135 603.103 465.449 607.317 466.012 611.479C467.121 619.726 468.67 627.867 469.68 636.125C470.681 644.244 471.243 652.491 470.661 660.685C470.52 662.642 470.419 667.391 470.319 669.445C470.219 671.488 469.663 674.205 468.991 676.847C486.3 688.223 507.332 694.488 526.55 693.756C526.765 693.745 526.989 693.895 526.906 694.195C526.774 694.665 526.475 695.146 526.102 695.606L529.302 695.222C527.524 676.973 531.731 656.448 534.231 638.885C534.596 636.307 534.887 633.719 535.227 631.141C535.46 629.365 535.585 627.29 536.273 625.675C537.401 623.001 540.162 623.815 541.961 624.907C544.887 626.673 546.785 630.021 548.65 633.167C550.73 636.665 553.076 639.79 555.968 642.304C557.419 643.567 558.961 644.659 560.569 645.579C561.382 646.039 562.219 646.446 563.064 646.821C563.537 647.035 564.159 647.185 564.507 647.666C564.557 647.73 567.674 645.774 569.158 645.304C569.631 645.154 574.374 643.476 569.233 645.625C567.342 646.416 565.75 647.346 564.166 649.73C564.166 649.73 563.246 651.581 562.914 652.158C561.894 653.923 560.874 655.677 559.854 657.441C557.797 660.992 555.864 664.232 552.796 666.563C550.433 668.359 547.705 670.551 544.803 670.272C542.324 670.036 540.301 669.383 537.855 670.462C536.039 671.264 534.389 672.601 532.888 674.066C531.454 675.477 529.256 676.418 529.986 678.974C530.516 680.836 531.27 681.756 532.58 682.601C532.58 682.601 540.412 693.45 545.91 688.885C546.465 688.425 546.772 687.634 547.262 687.067C548.497 685.655 550.023 684.661 551.466 683.613C558.522 678.481 565.579 673.36 572.644 668.228C575.778 665.95 579.493 663.812 581.583 659.984C582.67 657.984 583.093 655.481 582.878 653.042C582.456 648.239 576.098 642.6 574.026 639.497C571.913 636.33 570.264 632.832 568.374 629.483C566.518 626.199 561.561 620.26 558.014 616.248C556.016 613.99 549.975 602.821 546.469 597.557C544.587 594.733 542.391 591.865 539.531 590.613C536.671 589.36 533.537 589.338 530.635 588.139C530.196 587.957 529.773 587.764 529.342 587.561C526.903 595.208 525.998 603.626 528.118 611.649C531.506 624.475 527.438 612.323 527.314 611.916C524.804 603.647 525.071 594.694 527.709 586.747C526.076 585.87 524.493 584.864 522.934 583.804C521.515 591.131 517.791 597.173 512.318 601.503C507.442 605.374 501.183 605.147 496.74 600.632C497.543 604.953 500.809 608.196 504.515 608.432C516.537 609.206 504.93 609.213 504.457 609.202C499.98 609.179 496.117 604.878 495.762 599.38C495.737 599.027 496.301 598.835 496.483 599.049C501.009 604.58 507.816 604.786 512.824 600.102C517.443 595.793 519.575 589.001 520.688 582.22C518.591 580.733 516.485 579.192 514.562 577.415C514.504 577.394 514.454 577.362 514.446 577.298C513.858 573.789 514.141 570.281 514.913 566.836C515.311 565.082 515.817 563.371 516.373 561.692C516.655 560.847 516.746 560.505 517.434 560.205C518.156 559.885 518.993 560.366 519.731 560.142C520.436 559.928 521.331 559.137 521.912 558.538C522.418 558.025 522.7 556.923 522.916 556.185C523.413 554.485 523.77 552.688 523.945 550.891C524.053 549.789 524.152 549.254 523.365 548.719C523.1 548.537 523 548.719 522.776 548.398C522.32 547.745 522.719 546.409 522.827 545.713C523.042 544.366 523.209 542.996 523.325 541.627C523.591 538.44 523.575 535.199 523.153 532.022C522.391 526.256 520.229 520.875 516.515 517.14C512.321 512.935 507.131 511.768 502.065 514.226C499.495 515.477 497.073 517.177 494.619 518.727C493.375 519.518 491.866 520.224 491.261 521.913C490.846 523.068 490.895 524.384 490.497 525.55C490.008 526.994 489.087 528.17 488.548 529.593C488.092 530.801 487.76 532.085 487.569 533.411C487.154 536.245 487.418 539.069 488.214 541.765C488.52 542.803 488.777 543.637 488.337 544.664C488.055 545.317 487.467 545.669 487.35 546.504C487.251 547.21 487.433 547.958 487.623 548.611C488.005 549.927 488.493 551.029 488.418 552.462C488.344 553.853 487.862 555.361 488.434 556.687C489.105 558.26 490.905 556.891 491.344 558.571C491.692 559.929 491.725 561.523 491.749 562.935C491.839 567.289 491.192 571.77 489.16 575.407C489.16 575.449 489.118 575.513 489.002 575.588C488.463 575.92 487.999 576.005 487.576 575.898C487.069 582.53 484.008 588.455 481.553 594.369C479.313 599.77 477.007 605.631 472.505 608.678C472.09 608.956 477.68 597.898 479.92 592.411C482.326 586.529 484.474 580.358 484.608 573.694C484.095 572.913 483.647 571.96 483.183 571.222C481.5 568.547 480.755 566.985 478.658 564.803C475.085 561.1 471.181 557.751 467.948 553.589C468.138 556.648 468.063 559.793 468.295 562.778C468.683 567.773 469.835 572.544 471.036 577.358C474.589 591.575 470.372 578.053 470.231 577.625C468.657 572.972 467.879 568.04 467.49 563.045C467.251 559.889 466.762 555.204 466.117 551.021C466.092 550.978 466.067 550.946 466.042 550.914C466.001 550.85 466.017 550.775 466.067 550.711C466.042 550.561 466.017 550.401 465.992 550.251C463.904 544.421 460.133 539.788 457.597 534.267C454.448 527.42 452.784 519.365 452.006 511.567C451.551 507.032 450.574 500.496 450.193 498.292C449.423 493.863 449.2 489.36 449.177 484.835C449.177 484.782 449.201 484.728 449.243 484.686L449.168 484.686L449.719 466.737C449.753 465.539 449.795 464.298 450.06 463.089C450.45 461.325 451.288 459.806 452.101 458.33L452.192 458.159C455.244 452.619 458.156 446.534 460.901 440.534C462.22 437.646 463.506 434.78 464.75 432.01C465.754 429.775 468.349 427.048 466.393 425.443C465.755 424.918 464.113 425.763 462.537 429.945C461.956 430.939 460.646 432.64 458.099 438.062C458.016 438.244 457.975 437.409 457.975 437.409C458.498 435.527 458.946 432.126 459.61 428.243C460.266 425.58 460.034 425.205 460.391 423.997C461.312 420.371 461.304 419.023 460.326 418.713C459.107 418.327 458.46 418.551 457.589 422.648C456.925 425.771 457.414 424.841 456.452 427.493C455.83 428.777 454.577 432.734 454.087 434.702C453.589 436.702 453.523 437.301 453.283 437.354C451.699 437.707 451.699 437.172 450.539 435.813C450.191 435.3 449.146 434.957 448.516 435.214C447.811 435.491 447.247 436.251 446.874 436.764C446.658 437.063 445.979 436.165 445.423 436.058C445.216 436.015 443.069 436.346 442.438 437.832L440.025 442.163C439.577 442.944 439.353 443.971 439.236 444.923C439.162 445.522 439.236 446.153 439.319 446.816L439.319 446.848C439.964 452.176 440.386 457.599 440.559 462.979C439.114 472.338 437.346 482.05 436.134 491.463C434.93 500.747 434.687 510.064 436.07 519.338C437.171 527.329 439.615 534.507 442.158 541.868Z" fill="#FEFEFE"></path>
<path d="M827.405 382L838.548 378.784L841.177 387.512L886.133 374.535L883.504 365.806L894.647 362.59L904.935 396.746C906.154 400.794 906.507 404.508 905.993 407.888C905.563 411.312 904.314 414.216 902.248 416.6C900.265 419.029 897.512 420.752 893.99 421.769L893.029 422.046C889.955 422.933 887.254 423.094 884.926 422.529C882.662 421.945 880.747 421.019 879.183 419.752C877.701 418.53 876.526 417.288 875.659 416.026L873.93 416.525C873.964 418.027 873.685 419.758 873.092 421.717C872.562 423.657 871.477 425.483 869.834 427.195C868.211 428.969 865.798 430.319 862.596 431.243L861.636 431.521C857.921 432.593 854.462 432.663 851.258 431.732C848.118 430.782 845.386 428.992 843.063 426.363C840.759 423.797 839.007 420.521 837.807 416.536L827.405 382ZM845.333 399.926L848.877 411.691C849.696 414.41 851.025 416.399 852.866 417.655C854.725 418.975 856.903 419.274 859.401 418.553L860.361 418.276C862.859 417.555 864.532 416.178 865.382 414.145C866.232 412.112 866.237 409.704 865.399 406.921L861.856 395.156L845.333 399.926ZM873.383 391.829L876.869 403.404C877.65 405.997 878.961 407.922 880.801 409.179C882.66 410.498 884.774 410.816 887.144 410.132L888.105 409.855C890.538 409.152 892.148 407.794 892.933 405.78C893.783 403.747 893.807 401.402 893.007 398.745L889.521 387.17L873.383 391.829Z" fill="#FEFEFE"></path>
<path d="M755 258.779L806.653 212L815.613 221.607L772.814 260.367L794.534 283.657L785.679 291.677L755 258.779Z" fill="#FEFEFE"></path>
<path d="M679 195.972L717.293 138L728.384 145.114L712.574 169.048L734.42 183.059L750.23 159.125L761.32 166.239L723.027 224.211L711.936 217.097L727.855 192.997L706.01 178.986L690.091 203.086L679 195.972Z" fill="#FEFEFE"></path>
<path d="M587 160.682L608.903 95L621.476 99.0885L612.777 125.173L614.492 125.731L644.812 106.677L660.909 111.912L622.301 135.239L639.959 177.903L623.385 172.513L610.174 138.68L608.459 138.122L599.573 164.77L587 160.682Z" fill="#FEFEFE"></path>
<path d="M514.875 150.932C506.052 150.932 499.034 148.56 493.82 143.818C488.607 139.009 486 132.158 486 123.266V106.666C486 97.7734 488.607 90.9557 493.82 86.2129C499.034 81.4043 506.052 79 514.875 79C523.698 79 530.716 81.4043 535.93 86.2129C541.143 90.9557 543.75 97.7734 543.75 106.666V123.266C543.75 132.158 541.143 139.009 535.93 143.818C530.716 148.56 523.698 150.932 514.875 150.932ZM514.875 139.272C519.821 139.272 523.665 137.856 526.405 135.024C529.145 132.191 530.516 128.404 530.516 123.661V106.271C530.516 101.528 529.145 97.7405 526.405 94.908C523.665 92.0755 519.821 90.6593 514.875 90.6593C509.996 90.6593 506.152 92.0755 503.345 94.908C500.605 97.7405 499.234 101.528 499.234 106.271V123.661C499.234 128.404 500.605 132.191 503.345 135.024C506.152 137.856 509.996 139.272 514.875 139.272Z" fill="#FEFEFE"></path>
<path d="M388.939 167.185L386.126 156.064L395.076 153.865L383.725 108.997L374.775 111.195L371.962 100.074L399.979 93.1906C409.124 90.9438 416.646 91.5398 422.544 94.9785C428.491 98.3373 432.605 104.523 434.885 113.535L438.086 126.19C440.366 135.202 439.688 142.599 436.053 148.38C432.467 154.081 426.101 158.055 416.957 160.302L388.939 167.185ZM407.82 150.327L414.241 148.749C419.429 147.474 422.884 145.2 424.604 141.926C426.325 138.652 426.571 134.586 425.342 129.729L421.946 116.306C420.701 111.385 418.548 107.909 415.485 105.878C412.406 103.783 408.273 103.373 403.084 104.648L396.664 106.225L407.82 150.327Z" fill="#FEFEFE"></path>
<path d="M306.787 213.093L269.696 154.325L295.569 138.484C299.314 136.191 302.983 134.838 306.576 134.423C310.169 134.008 313.473 134.507 316.488 135.919C319.504 137.332 322.019 139.634 324.032 142.824L324.668 143.831C326.894 147.357 327.844 150.733 327.52 153.958C327.195 157.183 326.102 160.063 324.242 162.599L325.196 164.11C327.536 162.833 329.789 162.54 331.956 163.23C334.087 163.865 335.895 165.358 337.379 167.709L349.513 186.934L338.278 193.813L327.151 176.182C326.303 174.839 325.245 173.974 323.978 173.586C322.767 173.163 321.339 173.455 319.693 174.463L304.033 184.051L318.022 206.215L306.787 213.093ZM297.675 173.976L311.122 165.743C313.789 164.11 315.418 162.143 316.01 159.84C316.624 157.447 316.189 155.075 314.705 152.725L314.175 151.885C312.692 149.534 310.771 148.111 308.412 147.615C306.019 147.063 303.46 147.621 300.736 149.288L287.289 157.521L297.675 173.976Z" fill="#FEFEFE"></path>
<path d="M240.697 272.039L185.809 229.165L213.904 194.258L223.314 201.608L203.46 226.276L216.555 236.504L234.66 214.008L244.07 221.358L225.964 243.854L239.529 254.45L259.758 229.317L269.167 236.667L240.697 272.039Z" fill="#FEFEFE"></path>
<path d="M200.808 332.885L129.742 319.429L135.569 307.261L197.646 319.834L198.246 318.581L148.851 279.527L154.678 267.359L210.491 312.665L200.808 332.885Z" fill="#FEFEFE"></path>
<path d="M819.653 348.872L804.294 319.534L814.587 314.265L819.877 324.371L863.886 301.335L859.077 291.96L869.4 286.867L884.683 316.725L874.456 321.909L869.638 312.324L825.552 335.399L830.04 343.974L819.653 348.872Z" fill="#FEFEFE"></path>
<path d="M362.728 1254.03L331.546 1244.56L334.703 1233.56L345.491 1236.95L360.787 1191.54L350.848 1188.33L354.652 1177.89L386.281 1188.13L382.609 1198.57L372.518 1195.22L357.195 1240.71L366.349 1243.59L362.728 1254.03Z" fill="#FEFEFE"></path>
<path d="M170.078 403.745L113.855 389.125L108.632 408.615L97 405.59L110.824 353.999L122.456 357.024L117.234 376.514L173.457 391.134L170.078 403.745Z" fill="#FEFEFE"></path>
<path d="M880.191 1039.97L816 1015.78L824.469 993.31L884.59 1003.3L885.212 1001.65L833.457 969.467L841.926 947L906.117 971.197L901.692 982.935L846.396 962.091L845.774 963.742L896.922 995.59L889.386 1015.58L829.942 1005.74L829.32 1007.39L884.616 1028.24L880.191 1039.97Z" fill="#FEFEFE"></path>
<path d="M824.825 1124.54L780.946 1068.81L794.529 1050.82L860.141 1077.77L852.109 1088.41L837.821 1082.29L823.057 1101.84L832.857 1113.9L824.825 1124.54ZM815.347 1092.21L826.449 1077.51L794.76 1064.02L793.697 1065.42L815.347 1092.21Z" fill="#FEFEFE"></path>
<path d="M771.648 1181.13L725.032 1130.8L757.386 1100.84L765.377 1109.46L742.514 1130.64L753.635 1142.65L774.485 1123.33L782.477 1131.96L761.627 1151.27L773.147 1163.71L796.442 1142.14L804.433 1150.76L771.648 1181.13Z" fill="#FEFEFE"></path>
<path d="M711.252 1226.6L677.044 1181.21L661.078 1193.24L654 1183.85L696.263 1152L703.34 1161.39L687.374 1173.42L721.583 1218.82L711.252 1226.6Z" fill="#FEFEFE"></path>
<path d="M518.284 1278.34C513.58 1278.34 509.301 1277.3 505.447 1275.21C501.657 1273.05 498.619 1269.95 496.332 1265.9C494.111 1261.78 493 1256.78 493 1250.9V1234.44C493 1225.62 495.483 1218.86 500.448 1214.15C505.414 1209.38 512.143 1207 520.637 1207C529.065 1207 535.565 1209.25 540.138 1213.76C544.777 1218.2 547.096 1224.25 547.096 1231.89V1232.28H534.357V1231.5C534.357 1229.08 533.834 1226.89 532.788 1224.93C531.808 1222.97 530.306 1221.44 528.28 1220.33C526.255 1219.15 523.707 1218.56 520.637 1218.56C516.063 1218.56 512.47 1219.97 509.857 1222.78C507.243 1225.59 505.936 1229.41 505.936 1234.24V1251.1C505.936 1255.87 507.243 1259.72 509.857 1262.66C512.47 1265.54 516.128 1266.98 520.832 1266.98C525.536 1266.98 528.966 1265.73 531.122 1263.25C533.278 1260.77 534.357 1257.63 534.357 1253.84V1252.86H518.089V1241.89H547.096V1276.97H535.141V1270.41H533.376C532.919 1271.52 532.168 1272.69 531.122 1273.93C530.142 1275.18 528.64 1276.22 526.615 1277.07C524.589 1277.92 521.812 1278.34 518.284 1278.34Z" fill="#FEFEFE"></path>
<path d="M400.001 1264.3L413.314 1197L437.445 1201.77L439.206 1263.06L440.936 1263.4L452.538 1204.76L465.036 1207.23L451.722 1274.53L427.592 1269.75L425.831 1208.47L424.1 1208.12L412.498 1266.77L400.001 1264.3Z" fill="#FEFEFE"></path>
<path d="M249.274 1192.19L288.517 1135.93L308.692 1150L285.668 1206.82L287.115 1207.83L321.312 1158.8L331.762 1166.09L292.519 1222.35L272.344 1208.28L295.368 1151.46L293.921 1150.45L259.724 1199.48L249.274 1192.19Z" fill="#FEFEFE"></path>
<path d="M180.272 1128.01L229.521 1080.26L246.644 1097.92L213.21 1149.31L214.438 1150.58L257.355 1108.96L266.223 1118.11L216.974 1165.86L199.851 1148.2L233.286 1096.81L232.058 1095.54L189.14 1137.16L180.272 1128.01Z" fill="#FEFEFE"></path>
<path d="M136.343 1075.96C133.452 1071.15 131.832 1066.48 131.484 1061.96C131.226 1057.47 132.167 1053.33 134.306 1049.53C136.536 1045.75 139.891 1042.52 144.372 1039.83L182.521 1016.93L189.178 1028.03L150.693 1051.12C147.108 1053.27 144.884 1055.98 144.022 1059.24C143.193 1062.56 143.938 1066.15 146.258 1070.01C148.578 1073.88 151.379 1076.2 154.662 1076.97C157.979 1077.8 161.43 1077.14 165.015 1074.99L203.5 1051.89L210.157 1062.98L172.008 1085.88C167.527 1088.57 163.079 1089.98 158.664 1090.11C154.339 1090.27 150.238 1089.15 146.361 1086.75C142.574 1084.38 139.234 1080.78 136.343 1075.96Z" fill="#FEFEFE"></path>
<path d="M95.0002 973.016L158.476 947L169.774 974.566C171.409 978.556 172.139 982.317 171.962 985.849C171.786 989.381 170.763 992.484 168.893 995.157C167.023 997.83 164.365 999.872 160.919 1001.28L159.831 1001.73C156.022 1003.29 152.568 1003.65 149.467 1002.8C146.366 1001.95 143.726 1000.42 141.548 998.209L139.916 998.878C140.786 1001.35 140.707 1003.57 139.681 1005.54C138.715 1007.49 136.962 1008.99 134.423 1010.03L113.657 1018.54L108.752 1006.57L127.794 998.763C129.245 998.168 130.263 997.292 130.847 996.134C131.457 995.037 131.402 993.612 130.684 991.859L123.845 975.174L99.9061 984.986L95.0002 973.016ZM134.727 970.714L140.599 985.041C141.764 987.883 143.424 989.779 145.579 990.732C147.82 991.72 150.21 991.693 152.749 990.653L153.656 990.281C156.195 989.241 157.898 987.625 158.765 985.433C159.692 983.217 159.561 980.659 158.372 977.757L152.5 963.43L134.727 970.714Z" fill="#FEFEFE"></path>
</svg>