<svg width="540" height="540" viewBox="0 0 540 540" fill="none" xmlns="http://www.w3.org/2000/svg">
<path d="M532 271C532 415.699 414.699 533 270 533C125.301 533 8 415.699 8 271C8 126.301 125.301 9 270 9C414.699 9 532 126.301 532 271Z" fill="#188294"></path>
<circle cx="269.5" cy="269.5" r="239.5" fill="#E25737"></circle>
<path d="M501 270C501 397.578 397.578 501 270 501C142.422 501 39 397.578 39 270C39 142.422 142.422 39 270 39C397.578 39 501 142.422 501 270Z" fill="white"></path>
<circle cx="269.5" cy="269.5" r="222.5" fill="#E25737"></circle>
<path d="M483.734 268.982C484.16 387.161 388.702 483.309 270.523 483.735C152.344 484.16 56.1958 388.702 55.7703 270.523C55.3449 152.344 150.803 56.1961 268.982 55.7707C387.161 55.3452 483.309 150.803 483.734 268.982Z" fill="white"></path>
<circle cx="269.5" cy="269.5" r="205.5" fill="#E25737"></circle>
<circle cx="270" cy="270" r="196" fill="white"></circle>
<circle cx="269.5" cy="269.5" r="187.5" fill="#E25737"></circle>
<circle cx="269.5" cy="270.5" r="174.5" fill="#188294"></circle>
<mask id="mask0_13_1660" style="mask-type:alpha" maskUnits="userSpaceOnUse" x="95" y="96" width="349" height="349">
<circle cx="269.5" cy="270.5" r="174.5" fill="#188294"></circle>
</mask>
<g mask="url(#mask0_13_1660)">
<g opacity="0.43">
<path d="M370.316 461V303H381.294L421.226 411.117H414.09L454.022 303H465V461H449.219V348.594L452.787 350.174L423.147 430.303H412.169L382.529 350.174L386.097 348.594V461H370.316Z" fill="white" fill-opacity="0.5"></path>
<path d="M267.901 461L307.421 303H318.399L357.645 461H340.629L309.891 333.02H315.655L284.642 461H267.901ZM287.387 430.529V407.957H338.296V430.529H287.387Z" fill="white" fill-opacity="0.5"></path>
<path d="M194.096 461V303H209.877V461H194.096ZM204.937 461V437.3H258.729V461H204.937ZM204.937 391.706V368.909H254.063V391.706H204.937ZM204.937 326.7V303H258.043V326.7H204.937Z" fill="white" fill-opacity="0.5"></path>
<path d="M133.287 461V307.514H149.068V461H133.287ZM102 326.7V303H180.355V326.7H102Z" fill="white" fill-opacity="0.5"></path>
</g>
<g opacity="0.43">
<path d="M340.316 243V85H351.294L391.226 193.117H384.09L424.022 85H435V243H419.219V130.594L422.787 132.174L393.147 212.303H382.169L352.529 132.174L356.097 130.594V243H340.316Z" fill="white" fill-opacity="0.5"></path>
<path d="M237.901 243L277.421 85H288.399L327.645 243H310.629L279.891 115.02H285.655L254.642 243H237.901ZM257.387 212.529V189.957H308.296V212.529H257.387Z" fill="white" fill-opacity="0.5"></path>
<path d="M164.096 243V85H179.877V243H164.096ZM174.937 243V219.3H228.729V243H174.937ZM174.937 173.706V150.909H224.063V173.706H174.937ZM174.937 108.7V85H228.043V108.7H174.937Z" fill="white" fill-opacity="0.5"></path>
<path d="M103.287 243V89.5143H119.068V243H103.287ZM72 108.7V85H150.355V108.7H72Z" fill="white" fill-opacity="0.5"></path>
</g>
<path opacity="0.43" d="M110.096 291V258.36H115.616V291H110.096ZM99.152 262.44V257.4H126.56V262.44H99.152ZM142.16 291L128.576 257.4H134.576L145.184 284.616H143.072L153.776 257.4H159.68L146 291H142.16ZM165.934 291V257.4H171.454V291H165.934ZM169.726 291V285.96H188.542V291H169.726ZM169.726 276.264V271.416H186.91V276.264H169.726ZM169.726 262.44V257.4H188.302V262.44H169.726ZM199.479 276.744V272.184H207.975C209.671 272.184 210.983 271.752 211.911 270.888C212.871 269.992 213.351 268.76 213.351 267.192C213.351 265.784 212.887 264.6 211.959 263.64C211.031 262.68 209.719 262.2 208.023 262.2H199.479V257.4H208.263C210.375 257.4 212.231 257.832 213.831 258.696C215.431 259.528 216.663 260.68 217.527 262.152C218.423 263.592 218.871 265.24 218.871 267.096C218.871 269.048 218.423 270.744 217.527 272.184C216.663 273.624 215.431 274.744 213.831 275.544C212.231 276.344 210.375 276.744 208.263 276.744H199.479ZM195.687 291V257.4H201.207V291H195.687ZM214.119 291L202.359 276.408L207.495 274.536L221.079 291H214.119ZM230.403 291V285.96H239.235C241.539 285.96 243.555 285.464 245.283 284.472C247.043 283.48 248.403 282.104 249.363 280.344C250.355 278.552 250.851 276.488 250.851 274.152C250.851 271.848 250.355 269.816 249.363 268.056C248.371 266.296 246.995 264.92 245.235 263.928C243.507 262.936 241.507 262.44 239.235 262.44H230.403V257.4H239.379C241.811 257.4 244.067 257.832 246.147 258.696C248.227 259.528 250.035 260.712 251.571 262.248C253.139 263.752 254.355 265.528 255.219 267.576C256.083 269.592 256.515 271.8 256.515 274.2C256.515 276.568 256.083 278.776 255.219 280.824C254.355 282.872 253.155 284.664 251.619 286.2C250.083 287.704 248.275 288.888 246.195 289.752C244.115 290.584 241.875 291 239.475 291H230.403ZM226.611 291V257.4H232.131V291H226.611ZM279.038 291.48C276.638 291.48 274.398 291.032 272.318 290.136C270.238 289.24 268.414 288.008 266.846 286.44C265.278 284.84 264.046 283 263.15 280.92C262.286 278.808 261.854 276.552 261.854 274.152C261.854 271.752 262.286 269.512 263.15 267.432C264.046 265.352 265.262 263.528 266.798 261.96C268.366 260.36 270.174 259.128 272.222 258.264C274.302 257.368 276.542 256.92 278.942 256.92C281.342 256.92 283.566 257.368 285.614 258.264C287.694 259.128 289.518 260.36 291.086 261.96C292.654 263.528 293.87 265.368 294.734 267.48C295.63 269.56 296.078 271.8 296.078 274.2C296.078 276.6 295.63 278.856 294.734 280.968C293.87 283.048 292.654 284.872 291.086 286.44C289.55 288.008 287.742 289.24 285.662 290.136C283.614 291.032 281.406 291.48 279.038 291.48ZM278.942 286.2C281.214 286.2 283.198 285.688 284.894 284.664C286.622 283.64 287.966 282.232 288.926 280.44C289.918 278.616 290.414 276.52 290.414 274.152C290.414 272.392 290.126 270.792 289.55 269.352C289.006 267.88 288.222 266.616 287.198 265.56C286.174 264.472 284.958 263.64 283.55 263.064C282.174 262.488 280.638 262.2 278.942 262.2C276.702 262.2 274.718 262.712 272.99 263.736C271.294 264.728 269.95 266.12 268.958 267.912C267.998 269.704 267.518 271.784 267.518 274.152C267.518 275.912 267.79 277.544 268.334 279.048C268.91 280.52 269.694 281.784 270.686 282.84C271.71 283.896 272.926 284.728 274.334 285.336C275.742 285.912 277.278 286.2 278.942 286.2ZM323.436 291L307.884 273.48L323.1 257.4H330.156L313.356 274.872V271.848L330.636 291H323.436ZM303.132 291V257.4H308.652V291H303.132ZM335.978 291V257.4H341.498V291H335.978ZM357.338 291V257.4H362.858V291H357.338ZM339.77 276.12V271.08H358.538V276.12H339.77ZM371.59 291V257.4H377.11V291H371.59ZM375.382 291V285.96H392.95V291H375.382ZM399.42 291V257.4H404.94V291H399.42ZM417.449 291V286.2H427.097C428.793 286.2 430.105 285.672 431.033 284.616C431.961 283.56 432.425 282.344 432.425 280.968C432.425 280.04 432.217 279.176 431.801 278.376C431.385 277.576 430.777 276.936 429.977 276.456C429.177 275.976 428.217 275.736 427.097 275.736H417.449V270.936H426.281C427.721 270.936 428.873 270.568 429.737 269.832C430.601 269.096 431.033 268.008 431.033 266.568C431.033 265.128 430.601 264.04 429.737 263.304C428.873 262.568 427.721 262.2 426.281 262.2H417.449V257.4H426.425C428.697 257.4 430.585 257.816 432.089 258.648C433.593 259.48 434.713 260.552 435.449 261.864C436.185 263.176 436.553 264.584 436.553 266.088C436.553 267.848 436.057 269.4 435.065 270.744C434.105 272.088 432.681 273.176 430.793 274.008L431.225 272.28C433.337 273.144 434.985 274.36 436.169 275.928C437.353 277.496 437.945 279.336 437.945 281.448C437.945 283.176 437.513 284.76 436.649 286.2C435.817 287.64 434.569 288.808 432.905 289.704C431.273 290.568 429.257 291 426.857 291H417.449ZM413.657 291V257.4H419.177V291H413.657Z" fill="white" fill-opacity="0.5"></path>
<g filter="url(#filter0_d_13_1660)">
<path d="M264.441 354.227C264.318 352.159 263.957 350.104 263.988 348.022C264.015 346.034 264.582 344.192 264.985 342.29C265.165 341.446 265.33 340.601 265.485 339.75C263.367 339.138 261.908 336.444 260.568 334.382C259.027 332.014 258.229 329.127 257.796 326.174C257.77 326.015 257.7 320.056 258.296 326.008C258.595 328.961 259.512 331.814 261.037 334.162C262.238 336.005 263.841 337.728 265.712 338.453C265.821 337.802 265.929 337.157 266.027 336.505C266.027 336.492 266.032 336.478 266.032 336.465C266.048 336.359 266.069 336.246 266.084 336.139C266.389 334.065 266.745 331.89 266.477 329.775C266.24 327.873 265.39 326.27 264.72 324.567C264.04 322.845 263.644 321.009 263.52 319.101C263.52 319.087 263.52 319.081 263.525 319.067C263.278 317.637 263.124 316.188 263.088 314.718C263.068 313.827 263.14 312.929 263.078 312.044C263.001 310.914 262.584 310.063 261.981 309.218C260.198 306.717 258.084 304.289 255.589 302.911C252.77 301.354 249.46 301.479 246.835 303.58C244.345 305.567 242.901 309.158 243.013 312.782C243.013 312.815 243.003 312.849 242.987 312.875C243.188 313.614 243.4 314.339 243.631 315.057C244.549 317.897 245.857 320.531 247.063 323.198C248.352 326.051 249.64 328.905 250.804 331.838C251.892 334.585 252.943 337.418 253.401 340.438C253.849 343.417 253.621 346.463 252.801 349.315C252.791 349.342 252.77 349.369 252.744 349.395C252.233 351.244 251.81 353.126 251.495 355.041C250.396 361.724 250.75 368.461 251.765 375.118C252.583 380.491 253.448 385.832 253.643 391.312C253.658 391.757 253.586 392.349 253.674 392.788C253.746 393.154 253.993 393.453 254.05 393.859C254.132 394.418 254.044 395.029 253.792 395.508C253.585 395.894 253.286 396.16 252.992 396.432C253.518 397.955 253.987 399.312 255.172 400.137C256.683 401.182 258.466 401.448 260.173 401.402C260.338 401.396 260.472 401.861 260.271 402.008C258.213 403.543 255.795 403.968 253.481 403.162C253.182 403.056 250.295 401.692 253.775 402.77C255.703 403.369 257.693 403.19 259.446 402.094C257.904 402.067 256.342 401.774 254.966 400.889C253.682 400.07 252.889 398.793 252.214 397.323C251.791 398.021 251.589 398.892 251.502 399.743C251.341 401.286 251.511 402.856 251.382 404.412C250.912 410.091 249.359 415.55 248.889 421.229C248.697 423.524 248.599 426.097 249.397 428.252C249.964 429.775 250.871 431.059 252.284 431.246C253.66 431.426 255.171 431.453 256.553 431.394C257.584 431.354 258.702 431.128 259.455 430.171C259.976 429.506 260.234 428.595 260.43 427.724C260.889 425.663 260.88 423.515 260.741 421.4C260.612 419.425 260.37 417.463 260.268 415.488C260.155 413.36 260.274 411.245 260.429 409.123C260.496 408.219 260.538 407.288 260.734 406.41C260.925 405.559 261.358 404.854 261.59 404.023C261.889 402.953 261.704 401.888 261.529 400.818C261.369 399.853 261.276 398.889 261.168 397.911C260.736 393.828 260.031 389.718 260.119 385.582C260.26 378.719 263.793 372.901 264.655 366.224C264.898 364.362 264.779 362.573 264.692 360.698C264.595 358.543 264.574 356.382 264.441 354.227ZM255.514 341.622C255.618 340.917 256.227 336.814 255.839 341.562C255.891 341.582 255.798 342.633 255.792 343.125C255.839 344.029 256.055 344.914 256.715 345.413C257.658 346.132 258.999 345.6 260.055 345.773C260.385 345.827 263.257 346.28 259.973 346.159C259.911 346.199 259.37 346.172 259.158 346.172C258.746 346.198 258.318 346.232 257.9 346.218C257.225 346.225 256.565 346.131 256.034 345.612C255.106 344.701 255.463 341.662 255.514 341.622ZM262.975 364.521C262.701 367.447 261.783 370.2 261.442 373.113C261.421 373.279 260.869 377.375 261.112 373.346C261.204 373.871 262.733 358.782 262.363 357.665C261.812 353.249 262.693 357.505 262.708 357.652C262.996 359.879 263.181 362.267 262.975 364.521ZM263.179 348.474C263.158 348.494 263.127 348.514 263.091 348.534C262.973 348.587 262.864 348.654 262.756 348.72C261.864 349.332 261.292 350.376 260.838 351.499C260.539 352.238 260.311 353.74 259.662 354.139C259.646 354.146 259.631 354.152 259.621 354.159C259.605 354.172 259.59 354.186 259.574 354.192C258.44 354.884 256.528 351.731 256.574 351.684C256.337 351.099 255.229 348.265 256.806 351.358C257.203 352.057 257.744 352.729 258.017 353.008C258.291 353.287 258.909 353.9 259.286 353.826C259.306 353.82 259.332 353.813 259.353 353.8C259.791 353.434 260.08 352.011 260.276 351.519C260.854 350.09 261.637 348.826 262.885 348.235C262.895 348.228 262.906 348.228 262.916 348.222C262.937 348.208 262.957 348.188 262.978 348.175C264.602 346.972 263.504 348.322 263.179 348.474Z" fill="#FEFEFE"></path>
<path d="M315.938 255.784C315.676 252.798 311.723 249.292 310.435 247.363C309.121 245.394 308.096 243.219 306.921 241.137C305.767 239.095 302.685 235.397 300.479 232.909C299.237 231.505 295.481 224.561 293.301 221.289C292.131 219.533 290.766 217.75 288.988 216.971C287.209 216.193 285.261 216.179 283.457 215.433C283.184 215.32 282.921 215.2 282.653 215.074C281.136 219.828 280.573 225.061 281.892 230.049C283.999 238.024 281.469 230.468 281.392 230.215C279.831 225.074 279.997 219.508 281.637 214.568C280.622 214.022 279.638 213.397 278.669 212.738C277.786 217.293 275.471 221.05 272.069 223.742C269.037 226.148 265.145 226.007 262.383 223.199C262.883 225.886 264.913 227.902 267.217 228.049C274.691 228.531 267.475 228.535 267.181 228.528C264.397 228.514 261.996 225.839 261.775 222.421C261.76 222.202 262.11 222.082 262.223 222.215C265.037 225.648 269.269 225.782 272.383 222.871C275.255 220.192 276.58 215.969 277.272 211.753C275.968 210.829 274.659 209.87 273.463 208.766C273.427 208.753 273.396 208.733 273.391 208.693C273.026 206.512 273.201 204.33 273.681 202.189C273.929 201.099 274.244 200.035 274.589 198.991C274.764 198.466 274.821 198.253 275.249 198.067C275.698 197.867 276.218 198.167 276.677 198.027C277.115 197.894 277.672 197.403 278.033 197.03C278.347 196.711 278.523 196.026 278.657 195.567C278.966 194.51 279.188 193.393 279.297 192.276C279.364 191.591 279.426 191.259 278.936 190.926C278.771 190.813 278.709 190.926 278.57 190.726C278.287 190.32 278.534 189.489 278.601 189.057C278.736 188.219 278.839 187.368 278.911 186.517C279.077 184.535 279.067 182.52 278.804 180.545C278.331 176.96 276.986 173.615 274.677 171.293C272.07 168.679 268.843 167.953 265.693 169.481C264.095 170.259 262.59 171.315 261.064 172.279C260.29 172.771 259.352 173.21 258.976 174.26C258.718 174.978 258.749 175.796 258.501 176.521C258.197 177.419 257.624 178.15 257.289 179.034C257.005 179.786 256.799 180.59 256.68 181.408C256.422 183.17 256.587 184.926 257.081 186.602C257.272 187.247 257.432 187.766 257.158 188.404C256.983 188.81 256.617 189.029 256.545 189.548C256.483 189.987 256.596 190.452 256.714 190.858C256.951 191.676 257.255 192.361 257.209 193.252C257.162 194.117 256.863 195.054 257.219 195.879C257.636 196.857 258.755 196.006 259.022 197.05C259.239 197.895 259.259 198.886 259.275 199.763C259.331 202.47 258.928 205.256 257.665 207.517C257.665 207.543 257.639 207.583 257.567 207.63C257.232 207.836 256.943 207.889 256.68 207.822C256.365 211.945 254.462 215.629 252.935 219.306C251.543 222.664 250.109 226.307 247.31 228.202C247.052 228.374 251.337 221.959 252.729 218.548C254.225 214.891 255.561 211.054 255.644 206.911C255.325 206.425 255.046 205.833 254.758 205.374C253.712 203.712 252.439 202.281 251.135 200.931C248.914 198.629 246.486 196.547 244.477 193.959C244.595 195.861 244.548 197.816 244.692 199.672C244.934 202.777 245.65 205.744 246.396 208.736C248.606 217.575 245.984 209.169 245.896 208.903C244.918 206.009 244.434 202.944 244.192 199.838C244.043 197.876 243.739 194.963 243.338 192.363C243.322 192.336 243.307 192.316 243.291 192.296C243.266 192.256 243.276 192.21 243.307 192.17C243.292 192.077 243.276 191.977 243.261 191.884C241.962 188.259 239.618 185.379 238.041 181.947C236.083 177.69 235.048 172.682 234.565 167.834C234.282 165.014 233.674 160.951 233.437 159.581C232.959 156.828 232.82 154.028 232.805 151.215C232.805 151.182 232.821 151.148 232.846 151.122L232.8 151.122L233.142 139.963C233.163 139.218 233.189 138.447 233.354 137.695C233.597 136.598 234.118 135.654 234.623 134.737L234.68 134.63C236.577 131.186 238.387 127.403 240.094 123.673C240.914 121.878 241.714 120.096 242.487 118.373C243.111 116.984 244.725 115.289 243.509 114.291C243.112 113.965 242.091 114.49 241.111 117.09C240.75 117.708 239.935 118.765 238.352 122.136C238.301 122.249 238.275 121.73 238.275 121.73C238.6 120.56 238.879 118.445 239.292 116.032C239.699 114.376 239.555 114.143 239.777 113.392C240.349 111.137 240.344 110.3 239.736 110.106C238.979 109.867 238.576 110.013 238.035 112.553C237.622 114.495 237.926 113.916 237.328 115.565C236.941 116.363 236.162 118.823 235.858 120.047C235.548 121.29 235.507 121.663 235.358 121.696C234.373 121.915 234.373 121.583 233.652 120.738C233.435 120.418 232.786 120.205 232.394 120.365C231.956 120.538 231.605 121.01 231.373 121.329C231.239 121.515 230.816 120.956 230.471 120.89C230.342 120.863 229.002 121.069 228.615 121.993L227.115 124.686C226.836 125.171 226.697 125.809 226.625 126.401C226.578 126.774 226.624 127.166 226.676 127.578L226.676 127.598C227.077 130.91 227.339 134.282 227.447 137.627C226.549 143.445 225.45 149.483 224.696 155.335C223.947 161.107 223.797 166.899 224.656 172.665C225.387 177.58 226.912 182.049 228.494 186.618C230.055 191.134 231.605 195.677 233.63 199.914C234.506 201.743 235.485 203.386 236.655 204.949C237.443 206.007 238.325 206.931 239.128 207.969C239.963 209.04 240.741 210.184 241.458 211.375C242.055 212.373 242.751 213.49 242.844 214.76C242.926 215.904 242.725 217.028 242.642 218.165C242.549 219.455 242.626 220.778 242.677 222.069C242.78 224.689 242.975 227.309 243.325 229.896C244.015 235.023 244.978 240.085 245.605 245.219C246.228 250.266 246.577 255.394 246.216 260.487C246.128 261.704 245.993 262.915 245.906 264.132C245.818 265.402 245.843 266.679 245.781 267.949C245.719 269.219 245.373 270.908 244.955 272.55C255.717 279.623 269.01 281.503 280.964 281.049C281.098 281.042 281.237 281.135 281.186 281.321C280.819 282.598 278.685 283.921 277.742 284.373C276.03 285.197 274.19 285.628 272.37 285.927C267.906 286.657 263.117 286.708 258.793 285.057C252.134 282.515 258.855 284.552 259.082 284.632C263.143 286.063 267.561 286.145 271.736 285.561C273.551 285.309 275.391 284.917 277.118 284.173C277.984 283.801 279.257 283.249 279.737 282.165C267.727 282.593 255.216 281.565 244.445 274.465C244.336 274.838 244.233 275.197 244.13 275.529C244.099 275.489 244.068 275.449 244.037 275.41C243.057 280.397 241.968 285.377 241.266 290.431C240.786 293.922 240.667 297.413 241.001 300.932C241.325 304.323 241.685 307.19 242.478 310.541C242.726 308.014 243.846 305.016 245.382 303.247C248.811 299.318 253.934 300.723 257.732 303.717C258.789 304.549 259.753 305.54 260.66 306.598C261.381 307.443 262.206 308.347 262.819 309.365C262.438 306.186 262.47 302.967 262.733 299.756C262.754 299.51 263.919 300.401 263.893 300.687C263.573 304.584 263.603 308.501 264.298 312.338C264.308 312.398 264.271 314.799 264.312 315.896C264.379 317.592 264.472 318.616 264.812 320.259C264.822 320.265 267.955 324.768 273.965 325.961C278.398 326.84 282.904 324.169 285.966 320.193C285.982 320.173 286.008 319.521 286.044 319.501C286.493 313.729 286.03 310.052 285.655 304.286C285.265 298.334 284.766 292.335 283.473 286.563C283.272 285.764 283.097 284.96 282.948 284.162C281.229 272.291 284.092 258.566 285.749 246.942C285.977 245.339 286.157 243.73 286.369 242.128C286.513 241.024 286.591 239.734 287.019 238.73C287.721 237.067 289.437 237.573 290.555 238.252C292.375 239.35 293.555 241.432 294.714 243.387C296.007 245.563 297.466 247.505 299.264 249.068C300.166 249.853 301.125 250.532 302.125 251.098C302.63 251.384 303.151 251.637 303.676 251.87C303.97 252.003 304.357 252.096 304.573 252.395C304.604 252.435 306.542 251.219 307.465 250.927C307.759 250.834 310.708 249.791 307.511 251.126C306.336 251.618 305.346 252.196 304.361 253.679C304.361 253.679 303.789 254.829 303.583 255.188C302.949 256.285 302.314 257.375 301.68 258.472C300.401 260.68 299.2 262.701 297.292 264.143C295.823 265.26 294.127 266.623 292.323 266.449C290.782 266.302 289.524 265.896 288.003 266.567C286.874 267.066 285.848 267.897 284.915 268.807C284.023 269.685 282.657 270.27 283.11 271.859C283.44 273.016 283.909 273.588 284.723 274.114C284.723 274.114 289.593 280.859 293.011 278.021C293.356 277.735 293.547 277.236 293.851 276.89C294.62 276.013 295.568 275.395 296.465 274.743C300.853 271.553 305.24 268.369 309.632 265.179C311.581 263.763 313.891 262.434 315.19 260.06C315.809 258.863 316.072 257.3 315.938 255.784Z" fill="#FEFEFE"></path>
<path d="M274.869 327.45C270.761 327.255 266.869 324.794 264.262 320.936C264.478 322.186 264.818 323.396 265.287 324.567C265.998 326.336 266.843 327.999 267.018 330.007C267.198 332.016 266.862 334.071 266.578 336.039C266.563 336.152 266.542 336.265 266.527 336.385C266.67 339.091 266.69 341.798 266.803 344.505C266.87 346.008 266.952 347.511 267.127 348.994C267.297 350.444 267.678 351.867 267.755 353.33C267.899 356.05 267.032 358.63 266.305 361.15C265.876 362.633 265.474 364.143 265.329 365.712C265.174 367.394 265.401 369.037 265.674 370.68C265.699 370.7 265.72 370.726 265.72 370.766C266.137 374.238 266.559 377.709 266.976 381.181C267.14 382.551 267.197 383.681 266.903 385.031C266.681 386.042 266.299 386.9 265.974 387.851C265.644 388.828 265.556 389.254 265.494 390.398C265.489 390.584 265.473 390.89 265.463 391.242C265.447 391.681 265.39 393.224 265.385 393.423C265.359 395.724 265.925 397.899 265.827 400.194C265.739 402.295 265.733 404.476 265.496 406.558C265.294 408.366 264.938 410.155 264.665 411.951C264.406 413.633 264.169 415.236 264.385 416.932C264.545 418.202 264.524 419.678 265.178 420.749C266.044 422.166 267.626 422.672 268.987 422.885C270.467 423.118 272.101 423.072 273.508 422.401C275.163 421.617 275.88 419.389 276.123 417.368C276.319 415.712 276.433 413.95 276.407 412.274C276.357 409.049 276.012 405.803 275.688 402.604C275.559 401.327 275.436 400.05 275.245 398.787C275.168 398.255 275.065 397.763 275.003 397.244C274.508 397.862 273.879 398.308 273.168 398.5C272.003 398.819 270.755 398.473 269.761 397.674C269.225 397.249 268.766 396.716 268.343 396.144C268.822 398.206 269.966 400.022 271.518 401.04C271.951 401.319 270.987 401.864 270.683 401.665C268.41 400.181 266.993 397.188 267.05 394.036C267.055 393.657 267.89 393.418 268.066 393.704C269.189 395.566 270.761 398.193 272.926 397.875C273.874 397.736 274.529 396.698 274.854 395.668C274.88 395.588 274.896 395.508 274.916 395.428C274.896 394.511 274.875 393.373 274.865 392.981C274.871 391.239 274.964 389.496 275.232 387.841C275.862 383.917 276.719 380.22 277.786 376.443C277.735 376.416 277.704 376.363 277.725 376.283C279.278 369.8 280.114 363.07 280.162 356.313C280.183 353.421 279.859 350.448 280.226 347.575C280.577 344.849 281.732 342.408 282.666 339.941C283.687 337.235 284.234 334.402 284.704 331.483C285.179 328.537 285.633 325.585 285.917 322.599C285.928 322.466 285.938 322.333 285.948 322.2C283.025 325.69 278.957 327.651 274.869 327.45ZM277.919 360.363C277.872 360.396 276.011 360.814 275.176 360.947C274.815 361.007 274.455 361.027 274.114 360.86C273.058 360.334 271.991 357.288 272.043 357.255C271.93 356.856 271.157 353.75 272.383 357.129C272.383 357.135 272.388 357.135 272.388 357.142C272.424 357.149 272.95 358.293 273.218 358.845C273.501 359.317 273.811 359.763 274.12 360.129C274.98 361.14 276.775 360.236 277.852 360.097C280.883 359.685 278.403 360.256 277.919 360.363Z" fill="#FEFEFE"></path>
<path d="M280.819 344.881L266.911 346.546C266.962 347.364 267.029 348.175 267.127 348.987C267.297 350.437 267.678 351.86 267.755 353.323C267.899 356.043 267.032 358.623 266.305 361.143C265.876 362.626 265.474 364.135 265.329 365.705C265.174 367.387 265.401 369.03 265.674 370.673C265.699 370.693 265.72 370.719 265.72 370.759C266.137 374.231 266.559 377.702 266.975 381.174C267.14 382.544 267.196 383.675 266.902 385.024C266.68 386.035 266.299 386.893 265.974 387.844C265.644 388.821 265.556 389.247 265.494 390.391C265.489 390.577 265.473 390.883 265.463 391.235C265.447 391.674 265.39 393.217 265.385 393.417C265.358 395.718 265.925 397.892 265.827 400.187C265.738 402.288 265.733 404.469 265.495 406.551C265.294 408.36 264.938 410.148 264.664 411.944C264.406 413.626 264.168 415.229 264.384 416.925C264.544 418.195 264.523 419.672 265.177 420.742C266.043 422.159 267.625 422.665 268.986 422.878C270.466 423.112 272.1 423.066 273.507 422.394C275.162 421.61 275.879 419.383 276.122 417.361C276.318 415.705 276.432 413.943 276.406 412.267C276.355 409.041 276.011 405.796 275.687 402.597C275.558 401.32 275.435 400.043 275.244 398.78C275.167 398.248 275.064 397.756 275.002 397.237C274.507 397.855 273.879 398.301 273.167 398.493C272.002 398.812 270.755 398.466 269.76 397.667C269.224 397.235 268.765 396.71 268.343 396.137C268.822 398.199 269.966 400.015 271.517 401.033C271.95 401.312 270.986 401.858 270.682 401.658C268.409 400.174 266.992 397.181 267.05 394.029C267.055 393.65 267.89 393.404 268.065 393.697C269.188 395.559 270.76 398.187 272.925 397.868C273.873 397.729 274.528 396.691 274.853 395.661C274.879 395.581 274.895 395.501 274.915 395.421C274.895 394.504 274.874 393.373 274.864 392.974C274.87 391.232 274.963 389.489 275.231 387.833C275.861 383.91 276.718 380.213 277.786 376.436C277.734 376.409 277.703 376.356 277.724 376.276C279.277 369.793 280.113 363.063 280.161 356.306C280.183 353.413 279.859 350.441 280.225 347.568C280.339 346.643 280.556 345.752 280.819 344.881ZM277.918 360.296C277.872 360.329 276.011 360.794 275.176 360.94C274.815 361 274.454 361.033 274.114 360.84C273.057 360.261 271.991 356.895 272.043 356.849C271.929 356.41 271.404 353.869 271.404 353.869C271.44 353.876 272.924 357.634 273.192 358.252C273.475 358.778 273.784 359.27 274.094 359.669C274.954 360.793 276.748 359.79 277.826 359.631C280.857 359.193 278.403 360.183 277.918 360.296Z" fill="#FEFEFE"></path>
<path d="M264.437 354.226C264.314 352.158 263.954 350.103 263.985 348.021C263.99 347.635 264.021 347.263 264.063 346.891L253.083 348.204C252.995 348.576 252.902 348.942 252.799 349.301C252.789 349.328 252.768 349.354 252.742 349.381C252.232 351.229 251.809 353.111 251.494 355.027C250.394 361.71 250.748 368.447 251.762 375.104C252.581 380.477 253.445 385.818 253.64 391.298C253.655 391.743 253.583 392.335 253.671 392.774C253.743 393.14 253.288 396.152 252.989 396.418C253.515 397.941 253.983 399.298 255.169 400.123C256.679 401.168 258.462 401.434 260.169 401.388C260.334 401.382 260.468 401.847 260.266 401.993C258.209 403.529 255.792 403.954 253.477 403.148C253.178 403.042 250.292 401.678 253.771 402.756C255.699 403.355 257.689 403.176 259.442 402.08C257.9 402.053 256.339 401.759 254.962 400.875C253.679 400.056 252.886 398.779 252.211 397.309C251.788 398.007 251.587 398.878 251.499 399.73C251.339 401.272 251.508 402.842 251.379 404.398C250.909 410.077 249.356 415.537 248.886 421.216C248.694 423.51 248.596 426.084 249.394 428.239C249.961 429.762 250.868 431.046 252.28 431.232C253.656 431.412 255.167 431.439 256.548 431.38C257.579 431.34 258.698 431.114 259.451 430.157C259.971 429.492 260.229 428.581 260.425 427.71C260.885 425.649 260.875 423.501 260.736 421.386C260.608 419.411 260.366 417.449 260.263 415.474C260.15 413.345 260.269 411.231 260.425 409.109C260.492 408.205 260.533 407.274 260.729 406.396C260.92 405.545 261.353 404.84 261.586 404.009C261.885 402.938 261.699 401.874 261.524 400.803C261.365 399.839 261.272 398.875 261.164 397.897C260.732 393.814 260.027 389.704 260.116 385.567C260.256 378.711 263.789 372.886 264.651 366.216C264.894 364.354 264.776 362.565 264.688 360.69C264.591 358.542 264.571 356.381 264.437 354.226ZM262.971 364.52C262.697 367.446 261.779 370.199 261.438 373.112C261.417 373.278 260.865 377.374 261.108 373.344C261.201 373.87 262.73 358.781 262.359 357.663C261.809 353.248 262.689 357.504 262.705 357.65C262.993 359.878 263.178 362.266 262.971 364.52ZM263.176 348.473C263.155 348.493 263.124 348.513 263.088 348.533C262.97 348.586 262.861 348.653 262.753 348.719C261.861 349.331 261.289 350.374 260.835 351.498C260.536 352.23 260.309 353.739 259.659 354.138C259.643 354.145 259.628 354.151 259.618 354.158C259.602 354.171 259.587 354.185 259.571 354.191C258.437 354.882 256.525 351.73 256.572 351.683C256.335 351.098 255.227 348.264 256.804 351.357C257.201 352.056 257.742 352.728 258.015 353.007C258.288 353.286 258.906 353.898 259.283 353.825C259.303 353.819 259.329 353.812 259.35 353.799C259.788 353.433 260.077 352.01 260.273 351.518C260.851 350.088 261.634 348.825 262.882 348.234C262.892 348.227 262.903 348.227 262.913 348.22C262.934 348.207 262.954 348.187 262.975 348.174C264.599 346.971 263.501 348.32 263.176 348.473Z" fill="#FEFEFE"></path>
<path d="M244.399 274.505C244.291 274.877 244.017 275.495 243.992 275.456C243.244 279.265 242.434 283.068 241.778 286.905L258.287 284.929C252.433 282.667 258.818 284.604 259.04 284.677C259.163 284.717 259.287 284.75 259.411 284.79L279.6 282.371C279.631 282.317 279.667 282.264 279.693 282.211C267.684 282.639 255.175 281.61 244.399 274.505Z" fill="#FEFEFE"></path>
<path d="M228.454 186.653C230.015 191.169 231.565 195.712 233.59 199.948C234.466 201.777 235.445 203.42 236.614 204.984C237.403 206.041 238.284 206.966 239.088 208.003C239.923 209.074 240.701 210.219 241.417 211.409C242.015 212.407 242.71 213.524 242.803 214.795C242.885 215.938 242.684 217.062 242.601 218.199C242.508 219.489 242.585 220.813 242.636 222.103C242.739 224.723 242.934 227.343 243.284 229.93C243.974 235.058 244.936 240.119 245.564 245.253C246.187 250.301 246.536 255.428 246.174 260.522C246.086 261.739 246.024 264.692 245.962 265.968C245.899 267.238 245.554 268.927 245.136 270.57C255.897 277.643 268.973 281.537 280.921 281.082C281.055 281.076 281.194 281.169 281.142 281.355C281.06 281.648 280.874 281.947 280.642 282.233L282.632 281.994C281.526 270.649 284.142 257.888 285.696 246.969C285.923 245.366 286.104 243.757 286.315 242.154C286.46 241.051 286.538 239.76 286.966 238.756C287.667 237.094 289.383 237.6 290.502 238.279C292.321 239.377 293.501 241.459 294.66 243.414C295.953 245.589 297.412 247.531 299.21 249.095C300.112 249.88 301.071 250.558 302.07 251.131C302.576 251.417 303.096 251.67 303.622 251.903C303.916 252.036 304.302 252.129 304.519 252.428C304.549 252.468 306.488 251.252 307.41 250.96C307.704 250.867 310.653 249.824 307.457 251.159C306.281 251.651 305.292 252.229 304.307 253.712C304.307 253.712 303.735 254.862 303.528 255.221C302.894 256.318 302.26 257.409 301.626 258.506C300.347 260.713 299.145 262.728 297.238 264.177C295.769 265.293 294.073 266.656 292.269 266.483C290.727 266.336 289.47 265.93 287.949 266.601C286.82 267.099 285.794 267.93 284.861 268.841C283.969 269.718 282.603 270.303 283.056 271.893C283.386 273.05 283.855 273.622 284.669 274.148C284.669 274.148 289.539 280.893 292.957 278.054C293.302 277.768 293.493 277.276 293.797 276.924C294.565 276.046 295.514 275.428 296.411 274.777C300.798 271.586 305.185 268.402 309.577 265.212C311.526 263.796 313.835 262.466 315.135 260.086C315.81 258.843 316.074 257.287 315.94 255.771C315.678 252.785 311.725 249.279 310.437 247.35C309.123 245.381 308.098 243.206 306.923 241.124C305.769 239.082 302.687 235.39 300.482 232.896C299.24 231.492 295.484 224.548 293.304 221.275C292.135 219.519 290.769 217.737 288.991 216.958C287.213 216.179 285.264 216.165 283.461 215.42C283.187 215.307 282.925 215.187 282.657 215.061C281.14 219.815 280.577 225.048 281.896 230.036C284.002 238.011 281.473 230.455 281.396 230.203C279.835 225.061 280.001 219.495 281.641 214.555C280.626 214.009 279.642 213.384 278.673 212.725C277.79 217.28 275.475 221.037 272.073 223.729C269.041 226.135 265.15 225.994 262.388 223.187C262.887 225.874 264.917 227.889 267.221 228.036C274.695 228.518 267.479 228.522 267.185 228.515C264.402 228.501 262.001 225.827 261.78 222.409C261.764 222.189 262.115 222.07 262.228 222.203C265.042 225.642 269.273 225.769 272.387 222.858C275.259 220.179 276.584 215.956 277.276 211.74C275.972 210.816 274.663 209.858 273.468 208.753C273.432 208.74 273.401 208.72 273.395 208.68C273.03 206.499 273.206 204.317 273.686 202.176C273.933 201.086 274.248 200.022 274.593 198.978C274.769 198.453 274.826 198.24 275.253 198.054C275.702 197.854 276.222 198.154 276.681 198.014C277.119 197.881 277.676 197.39 278.037 197.017C278.352 196.698 278.527 196.013 278.661 195.554C278.971 194.497 279.192 193.38 279.301 192.263C279.368 191.578 279.43 191.245 278.94 190.913C278.775 190.8 278.714 190.913 278.574 190.713C278.291 190.307 278.539 189.476 278.606 189.044C278.74 188.206 278.843 187.355 278.916 186.504C279.081 184.522 279.071 182.507 278.809 180.532C278.335 176.947 276.991 173.602 274.682 171.28C272.074 168.666 268.848 167.94 265.698 169.468C264.1 170.246 262.595 171.303 261.069 172.266C260.296 172.758 259.358 173.197 258.981 174.247C258.723 174.966 258.754 175.784 258.506 176.508C258.202 177.406 257.63 178.137 257.294 179.022C257.011 179.773 256.804 180.571 256.686 181.396C256.428 183.158 256.592 184.913 257.087 186.589C257.277 187.235 257.437 187.753 257.164 188.392C256.988 188.797 256.622 189.017 256.55 189.535C256.488 189.974 256.601 190.44 256.72 190.845C256.957 191.663 257.261 192.349 257.214 193.24C257.167 194.104 256.868 195.042 257.224 195.866C257.641 196.844 258.76 195.993 259.033 197.037C259.249 197.882 259.269 198.873 259.285 199.751C259.341 202.457 258.938 205.244 257.675 207.504C257.675 207.531 257.649 207.571 257.577 207.617C257.242 207.823 256.953 207.876 256.69 207.81C256.375 211.933 254.472 215.616 252.946 219.293C251.553 222.651 250.12 226.295 247.32 228.189C247.063 228.362 250.538 221.487 251.931 218.076C253.426 214.419 254.762 210.582 254.845 206.439C254.526 205.954 254.248 205.362 253.959 204.903C252.913 203.24 252.449 202.269 251.146 200.912C248.925 198.61 246.497 196.528 244.488 193.94C244.606 195.842 244.559 197.797 244.703 199.653C244.944 202.759 245.66 205.725 246.407 208.718C248.616 217.556 245.995 209.15 245.907 208.884C244.928 205.99 244.444 202.925 244.203 199.819C244.054 197.857 243.75 194.944 243.349 192.344C243.333 192.317 243.318 192.297 243.303 192.277C243.277 192.237 243.287 192.191 243.318 192.151C243.303 192.058 243.287 191.958 243.272 191.865C241.974 188.24 239.629 185.36 238.052 181.928C236.095 177.671 235.06 172.663 234.576 167.815C234.293 164.996 233.686 160.932 233.449 159.562C232.971 156.809 232.832 154.009 232.817 151.196C232.817 151.163 232.833 151.129 232.858 151.103L232.812 151.103L233.155 139.944C233.175 139.199 233.201 138.428 233.366 137.676C233.609 136.579 234.13 135.635 234.635 134.718L234.692 134.611C236.589 131.167 238.399 127.384 240.106 123.654C240.926 121.858 241.726 120.076 242.499 118.354C243.123 116.965 244.737 115.269 243.521 114.271C243.124 113.945 242.103 114.47 241.123 117.07C240.762 117.689 239.948 118.746 238.364 122.117C238.313 122.23 238.287 121.711 238.287 121.711C238.612 120.541 238.891 118.426 239.304 116.012C239.711 114.357 239.567 114.124 239.789 113.372C240.362 111.118 240.357 110.28 239.749 110.087C238.991 109.848 238.589 109.987 238.047 112.534C237.634 114.476 237.938 113.897 237.34 115.546C236.953 116.344 236.175 118.804 235.87 120.028C235.561 121.271 235.519 121.644 235.37 121.677C234.385 121.896 234.385 121.564 233.664 120.719C233.448 120.399 232.798 120.186 232.406 120.346C231.968 120.519 231.618 120.991 231.386 121.31C231.252 121.496 230.829 120.937 230.484 120.871C230.355 120.844 229.02 121.05 228.628 121.974L227.127 124.667C226.849 125.152 226.71 125.79 226.637 126.382C226.591 126.755 226.637 127.147 226.689 127.559L226.689 127.579C227.09 130.891 227.352 134.263 227.46 137.608C226.561 143.427 225.462 149.464 224.708 155.316C223.96 161.088 223.809 166.881 224.669 172.647C225.353 177.614 226.873 182.077 228.454 186.653Z" fill="#FEFEFE"></path>
</g>
</g>
<defs>
<filter id="filter0_d_13_1660" x="220.071" y="110.005" width="99.9027" height="329.417" filterUnits="userSpaceOnUse" color-interpolation-filters="sRGB">
<feFlood flood-opacity="0" result="BackgroundImageFix"></feFlood>
<feColorMatrix in="SourceAlpha" type="matrix" values="0 0 0 0 0 0 0 0 0 0 0 0 0 0 0 0 0 0 127 0" result="hardAlpha"></feColorMatrix>
<feOffset dy="4"></feOffset>
<feGaussianBlur stdDeviation="2"></feGaussianBlur>
<feComposite in2="hardAlpha" operator="out"></feComposite>
<feColorMatrix type="matrix" values="0 0 0 0 0.056951 0 0 0 0 0.319023 0 0 0 0 0.363525 0 0 0 1 0"></feColorMatrix>
<feBlend mode="normal" in2="BackgroundImageFix" result="effect1_dropShadow_13_1660"></feBlend>
<feBlend mode="normal" in="SourceGraphic" in2="effect1_dropShadow_13_1660" result="shape"></feBlend>
</filter>
</defs>
</svg>