<svg width="422" height="800" viewBox="0 0 422 800" fill="none" xmlns="http://www.w3.org/2000/svg">
<rect y="2" width="422" height="798" rx="211" fill="#188294"></rect>
<rect x="18" y="24" width="386" height="756" rx="193" fill="#E25737"></rect>
<path d="M93 582.907V214.184C93 212.252 93.0513 210.32 93.1436 208.387C93.241 206.455 93.3795 204.528 93.5692 202.6C93.759 200.678 93.9948 198.756 94.2769 196.844C94.5641 194.932 94.8923 193.026 95.2666 191.129C95.6461 189.233 96.0666 187.347 96.5384 185.471C97.005 183.59 97.5178 181.729 98.0819 179.879C98.6409 178.029 99.246 176.189 99.8972 174.37C100.543 172.551 101.241 170.747 101.979 168.958C102.718 167.17 103.497 165.402 104.323 163.654C105.148 161.907 106.015 160.18 106.928 158.474C107.835 156.768 108.784 155.082 109.779 153.427C110.769 151.767 111.805 150.133 112.876 148.524C113.948 146.916 115.056 145.333 116.21 143.781C117.358 142.228 118.543 140.702 119.768 139.207C120.994 137.711 122.256 136.251 123.548 134.818C124.845 133.384 126.173 131.981 127.543 130.614C128.907 129.246 130.301 127.915 131.732 126.615C133.163 125.315 134.624 124.051 136.117 122.827C137.609 121.599 139.127 120.407 140.675 119.256C142.229 118.104 143.804 116.989 145.409 115.915C147.014 114.841 148.644 113.808 150.301 112.811C151.952 111.819 153.634 110.868 155.337 109.953C157.039 109.044 158.762 108.175 160.506 107.348C162.249 106.52 164.013 105.734 165.798 104.994C167.577 104.254 169.377 103.56 171.198 102.907C173.013 102.255 174.844 101.648 176.69 101.088C178.541 100.528 180.397 100.009 182.269 99.541C184.141 99.0682 186.023 98.6468 187.915 98.2716C189.812 97.8913 191.71 97.5624 193.623 97.2797C195.53 96.9919 197.443 96.7555 199.366 96.5653C201.284 96.3803 203.207 96.2364 205.135 96.1388C207.063 96.0463 208.991 96 210.925 96C212.853 96 214.781 96.0463 216.709 96.1388C218.637 96.2364 220.56 96.3803 222.483 96.5653C224.401 96.7555 226.314 96.9919 228.227 97.2797C230.134 97.5624 232.037 97.8913 233.929 98.2716C235.821 98.6468 237.703 99.0682 239.575 99.541C241.447 100.009 243.308 100.528 245.154 101.088C247 101.648 248.831 102.255 250.647 102.907C252.467 103.56 254.267 104.254 256.046 104.994C257.831 105.734 259.595 106.52 261.339 107.348C263.087 108.175 264.81 109.044 266.508 109.953C268.21 110.868 269.892 111.819 271.543 112.811C273.2 113.808 274.83 114.841 276.436 115.915C278.041 116.989 279.62 118.104 281.169 119.256C282.717 120.407 284.24 121.599 285.733 122.827C287.225 124.051 288.681 125.315 290.112 126.615C291.543 127.915 292.943 129.246 294.307 130.614C295.671 131.981 296.999 133.384 298.296 134.818C299.594 136.251 300.85 137.711 302.076 139.207C303.301 140.702 304.486 142.228 305.635 143.781C306.788 145.333 307.896 146.916 308.968 148.524C310.04 150.133 311.075 151.767 312.065 153.427C313.06 155.082 314.009 156.768 314.922 158.474C315.829 160.18 316.696 161.907 317.521 163.654C318.347 165.402 319.127 167.17 319.865 168.958C320.603 170.747 321.301 172.551 321.952 174.37C322.598 176.189 323.203 178.029 323.767 179.879C324.326 181.729 324.839 183.59 325.311 185.471C325.778 187.347 326.203 189.233 326.578 191.129C326.952 193.026 327.285 194.932 327.567 196.844C327.849 198.756 328.085 200.678 328.275 202.6C328.465 204.528 328.608 206.455 328.701 208.387C328.798 210.32 328.844 212.252 328.844 214.184V582.907C328.844 584.839 328.798 586.772 328.701 588.704C328.608 590.637 328.465 592.564 328.275 594.491C328.085 596.413 327.849 598.335 327.567 600.247C327.285 602.159 326.952 604.066 326.578 605.962C326.203 607.859 325.778 609.745 325.311 611.621C324.839 613.496 324.326 615.362 323.767 617.212C323.203 619.062 322.598 620.902 321.952 622.722C321.301 624.541 320.603 626.345 319.865 628.133C319.127 629.922 318.347 631.69 317.521 633.437C316.696 635.185 315.829 636.911 314.922 638.618C314.009 640.324 313.06 642.004 312.065 643.664C311.075 645.324 310.04 646.959 308.968 648.567C307.896 650.176 306.788 651.754 305.635 653.311C304.486 654.863 303.301 656.384 302.076 657.88C300.85 659.375 299.594 660.84 298.296 662.274C296.999 663.708 295.671 665.106 294.307 666.478C292.943 667.845 291.543 669.176 290.112 670.476C288.681 671.777 287.225 673.036 285.733 674.264C284.24 675.492 282.717 676.68 281.169 677.836C279.62 678.987 278.041 680.097 276.436 681.171C274.83 682.251 273.2 683.284 271.543 684.276C269.892 685.273 268.21 686.223 266.508 687.138C264.81 688.048 263.087 688.916 261.339 689.744C259.595 690.571 257.831 691.358 256.046 692.098C254.267 692.838 252.467 693.532 250.647 694.184C248.831 694.837 247 695.443 245.154 696.004C243.308 696.564 241.447 697.078 239.575 697.551C237.703 698.018 235.821 698.445 233.929 698.82C232.037 699.2 230.134 699.529 228.227 699.812C226.314 700.094 224.401 700.331 222.483 700.521C220.56 700.711 218.637 700.855 216.709 700.948C214.781 701.045 212.853 701.092 210.925 701.092C208.991 701.092 207.063 701.045 205.135 700.948C203.207 700.855 201.284 700.711 199.366 700.521C197.443 700.331 195.53 700.094 193.623 699.812C191.71 699.529 189.812 699.2 187.915 698.82C186.023 698.445 184.141 698.018 182.269 697.551C180.397 697.078 178.541 696.564 176.69 696.004C174.844 695.443 173.013 694.837 171.198 694.184C169.377 693.532 167.577 692.838 165.798 692.098C164.013 691.358 162.249 690.571 160.506 689.744C158.762 688.916 157.039 688.048 155.337 687.138C153.634 686.223 151.952 685.273 150.301 684.276C148.644 683.284 147.014 682.251 145.409 681.171C143.804 680.097 142.229 678.987 140.675 677.836C139.127 676.68 137.609 675.492 136.117 674.264C134.624 673.036 133.163 671.777 131.732 670.476C130.301 669.176 128.907 667.845 127.543 666.478C126.173 665.106 124.845 663.708 123.548 662.274C122.256 660.84 120.994 659.375 119.768 657.88C118.543 656.384 117.358 654.863 116.21 653.311C115.056 651.754 113.948 650.176 112.876 648.567C111.805 646.959 110.769 645.324 109.779 643.664C108.784 642.004 107.835 640.324 106.928 638.618C106.015 636.911 105.148 635.185 104.323 633.437C103.497 631.69 102.718 629.922 101.979 628.133C101.241 626.345 100.543 624.541 99.8972 622.722C99.246 620.902 98.6409 619.062 98.0819 617.212C97.5178 615.362 97.005 613.496 96.5384 611.621C96.0666 609.745 95.6461 607.859 95.2666 605.962C94.8923 604.066 94.5641 602.159 94.2769 600.247C93.9948 598.335 93.759 596.413 93.5692 594.491C93.3795 592.564 93.241 590.637 93.1436 588.704C93.0513 586.772 93 584.839 93 582.907Z" fill="#188294"></path>
<path d="M198.303 513.588C200.671 516.956 205.742 519.415 209.486 520.416C206.179 519.231 203.746 514.298 201.624 511.288C198.928 507.452 197.307 502.791 196.779 497.968C195.724 488.245 195.85 497.978 195.895 498.239C196.66 503.063 195.579 509.719 198.303 513.588Z" fill="#FEFEFE"></path>
<path d="M205.41 534.668C205.374 534.7 205.319 534.733 205.255 534.765C205.046 534.852 204.854 534.961 204.663 535.069C203.086 536.068 202.074 537.773 201.272 539.609C200.743 540.815 200.342 543.27 199.194 543.921C199.166 543.932 199.139 543.943 199.121 543.954C199.093 543.975 199.066 543.997 199.039 544.008C197.034 545.137 193.654 539.987 193.736 539.911C193.317 538.954 191.359 534.326 194.146 539.378C194.848 540.519 195.804 541.617 196.287 542.073C196.77 542.53 197.863 543.529 198.528 543.41C198.565 543.399 198.611 543.389 198.647 543.367C199.422 542.77 199.932 540.445 200.279 539.641C201.3 537.306 202.686 535.242 204.891 534.276C204.909 534.265 204.927 534.265 204.945 534.255C204.982 534.233 205.018 534.2 205.055 534.179C207.925 532.213 205.984 534.418 205.41 534.668Z" fill="#FEFEFE"></path>
<path fill-rule="evenodd" clip-rule="evenodd" d="M207.641 544.065C207.423 540.687 206.785 537.33 206.841 533.929C206.887 530.681 207.89 527.672 208.601 524.566C208.921 523.186 209.213 521.807 209.486 520.416C205.742 519.415 200.671 516.956 198.303 513.588C195.579 509.719 196.66 503.063 195.895 498.239C195.85 497.978 195.724 488.245 196.779 497.968C197.307 502.791 198.928 507.452 201.624 511.288C203.746 514.298 206.179 519.231 209.486 520.416C209.678 519.352 210.271 516.18 210.444 515.115C210.444 515.093 210.453 515.072 210.453 515.05C210.481 514.876 210.517 514.691 210.544 514.518C211.083 511.128 211.712 507.576 211.239 504.121C210.821 501.014 209.317 498.396 208.134 495.614C206.931 492.8 206.23 489.802 206.012 486.684C206.012 486.662 206.012 486.651 206.021 486.629C205.584 484.294 205.312 481.925 205.248 479.525C205.212 478.069 205.34 476.602 205.231 475.157C205.095 473.311 204.357 471.92 203.291 470.54C200.139 466.454 196.403 462.487 191.994 460.237C187.01 457.693 181.159 457.898 176.521 461.329C172.119 464.576 169.733 468.645 169.932 474.565C169.676 474.329 170.109 476.992 170.109 476.992C170.464 478.198 170.449 478.904 170.858 480.077C172.479 484.717 174.793 489.019 176.924 493.376L176.942 493.412C179.213 498.061 181.484 502.711 183.537 507.49C185.459 511.978 187.317 516.606 188.127 521.538C188.918 526.406 188.516 531.381 187.067 536.041C187.048 536.084 187.012 536.128 186.966 536.171C186.064 539.191 185.316 542.265 184.759 545.393C182.816 556.311 183.443 567.315 185.236 578.19C186.683 586.969 188.212 595.692 188.556 604.644C188.583 605.372 188.456 606.339 188.61 607.056C188.738 607.653 189.175 608.142 189.275 608.805C189.421 609.718 189.266 610.717 188.819 611.499C188.454 612.129 186.55 614.019 186.03 614.464C186.208 614.939 186.432 615.352 186.693 615.718C187.798 617.264 189.565 617.971 191.26 619.061C193.929 620.767 197.082 621.203 200.098 621.128C200.39 621.117 200.626 621.878 200.271 622.117C196.635 624.625 192.36 625.319 188.27 624.003C187.741 623.829 182.64 621.6 188.789 623.362C192.197 624.341 195.715 624.049 198.813 622.257C196.089 622.213 193.327 621.734 190.895 620.288C189.032 619.19 187.752 617.586 186.693 615.718C186.463 615.311 186.243 614.893 186.03 614.464C185.283 615.604 184.927 617.027 184.772 618.418C184.489 620.938 184.789 623.502 184.561 626.044C183.73 635.321 180.985 644.239 180.154 653.516C179.816 657.264 179.642 661.468 181.054 664.988C182.055 667.476 183.659 669.573 186.155 669.878C188.588 670.173 191.258 670.217 193.7 670.12C195.523 670.055 197.5 669.687 198.831 668.123C199.751 667.037 200.207 665.549 200.554 664.126C201.366 660.758 201.348 657.249 201.103 653.795C200.876 650.568 200.448 647.363 200.267 644.137C200.067 640.661 200.277 637.206 200.551 633.741C200.67 632.263 200.743 630.742 201.09 629.309C201.427 627.918 202.193 626.767 202.603 625.409C203.12 623.7 202.819 622.002 202.516 620.293L202.495 620.173C202.213 618.598 202.049 617.022 201.858 615.425C201.094 608.755 199.847 602.041 200.003 595.284C200.251 584.073 206.496 574.569 208.019 563.663C208.448 560.621 208.239 557.699 208.085 554.636C207.913 551.116 207.877 547.585 207.641 544.065ZM192.436 523.376C193.121 515.62 192.045 522.322 191.862 523.473C191.771 523.539 191.142 528.503 192.781 529.992C193.72 530.839 194.886 530.992 196.08 530.982C196.818 531.004 197.574 530.949 198.303 530.906C198.677 530.906 199.634 530.95 199.743 530.885C205.421 531.078 200.687 530.374 199.933 530.262L199.889 530.255C198.021 529.972 195.651 530.84 193.984 529.666C192.818 528.851 192.436 527.406 192.354 525.929C192.363 525.125 192.528 523.408 192.436 523.376ZM202.34 574.916C202.942 570.158 204.565 565.661 205.049 560.881C205.415 557.198 205.087 553.298 204.578 549.659C204.55 549.42 202.994 542.467 203.967 549.68C204.623 551.506 201.921 576.154 201.757 575.296C201.327 581.879 202.304 575.187 202.34 574.916ZM205.255 534.765C205.319 534.733 205.374 534.7 205.41 534.668C205.984 534.418 207.925 532.213 205.055 534.179C205.018 534.2 204.982 534.233 204.945 534.255C204.927 534.265 204.909 534.265 204.891 534.276C202.686 535.242 201.3 537.306 200.279 539.641C199.932 540.445 199.422 542.77 198.647 543.367C198.611 543.389 198.565 543.399 198.528 543.41C197.863 543.529 196.77 542.53 196.287 542.073C195.804 541.617 194.848 540.519 194.146 539.378C191.359 534.326 193.317 538.954 193.736 539.911C193.654 539.987 197.034 545.137 199.039 544.008C199.066 543.997 199.093 543.975 199.121 543.954C199.139 543.943 199.166 543.932 199.194 543.921C200.342 543.27 200.743 540.815 201.272 539.609C202.074 537.773 203.086 536.068 204.663 535.069C204.854 534.961 205.046 534.852 205.255 534.765Z" fill="#FEFEFE"></path>
<path d="M191.862 523.473C192.045 522.322 193.121 515.62 192.436 523.376C192.528 523.408 192.363 525.125 192.354 525.929C192.436 527.406 192.818 528.851 193.984 529.666C195.651 530.84 198.021 529.972 199.889 530.255L199.933 530.262C200.687 530.374 205.421 531.078 199.743 530.885C199.634 530.95 198.677 530.906 198.303 530.906C197.574 530.949 196.818 531.004 196.08 530.982C194.886 530.992 193.72 530.839 192.781 529.992C191.142 528.503 191.771 523.539 191.862 523.473Z" fill="#FEFEFE"></path>
<path d="M205.049 560.881C204.565 565.661 202.942 570.158 202.34 574.916C202.304 575.187 201.327 581.879 201.757 575.296C201.921 576.154 204.623 551.506 203.967 549.68C202.994 542.467 204.55 549.42 204.578 549.659C205.087 553.298 205.415 557.198 205.049 560.881Z" fill="#FEFEFE"></path>
<path d="M191.26 619.061C189.565 617.971 187.798 617.264 186.693 615.718C187.752 617.586 189.032 619.19 190.895 620.288C193.327 621.734 196.089 622.213 198.813 622.257C195.715 624.049 192.197 624.341 188.789 623.362C182.64 621.6 187.741 623.829 188.27 624.003C192.36 625.319 196.635 624.625 200.271 622.117C200.626 621.878 200.39 621.117 200.098 621.128C197.082 621.203 193.929 620.767 191.26 619.061Z" fill="#FEFEFE"></path>
<path d="M204.856 329.424C209.739 334.01 216.617 334.241 221.975 330.31C223.673 329.069 225.093 326.946 226.272 324.543C225.226 326.16 223.992 327.628 222.531 328.887C217.027 333.643 209.547 333.423 204.574 327.816C204.373 327.599 203.754 327.794 203.781 328.153C204.172 333.736 208.417 338.105 213.336 338.128C213.856 338.139 226.611 338.133 213.4 337.346C209.328 337.106 205.739 333.813 204.856 329.424Z" fill="#FEFEFE"></path>
<path d="M239.339 340.614C237.008 332.466 236.208 323.091 238.888 315.325C235.989 323.395 235.696 332.487 238.455 340.886C238.591 341.299 243.062 353.641 239.339 340.614Z" fill="#FEFEFE"></path>
<path fill-rule="evenodd" clip-rule="evenodd" d="M171.566 279.614C171.566 279.614 171.394 279.297 171.138 278.735L171.382 279.142L171.566 279.614Z" fill="#FEFEFE"></path>
<path d="M170.251 282.911C170.105 285.609 169.976 286.129 170.062 286.161C170.146 286.193 170.438 285.749 171.127 286.453C171.313 284.04 171.23 284.199 171.044 284.553C170.83 284.961 170.48 285.628 170.251 282.911Z" fill="#FEFEFE"></path>
<path d="M171.566 279.614C170.8 279.85 170.996 280.812 170.701 281.011C170.409 281.209 170.124 281.401 170.251 282.911C170.126 281.39 170.465 281.313 170.793 281.239C171.155 281.157 171.848 279.946 171.566 279.614Z" fill="#FEFEFE"></path>
<path fill-rule="evenodd" clip-rule="evenodd" d="M192.515 304.641C192.54 304.658 192.681 304.78 192.711 304.793C192.714 304.804 192.717 304.813 192.719 304.822C192.721 304.829 192.723 304.835 192.725 304.841C192.726 304.846 192.799 304.85 192.8 304.854C192.759 304.829 192.644 304.807 192.599 304.787C192.568 304.736 192.529 304.667 192.515 304.641C192.347 304.424 192.198 304.202 192.515 304.641C192.544 304.682 192.653 304.717 192.698 304.746L192.515 304.641Z" fill="#FEFEFE"></path>
<path d="M188.157 323.063C186.003 327.862 195.434 308.345 193.025 305.13C193.017 305.12 192.862 304.971 192.725 304.841L192.8 304.854L192.804 304.868C192.804 304.873 192.804 304.877 192.804 304.882C192.805 304.899 192.805 304.911 192.803 304.919C192.748 307.296 192.373 309.358 191.889 311.292C191.133 315.33 189.949 319.074 188.157 323.063Z" fill="#FEFEFE"></path>
<path d="M192.799 304.928C192.612 307.168 192.269 309.267 191.889 311.292C192.373 309.358 192.748 307.296 192.803 304.919C192.802 304.923 192.801 304.926 192.799 304.928Z" fill="#FEFEFE"></path>
<path d="M191.2 304.869C190.744 305.151 185.332 327.397 187.793 321.824C187.989 321.38 188.183 320.946 188.374 320.519L188.455 320.337C189.767 317.4 190.914 314.832 191.69 312.046C191.759 311.796 191.826 311.546 191.889 311.292C192.269 309.267 192.612 307.168 192.799 304.928C192.781 304.951 192.65 304.869 192.599 304.787C192.257 304.637 191.797 304.652 191.2 304.869Z" fill="#FEFEFE"></path>
<path d="M231.172 310.727C230.991 310.648 230.66 311.81 230.146 313.621C229.404 316.229 228.28 320.183 226.669 323.706C226.54 323.988 226.408 324.268 226.272 324.543C228.863 320.542 230.302 315.632 231.172 310.727Z" fill="#FEFEFE"></path>
<path fill-rule="evenodd" clip-rule="evenodd" d="M280.54 377.485C280.593 377.435 280.646 377.385 280.699 377.336C281.175 376.9 281.659 376.54 282.157 376.23C282.152 376.234 282.147 376.238 282.143 376.242C281.7 376.622 281.314 376.991 281.046 377.249C280.81 377.474 280.664 377.614 280.651 377.597C280.622 377.561 280.584 377.523 280.54 377.485Z" fill="#FEFEFE"></path>
<path d="M284.622 375.045C290.271 372.864 285.06 374.567 284.54 374.719C283.778 374.942 282.891 375.599 282.157 376.23C282.936 375.744 283.75 375.382 284.622 375.045Z" fill="#FEFEFE"></path>
<path fill-rule="evenodd" clip-rule="evenodd" d="M235.198 427.533C235.87 427.063 222.044 424.469 222.563 423.924C222.251 424.576 236.015 427.149 235.171 427.552C235.18 427.546 235.189 427.539 235.198 427.533Z" fill="#FEFEFE"></path>
<path d="M222.51 431.893C225.727 431.405 228.979 430.7 232.005 429.354C232.78 429.011 234.011 428.36 235.171 427.552C233.723 428.242 231.869 428.644 230.902 429.028C227.85 430.243 224.597 430.883 221.39 431.295C214.01 432.248 206.202 432.115 199.023 429.777C198.622 429.646 186.742 426.318 198.512 430.472C206.156 433.169 214.62 433.085 222.51 431.893Z" fill="#FEFEFE"></path>
<path d="M299.517 382.655C299.053 377.777 292.066 372.05 289.789 368.898C287.467 365.682 285.654 362.129 283.578 358.728C281.538 355.392 276.09 349.351 272.192 345.286C269.996 342.993 263.357 331.65 259.504 326.304C257.436 323.435 255.023 320.523 251.88 319.251C248.737 317.979 245.293 317.956 242.104 316.738C241.621 316.553 239.362 315.531 238.888 315.325C236.208 323.091 237.008 332.466 239.339 340.614C243.062 353.641 238.591 341.299 238.455 340.886C235.696 332.487 235.989 323.395 238.888 315.325C237.094 314.433 231.818 311.008 231.172 310.727C230.302 315.632 228.863 320.542 226.272 324.543C225.093 326.946 223.673 329.069 221.975 330.31C216.617 334.241 209.739 334.01 204.856 329.424C205.739 333.813 209.328 337.106 213.4 337.346C226.611 338.133 213.856 338.139 213.336 338.128C208.417 338.105 204.172 333.736 203.781 328.153C203.754 327.794 204.373 327.599 204.574 327.816C209.547 333.423 217.027 333.643 222.531 328.887C223.992 327.628 225.226 326.16 226.272 324.543C226.408 324.268 226.54 323.988 226.669 323.706C228.28 320.183 229.404 316.229 230.146 313.621C230.66 311.81 230.991 310.648 231.172 310.727C228.867 309.216 226.554 307.651 224.44 305.847C224.376 305.825 224.322 305.792 224.313 305.727C223.666 302.164 223.977 298.601 224.825 295.103C225.263 293.322 225.819 291.584 226.43 289.878C226.74 289.02 227.004 289.051 227.475 288.343C228.12 287.373 228.241 287.399 228.752 286.708C229.519 286.218 229.902 285.41 230.54 284.802C231.562 283.149 231.562 283.385 232.329 281.732C232.876 280.005 232.903 280.703 233.095 278.878C233.466 277.719 233.292 278.012 233.466 276.65C233.48 276.538 233.466 276.429 233.466 276.378C232.965 275.715 233.403 274.357 233.521 273.651C233.758 272.282 233.941 270.892 234.069 269.502C234.361 266.264 234.343 262.973 233.879 259.746C233.042 253.891 230.665 248.426 226.585 244.633C221.975 240.362 216.272 239.176 210.705 241.672C207.88 242.943 205.219 244.669 202.522 246.243C201.155 247.046 199.497 247.763 198.832 249.479C198.376 250.652 198.43 251.988 197.993 253.172C197.455 254.639 196.443 255.833 195.851 257.278C195.349 258.505 194.985 259.819 194.775 261.156C194.319 264.034 194.61 266.902 195.484 269.64L195.498 269.683C195.828 270.717 196.096 271.555 195.62 272.584C195.31 273.247 194.663 273.605 194.535 274.452C194.426 275.169 194.626 275.93 194.836 276.592C195.254 277.929 196.424 279.331 196.342 280.787C196.515 282.912 197.213 282.273 197.841 283.62C198.579 285.217 198.442 285.002 198.915 286.707C199.298 288.087 199.334 289.706 199.361 291.14C199.46 295.561 198.748 300.113 196.516 303.805C196.516 303.849 196.47 303.914 196.342 303.99C195.899 304.242 193.526 305.157 192.711 304.793L192.719 304.822L192.725 304.841C192.862 304.971 193.017 305.12 193.025 305.13C195.434 308.345 186.003 327.862 188.157 323.063C189.949 319.074 191.133 315.33 191.889 311.292C191.826 311.546 191.759 311.796 191.69 312.046C190.914 314.832 189.767 317.4 188.455 320.337L188.374 320.519C188.183 320.946 187.989 321.38 187.793 321.824C185.332 327.397 190.744 305.151 191.2 304.869C191.797 304.652 192.257 304.637 192.599 304.787C192.568 304.736 192.529 304.667 192.515 304.641C192.54 304.658 192.681 304.78 192.711 304.793C192.603 304.429 192.059 302.772 190.433 300.383C188.584 297.667 187.279 295.253 184.974 293.047L184.605 292.693C180.662 288.918 175.009 283.711 171.566 279.614C171.848 279.946 171.155 281.157 170.793 281.239C170.465 281.313 170.126 281.39 170.251 282.911C170.48 285.628 170.83 284.961 171.044 284.553C171.23 284.199 171.313 284.04 171.127 286.453C170.438 285.749 170.146 286.193 170.062 286.161C169.976 286.129 170.105 285.609 170.251 282.911C170.124 281.401 170.409 281.209 170.701 281.011C170.996 280.812 170.8 279.85 171.566 279.614C171.566 279.614 171.394 279.297 171.138 278.735C171.11 278.583 171.082 278.586 171.055 278.434C168.76 272.512 164.616 267.641 161.83 262.035C158.369 255.081 156.539 246.9 155.684 238.981C155.184 234.374 154.11 227.737 153.692 225.499C152.845 221.001 152.6 216.427 152.574 211.832C152.574 211.778 152.601 211.724 152.647 211.68L152.565 211.68L153.17 193.452C153.206 192.235 153.252 190.975 153.544 189.748C153.972 187.959 154.889 186.42 155.78 184.924L155.786 184.914L155.887 184.74C159.241 179.114 162.44 172.934 165.457 166.841C166.906 163.909 168.735 161.28 170.102 158.467C171.205 156.197 174.956 150.309 172.401 149.26C170.115 148.321 168.784 151.585 167.066 155.797L167.037 155.87C166.548 157.069 165.748 157.918 162.95 163.425C161.417 164.37 160.906 162.953 160.906 162.953C160.906 162.245 162.351 158.633 163.081 154.69C163.801 151.985 163.532 153.482 164.226 150.204C164.921 146.926 164.818 146.69 163.644 146.217C162.47 145.744 161.345 146.216 160.331 148.55C159.317 150.884 159.696 150.911 159.054 153.508C158.37 154.811 157.553 158.683 157.015 160.681C156.468 162.713 156.696 162.958 156.432 163.012C154.691 163.37 155.24 163.619 153.9 162.948C153.389 162.712 152.479 162.503 151.856 162.476C151.233 162.448 150.068 162.712 149.812 162.712C149.557 162.712 149.145 163.057 148.535 162.948C148.404 162.926 145.814 163.026 145.13 164.536L142.478 168.935C141.986 169.727 141.74 170.77 141.649 171.298C141.567 171.906 141.649 172.547 141.74 173.22L141.74 173.253C142.449 178.663 142.913 184.171 143.103 189.635C141.516 199.14 139.573 209.003 138.241 218.562C136.918 227.991 136.652 237.453 138.171 246.872C139.464 254.901 142.159 262.202 144.954 269.666C147.714 277.043 150.454 284.463 154.034 291.385C155.582 294.373 157.312 297.056 159.38 299.61C160.774 301.338 162.331 302.848 163.752 304.543C165.228 306.293 166.603 308.162 167.869 310.107C168.926 311.737 170.156 313.562 170.319 315.637C170.465 317.506 170.109 319.341 169.963 321.199C169.798 323.306 169.934 325.468 170.025 327.576C170.207 331.856 170.552 336.136 171.171 340.362C172.39 348.738 174.092 357.006 175.202 365.393C176.302 373.638 176.92 382.014 176.281 390.335C176.125 392.323 175.888 394.3 175.733 396.288C175.578 398.363 175.623 400.449 175.513 402.523C175.403 404.598 174.792 407.357 174.054 410.04C193.075 421.595 204.415 425.32 225.543 424.578C225.78 424.568 222.601 423.452 222.51 423.756C222.341 424.302 223.067 423.395 222.563 423.924C222.251 424.576 236.015 427.149 235.171 427.552C234.011 428.36 232.78 429.011 232.005 429.354C228.979 430.7 225.727 431.405 222.51 431.893C214.62 433.085 206.156 433.169 198.512 430.472C186.742 426.318 198.622 429.646 199.023 429.777C206.202 432.115 214.01 432.248 221.39 431.295C224.597 430.883 227.85 430.243 230.902 429.028C231.869 428.644 233.723 428.242 235.171 427.552L235.198 427.533C235.87 427.063 222.044 424.469 222.563 423.924C201.334 424.623 192.141 424.607 173.102 413.009L172.846 413.481C172.684 413.996 172.747 413.724 172.591 414.189L172.431 414.711C170.698 422.858 168.774 430.994 167.533 439.249C166.685 444.952 166.474 450.655 167.065 456.402C167.638 461.943 168.561 471.296 170.037 476.755C170.293 477.7 174.219 465.242 176.935 462.353C182.995 455.935 187.592 458.88 194.306 463.77C196.174 465.129 202.666 473.309 204.269 475.036C205.544 476.416 205.035 474.631 205.035 473.45C205.035 473.45 203.348 455.014 204.851 454.089C205.618 453.618 207.151 453.618 208.939 455.507C213.282 462.118 211.494 472.034 211.494 475.037C211.494 479.595 211.494 479 211.994 481.005C213.195 485.82 213 486.5 214 489C216 496 213.317 498.654 223.94 500.602C231.776 502.039 245.399 501.074 246.543 487.869C246.57 487.561 246.676 486.908 246.68 486.739C247.474 477.31 246.656 471.302 245.992 461.884C245.302 452.161 244.42 442.362 242.135 432.932C241.78 431.628 241.471 430.313 241.207 429.01C238.168 409.617 243.229 387.198 246.157 368.21C246.559 365.592 246.878 362.963 247.252 360.345C247.508 358.542 247.645 356.434 248.401 354.794C249.641 352.079 252.675 352.905 254.651 354.014C257.867 355.808 259.953 359.209 262.002 362.403C264.288 365.956 266.866 369.129 270.045 371.683C271.639 372.966 273.334 374.074 275.101 374.998C275.994 375.466 276.914 375.879 277.843 376.26C278.324 376.461 279.99 377.016 280.54 377.485C280.593 377.435 280.646 377.385 280.699 377.336C281.175 376.9 281.659 376.54 282.157 376.23C282.891 375.599 283.778 374.942 284.54 374.719C285.06 374.567 290.271 372.864 284.622 375.045C283.75 375.382 282.936 375.744 282.157 376.23L282.143 376.242C281.7 376.622 281.314 376.991 281.046 377.249C280.81 377.474 280.664 377.614 280.651 377.597C280.622 377.561 280.584 377.523 280.54 377.485C280.039 377.964 279.547 378.53 279.055 379.215C279.055 379.215 278.043 381.094 277.678 381.68C276.557 383.472 275.436 385.254 274.315 387.046C272.055 390.651 269.931 393.953 266.56 396.309C263.963 398.133 266.177 397.468 262.989 397.184C260.264 396.944 258.041 396.281 255.353 397.377C253.358 398.191 251.545 399.548 249.895 401.036C248.319 402.469 245.904 403.424 246.705 406.021C247.288 407.911 248.117 408.846 249.556 409.705C249.556 409.705 258.164 420.723 264.206 416.087C264.816 415.62 267.26 413.517 267.797 412.952C269.155 411.518 268.408 410.769 269.993 409.705C277.748 404.493 280.608 403.212 288.371 398.001C291.816 395.688 295.898 393.517 298.195 389.639C299.288 387.684 299.753 385.132 299.517 382.655Z" fill="#FEFEFE"></path>
<path d="M227.634 500.691C221.009 500.374 214.727 490.214 214.785 490.45C214.843 490.686 214.888 493.519 215.251 495.644C215.613 497.769 216.134 501.335 216.416 504.616C216.706 507.896 217.193 508.393 216.183 514.532C215.95 515.948 216.002 515.948 215.95 516.893C215.717 521.142 214.446 524.13 214.628 528.552C214.735 531.007 214.868 533.462 215.15 535.885C215.423 538.253 216.038 540.578 216.162 542.968C216.394 547.412 214.997 551.626 213.824 555.743C213.133 558.165 212.484 560.631 212.251 563.195C212.001 565.943 212.366 568.627 212.806 571.31C212.848 571.343 212.881 571.386 212.881 571.451C213.553 577.122 214.233 582.793 214.905 588.464C215.171 590.702 215.262 592.549 214.788 594.754C214.43 596.405 213.814 597.806 213.29 599.36C212.758 600.956 212.617 601.652 212.517 603.52C212.508 603.824 212.483 604.324 212.466 604.9C212.441 605.617 212.349 608.137 212.341 608.463C212.299 612.222 213.212 615.775 213.053 619.523C212.911 622.956 212.902 626.519 212.519 629.919C212.194 632.874 211.62 635.796 211.179 638.729C210.763 641.477 210.38 644.095 210.728 646.865C210.986 648.94 210.952 651.352 212.007 653.101C213.403 655.416 215.955 656.242 218.149 656.591C220.534 656.972 223.169 656.897 225.439 655.8C228.107 654.519 229.263 650.88 229.655 647.578C229.971 644.873 230.155 641.994 230.114 639.257C230.032 633.988 229.476 628.686 228.953 623.461C228.746 621.375 228.547 619.289 228.24 617.225C228.116 616.356 227.949 615.552 227.85 614.704C227.542 615.093 227.203 615.441 226.836 615.738C226.251 616.214 225.596 616.563 224.89 616.756C223.012 617.277 221 616.712 219.396 615.408C218.532 614.712 217.792 613.843 217.111 612.908C217.883 616.276 219.728 619.243 222.23 620.905C222.928 621.362 221.373 622.252 220.883 621.926C217.218 619.502 214.933 614.613 215.025 609.464C215.034 608.845 216.381 608.454 216.663 608.921C216.673 608.938 216.683 608.954 216.693 608.971C218.502 612.01 221.028 616.253 224.5 615.735C225.394 615.602 226.209 615.848 226.836 615.738C227.281 615.66 227.632 615.403 227.85 614.704C227.891 614.574 227.676 611.869 227.709 611.739C227.676 610.239 227.643 608.381 227.627 607.74C227.636 604.894 227.786 602.048 228.219 599.343C229.234 592.934 230.616 586.894 232.338 580.724C232.254 580.681 232.205 580.594 232.238 580.463C234.742 569.872 236.091 558.879 236.168 547.842C236.203 543.116 235.68 538.26 236.271 533.567C236.837 529.113 238.7 525.127 240.205 521.097C241.852 516.676 242.734 512.049 243.492 507.28C244.258 502.468 246.759 487.617 246.293 487.854C245.827 487.854 245.482 492.333 245.498 492.115C240.784 497.817 234.225 501.02 227.634 500.691ZM232.551 554.456C232.476 554.511 229.475 555.194 228.129 555.411C227.547 555.508 226.965 555.541 226.417 555.269C224.713 554.41 222.993 549.434 223.076 549.38C222.894 548.728 221.648 543.654 223.625 549.174C223.625 549.185 223.633 549.185 223.633 549.196C223.692 549.206 224.539 551.075 224.971 551.977C225.428 552.748 225.927 553.476 226.425 554.074C227.813 555.726 230.706 554.249 232.443 554.022C237.331 553.35 233.332 554.283 232.551 554.456Z" fill="#FEFEFE"></path>
<path d="M232.551 554.456C232.476 554.511 229.475 555.194 228.129 555.411C227.547 555.508 226.965 555.541 226.417 555.269C224.713 554.41 222.993 549.434 223.076 549.38C222.894 548.728 221.648 543.654 223.625 549.174C223.625 549.185 223.633 549.185 223.633 549.196C223.692 549.206 224.539 551.075 224.971 551.977C225.428 552.748 225.927 553.476 226.425 554.074C227.813 555.726 230.706 554.249 232.443 554.022C237.331 553.35 233.332 554.283 232.551 554.456Z" fill="#FEFEFE"></path>
<path d="M224.89 616.756C225.596 616.563 226.251 616.214 226.836 615.738C226.209 615.848 225.394 615.602 224.5 615.735C221.028 616.253 218.502 612.01 216.693 608.971L216.663 608.921C216.381 608.454 215.034 608.845 215.025 609.464C214.933 614.613 217.218 619.502 220.883 621.926C221.373 622.252 222.928 621.362 222.23 620.905C219.728 619.243 217.883 616.276 217.111 612.908C217.792 613.843 218.532 614.712 219.396 615.408C221 616.712 223.012 617.277 224.89 616.756Z" fill="#FEFEFE"></path>
</svg>